<svg width="962" height="653" viewBox="0 0 962 653" fill="none" xmlns="http://www.w3.org/2000/svg">
<path d="M799.975 377.349H652.743C650.794 377.349 649.197 375.752 649.197 373.803V362.501C649.197 360.552 650.794 358.956 652.743 358.956H799.975C801.924 358.956 803.521 360.552 803.521 362.501V373.803C803.521 375.752 801.924 377.349 799.975 377.349Z" fill="#D9E7FC"/>
<path d="M686.596 377.349L684.761 388.109L658.225 543.87C658.149 544.411 657.55 544.825 656.837 544.825C655.473 544.825 654.413 543.922 654.56 542.881L675.605 383.376L676.404 377.349H686.596Z" fill="#D9E7FC"/>
<path d="M686.596 377.349L684.76 388.109C683.5 383.822 675.604 383.376 675.604 383.376L676.404 377.349H686.596Z" fill="#BFD3EF"/>
<path d="M795.881 652.244C795.168 652.244 794.569 651.569 794.493 650.675L767.953 395.006L766.807 383.989L766.118 377.344H776.31L777.108 387.235L777.731 394.996L798.154 649.05C798.306 650.756 797.246 652.244 795.881 652.244Z" fill="#D9E7FC"/>
<path d="M777.736 394.996C775.141 386.579 766.817 383.993 766.817 383.993C766.817 383.993 766.817 383.989 766.812 383.989L766.122 377.344H776.315L777.114 387.235L777.736 394.996Z" fill="#BFD3EF"/>
<path opacity="0.5" d="M665.759 282.958C665.759 282.958 717.438 206.475 784.239 179.336C793.115 175.729 801.62 185.311 797.061 193.733C796.985 193.875 796.909 194.013 796.828 194.156C788.798 208.414 710.474 245.672 665.759 282.958Z" fill="#DFEBFD"/>
<path opacity="0.5" d="M648.674 303.675C648.674 303.675 742.724 223.233 836.998 214.769C842.748 214.251 848.108 218.267 848.838 223.994C849.318 227.72 847.948 232.463 842.368 238.086C827.478 253.086 717.153 272.592 648.674 303.675Z" fill="#DFEBFD"/>
<g style="mix-blend-mode:multiply">
<path d="M329.961 173.752C329.961 173.752 293.471 131.085 288.365 87.5349C287.685 81.7459 294.683 78.3149 298.88 82.3499C298.952 82.4159 299.023 82.4879 299.09 82.5539C306.159 89.5649 315.334 141.508 329.961 173.752Z" fill="#42C1F3" fill-opacity="0.29"/>
</g>
<g style="mix-blend-mode:multiply">
<path d="M339.345 187.117C339.345 187.117 307.39 118.97 317.677 62.3399C318.305 58.8849 321.528 56.3939 325.003 56.8939C327.266 57.2169 329.823 58.7849 332.219 62.9679C338.608 74.1229 332.2 141.946 339.345 187.117Z" fill="#42C1F3" fill-opacity="0.29"/>
</g>
<g style="mix-blend-mode:multiply">
<path d="M494.939 6.33295C478.818 -11.1482 447.785 13.106 447.785 13.106C447.785 13.106 443.022 60.872 436.68 65.254C430.339 69.636 432.777 23.6189 432.777 23.6189C418.967 29.1939 393.862 62.7589 393.862 62.7589C393.862 62.7589 417.636 103.205 410.411 105.891C403.185 108.576 391.186 69.004 391.186 69.004C380.452 79.446 376.311 100.472 376.311 100.472C374.063 132.373 415.15 133.609 415.15 133.609C415.15 133.609 423.089 147.806 422.799 168.98C422.799 168.98 422.381 173.081 423.042 179.331L426.512 177.525C426.312 176.446 426.155 175.387 426.051 174.346C426.046 174.341 426.046 174.331 426.051 174.327C426.051 174.312 426.046 174.298 426.046 174.279C426.003 173.619 425.946 172.677 425.889 171.527V171.522V171.518C425.87 168.894 425.785 166.988 425.661 165.643C425.661 165.638 425.661 165.634 425.661 165.629C425.442 157.464 425.599 146.599 427.719 143.229C427.719 143.229 427.054 142.887 426.146 142.026C426.645 142.411 427.168 142.811 427.719 143.229C440.284 152.853 471.074 139.512 485.849 127.506C500.62 115.501 490.979 114.588 478.129 111.66C465.28 108.728 447.657 120.444 440.597 120.349C433.538 120.254 440.051 113.086 451.517 108.191C462.983 103.295 474.245 111.447 492.937 103.866C511.634 96.285 507.746 55.72 507.746 55.72C497.435 65.943 471.849 70.6429 468.793 66.8459C465.736 63.0479 498.609 46.4609 503.035 42.5399C507.451 38.6279 511.054 23.8139 494.939 6.33295Z" fill="#42C1F3" fill-opacity="0.29"/>
</g>
<g style="mix-blend-mode:multiply">
<path d="M675.956 30.068C652.12 4.22296 606.227 40.087 606.227 40.087C606.227 40.087 599.181 110.719 589.802 117.198C580.423 123.68 584.031 55.634 584.031 55.634C563.613 63.88 526.485 113.509 526.485 113.509C526.485 113.509 561.64 173.319 550.953 177.288C540.267 181.261 522.525 122.744 522.525 122.744C506.652 138.186 500.529 169.274 500.529 169.274C497.206 216.442 557.961 218.276 557.961 218.276C557.961 218.276 569.698 239.265 569.27 270.576C569.27 270.576 568.652 276.641 569.627 285.885L574.756 283.214C574.457 281.622 574.228 280.054 574.076 278.509C574.072 278.499 574.072 278.49 574.076 278.48C574.072 278.457 574.071 278.438 574.071 278.414C574.01 277.44 573.929 276.047 573.839 274.345V274.341C573.839 274.336 573.839 274.336 573.839 274.331C573.805 270.448 573.686 267.63 573.501 265.648C573.501 265.643 573.501 265.634 573.496 265.629C573.173 253.557 573.401 237.492 576.544 232.511C576.544 232.511 575.559 232.007 574.219 230.729C574.96 231.294 575.731 231.888 576.544 232.511C595.126 246.746 640.654 227.017 662.498 209.26C684.342 191.503 670.085 190.163 651.084 185.829C632.083 181.494 606.027 198.818 595.587 198.675C585.148 198.533 594.775 187.939 611.732 180.7C628.689 173.462 645.337 185.515 672.98 174.303C700.624 163.091 694.881 103.11 694.881 103.11C679.636 118.224 641.8 125.182 637.279 119.564C632.758 113.947 681.371 89.422 687.912 83.623C694.468 77.82 699.792 55.914 675.956 30.068Z" fill="#42C1F3" fill-opacity="0.29"/>
</g>
<g style="mix-blend-mode:multiply">
<path d="M2.9717 217.349C2.9337 178.001 67.9037 172.639 67.9037 172.639C67.9037 172.639 127.347 225.358 139.982 223.561C152.618 221.765 97.9627 168.566 97.9627 168.566C121.015 159.84 189.232 172.454 189.232 172.454C189.232 172.454 205.761 248.314 217.565 243.466C229.369 238.618 199.501 177.041 199.501 177.041C224.278 177.687 252.929 198.595 252.929 198.595C291.492 234.849 242.937 282.487 242.937 282.487C242.937 282.487 249.231 308.651 273.366 334.07C273.366 334.07 278.481 338.585 284.699 346.926L278.453 348.623C277.488 347.088 276.485 345.624 275.439 344.236C275.434 344.222 275.429 344.217 275.42 344.212C275.405 344.193 275.391 344.174 275.372 344.15C274.683 343.3 273.694 342.097 272.472 340.633L272.468 340.629C272.468 340.624 272.463 340.624 272.463 340.624C269.539 337.406 267.5 335.001 266.145 333.228C266.14 333.224 266.135 333.219 266.135 333.209C257.231 323.038 244.838 310.006 238.473 308.295C238.473 308.295 238.901 307.135 239.029 305.068C238.853 306.099 238.668 307.169 238.473 308.295C234.009 334.108 181.593 352.454 150.146 354.44C118.704 356.427 129.4 344.502 141.732 326.513C154.063 308.523 188.643 302.981 197.114 294.939C205.59 286.898 189.627 285.496 170.184 292.42C150.745 299.345 146.215 321.893 114.972 333.666C83.7297 345.438 42.8897 291.765 42.8897 291.765C66.9057 292.615 103.292 269.607 102.745 261.555C102.199 253.504 43.6027 270.253 33.8147 270.453C24.0307 270.662 3.0097 256.698 2.9717 217.349Z" fill="#42C1F3" fill-opacity="0.29"/>
</g>
<path d="M717.652 382.183C717.652 398.632 716.169 414.74 713.321 430.372C690.626 555.105 581.416 649.682 450.105 649.682C340.89 649.682 246.968 584.269 205.386 490.486C199.905 478.128 195.332 465.272 191.757 452.011C185.748 429.754 182.544 406.341 182.544 382.183C182.544 362.425 184.688 343.171 188.752 324.64C199.867 273.941 225.367 228.633 260.759 193.195C270.794 183.138 281.638 173.875 293.176 165.51C337.258 133.538 391.476 114.683 450.105 114.683C456.908 114.683 463.653 114.94 470.328 115.444C479.741 116.147 489.015 117.335 498.138 118.989C560.418 130.277 615.197 163.119 654.454 209.512C662.369 218.866 669.652 228.77 676.236 239.16C702.468 280.524 717.652 329.583 717.652 382.183Z" fill="#4ED3F5"/>
<path d="M717.652 382.183C717.652 398.632 716.169 414.74 713.321 430.372C710.379 446.541 705.981 462.201 700.272 477.216C661.941 578.033 564.397 649.677 450.105 649.677C404.544 649.677 361.65 638.294 324.104 618.218C320.648 616.369 317.235 614.449 313.869 612.453C281.362 593.19 253.276 567.239 231.532 536.488C221.368 522.135 212.593 506.736 205.386 490.486C199.905 478.128 195.332 465.272 191.757 452.011C221.977 459.236 269.691 466.964 326.88 463.328C336.811 462.7 347.027 461.726 357.495 460.348C394.333 455.5 434.199 445.628 475.248 428.029C572.612 386.284 638.12 302.71 676.232 239.155C702.468 280.524 717.652 329.583 717.652 382.183Z" fill="#4888E5"/>
<path d="M717.652 382.183C717.652 398.632 716.169 414.74 713.321 430.372C702.43 428.794 688.25 427.254 679.493 428.285C663.72 430.139 647.951 462.605 615.478 463.879C583.004 465.153 543.11 440.343 500.434 457.04C457.754 473.737 435.492 456.113 428.066 444.055C420.646 431.997 446.621 404.169 444.268 392.111C441.91 380.053 447.548 339.241 483.729 339.241C519.911 339.241 534.895 319.469 541.251 312.34C559.477 291.902 573.724 310.486 588.566 294.716C603.412 278.946 577.432 251.118 588.566 232.568C599.699 214.018 654.445 209.507 654.445 209.507C693.878 256.099 717.652 316.365 717.652 382.183Z" fill="#00FFD4"/>
<path d="M323.23 336.717C310.242 355.006 327.869 393.033 316.736 412.515C305.602 431.992 284.262 428.285 268.494 437.558C254.798 445.609 249.312 478.832 205.391 490.485C190.706 457.382 182.549 420.733 182.549 382.183C182.549 362.425 184.693 343.171 188.757 324.64C197.718 315.591 209.997 307.468 226.745 303.057C279.627 289.146 280.944 250.229 302.289 249.488C354.258 247.682 336.217 318.423 323.23 336.717Z" fill="#00FFD4"/>
<path d="M522.701 235.809C522.701 235.809 490.228 229.317 472.6 240.448C454.973 251.579 419.253 271.522 423.892 283.114C428.532 294.707 462.394 303.523 476.313 303.057C490.228 302.592 480.758 275.087 548.215 283.114C565.315 285.153 565.562 247.577 522.701 235.809Z" fill="#00FFD4"/>
<path d="M498.133 118.985C481.68 147.777 451.569 184.241 400.727 197.416C339.378 213.305 287.191 201.827 260.759 193.191C270.795 183.134 281.638 173.87 293.176 165.505C337.258 133.533 391.476 114.679 450.105 114.679C456.908 114.679 463.654 114.935 470.328 115.439C479.741 116.147 489.015 117.335 498.133 118.985Z" fill="#27BDDE"/>
<path d="M700.267 477.216C661.937 578.033 564.392 649.677 450.1 649.677C404.539 649.677 361.645 638.294 324.099 618.218C320.643 616.369 317.23 614.449 313.864 612.453C382.928 607.42 555.251 583.831 700.267 477.216Z" fill="#0075C9"/>
<path d="M368.177 554.102C353.982 564.454 350.598 596.265 341.518 600.671C336.959 602.881 329.952 610.847 324.1 618.223C287.233 598.513 255.525 570.424 231.528 536.493C247.591 525.348 277.702 506.527 298.595 506.013C298.595 506.013 309.035 505.89 316.774 484.682C319.826 476.322 323.092 468.908 326.876 463.328C332.699 454.744 339.74 450.5 349.081 453.846C353.084 455.281 355.603 457.52 357.491 460.343C362.896 468.39 363.233 481.165 378.45 493.485C399.02 510.129 382.377 543.751 368.177 554.102Z" fill="#A8D29F"/>
<path d="M571.252 194.664C571.252 194.664 568.457 144.389 506.6 135.648C506.6 135.648 504.318 194.664 571.252 194.664Z" fill="#00FFD4"/>
<path d="M568.457 194.322C568.457 194.322 618.063 203.694 638.139 144.55C638.144 144.545 580.888 128.566 568.457 194.322Z" fill="#00FFD4"/>
<path d="M569.142 173.348C569.142 173.348 591.152 155.534 573.13 125.482C573.135 125.482 545.515 144.17 569.142 173.348Z" fill="#00FFD4"/>
<path d="M568.457 194.322C568.457 194.322 561.022 226.57 562.315 237.939H568.457C568.457 237.939 566.085 207.925 571.918 192.768L568.457 194.322Z" fill="#00FFD4"/>
<path d="M636.95 273.409C636.95 273.409 635.629 249.621 606.359 245.481C606.359 245.481 605.275 273.409 636.95 273.409Z" fill="#00AD9F"/>
<path d="M635.629 273.247C635.629 273.247 659.103 277.682 668.602 249.697C668.602 249.692 641.509 242.131 635.629 273.247Z" fill="#00AD9F"/>
<path d="M635.952 263.324C635.952 263.324 646.367 254.892 637.839 240.672C637.839 240.672 624.771 249.517 635.952 263.324Z" fill="#00AD9F"/>
<path d="M635.629 273.247C635.629 273.247 632.111 288.509 632.724 293.884H635.629C635.629 293.884 634.507 279.683 637.264 272.511L635.629 273.247Z" fill="#00AD9F"/>
<path d="M535.056 216.442C535.056 216.442 534.224 201.503 515.846 198.908C515.846 198.908 515.171 216.442 535.056 216.442Z" fill="#00FFD4"/>
<path d="M534.226 216.342C534.226 216.342 548.962 219.127 554.929 201.551C554.933 201.551 537.919 196.803 534.226 216.342Z" fill="#00FFD4"/>
<path d="M534.429 210.111C534.429 210.111 540.97 204.816 535.612 195.89C535.612 195.886 527.407 201.442 534.429 210.111Z" fill="#00FFD4"/>
<path d="M534.225 216.342C534.225 216.342 532.015 225.924 532.4 229.303H534.225C534.225 229.303 533.522 220.387 535.252 215.881L534.225 216.342Z" fill="#00FFD4"/>
<path d="M681.071 182.045C681.071 182.045 676.308 181.119 675.219 182.045C674.13 182.972 668.963 188.219 670.071 189.945C671.178 191.665 676.479 188.519 677.582 188.224C678.684 187.929 681.765 186.722 681.765 186.722L681.071 182.045Z" fill="#FFCBA8"/>
<path d="M731.681 350.391L736.786 352.292C736.786 352.292 758.963 321.541 761.692 294.488C762.181 289.659 762.015 284.978 760.964 280.657C760.964 280.657 761.183 279.421 761.559 277.23C761.734 276.209 761.948 274.982 762.195 273.571C762.918 269.44 763.907 263.789 765.043 257.354C767.653 242.549 771.033 223.618 773.657 209.707L772.283 209.265L757.399 204.464L754.323 194.697L743.242 191.779C743.242 191.779 740.765 196.622 738.555 219.493C738.146 222.492 737.775 225.8 737.495 229.388C736.634 240.339 736.568 253.922 738.55 269.455C739.059 273.428 739.7 277.535 740.494 281.75C741.079 284.844 741.164 289.055 740.917 293.894C739.8 316.018 731.681 350.391 731.681 350.391Z" fill="#35488B"/>
<path d="M737.49 229.398L761.559 277.235C761.734 276.213 761.948 274.987 762.196 273.576C762.918 269.445 763.907 263.794 765.043 257.359C767.653 242.554 771.033 223.623 773.657 209.712L772.283 209.27L757.399 204.469L754.323 194.702L743.242 191.784C743.242 191.784 740.765 196.627 738.555 219.498C738.141 222.497 737.77 225.81 737.49 229.398Z" fill="#2C3A64"/>
<path d="M748.077 197.92L748.633 193.143C757.965 195.619 782.908 186.218 782.908 186.218C782.908 186.218 791.95 194.165 790.761 213.214C790.182 222.511 789.121 262.021 788.018 273.713C787.619 277.953 787.267 280.966 787.125 282.169C787.12 282.173 787.12 282.178 787.12 282.178C787.077 282.544 787.206 282.891 787.391 283.214C789.017 285.976 790.367 288.851 791.47 291.793C802.323 320.7 789.796 356.303 789.796 356.303L786.55 354.996C786.55 354.996 779.424 315.377 773.633 297.872C772.649 294.902 771.708 292.573 770.843 291.175C768.323 287.112 765.989 280.477 763.869 272.582C759.861 257.658 756.634 238.243 754.49 223.252C754.2 223.267 748.077 197.92 748.077 197.92Z" fill="#35488B"/>
<path d="M681.071 182.045L681.765 186.717C681.765 186.717 682.074 186.717 682.616 186.679C684.318 186.565 688.449 186.332 693.126 185.829C700.157 185.135 708.505 183.899 711.828 181.85C716.891 178.761 725.196 169.298 730.606 159.831C730.763 159.598 730.877 159.369 730.991 159.137C733.81 154.113 735.783 149.132 735.935 145.154C736.049 142.72 735.778 140.634 735.279 138.818C734.623 136.423 733.539 134.531 732.422 133.101C732.265 132.868 732.113 132.635 731.88 132.445C730.026 130.244 728.21 129.317 728.21 129.317C727.283 128.932 726.28 129.393 725.234 130.515V130.553C724.383 131.442 723.456 132.792 722.567 134.493C722.529 134.531 722.491 134.569 722.491 134.607C722.296 134.954 722.106 135.339 721.873 135.767C721.797 135.843 721.759 135.962 721.716 136.038C721.293 136.927 720.865 137.853 720.442 138.818C715.688 149.17 710.63 164.854 706.418 169.526C704.602 171.537 696.297 175.477 689.689 178.409C684.936 180.501 681.071 182.045 681.071 182.045Z" fill="#FFCBA8"/>
<path d="M730.245 139.983C733.173 141.342 736.715 142.264 740.993 142.502C757.042 143.381 760.684 129.317 761.345 119.983C759.03 119.146 757.004 119.222 755.84 119.289C754.704 119.351 753.515 119.469 752.536 119.588C750.573 118.562 747.045 113.585 745.006 105.254L744.312 105.577L732.731 111.019C732.731 111.019 733.963 114.788 734.871 118.391C735.579 121.214 736.088 123.937 735.664 124.698C734.752 125.068 734.205 125.301 734.205 125.301C734.205 125.301 734.205 125.306 734.2 125.315C734.086 125.605 731.571 132.022 730.245 139.983Z" fill="#FFCBA8"/>
<path d="M726.233 150.51C726.352 150.829 726.49 151.142 726.632 151.466C730.697 160.216 738.217 196.465 738.217 196.465C737.148 202.982 787.211 195.187 787.339 189.251C789.103 182.958 781.083 172.849 776.562 167.777C775.996 167.14 775.488 166.456 775.045 165.734C773.928 163.923 773.22 161.884 772.997 159.75C772.108 151.337 772.445 143.452 772.374 138.661C771.49 138.006 770.634 137.402 769.84 136.827C768.623 135.938 767.549 135.111 766.755 134.27C765.885 133.352 765.338 132.416 765.276 131.356C765.229 130.558 765.257 129.736 765.338 128.913C765.376 128.524 765.424 128.139 765.485 127.749C766.108 123.676 767.81 119.987 767.81 119.987C763.503 118.243 755.849 119.284 755.849 119.284C755.849 119.284 755.859 119.707 755.864 120.406C755.887 123.2 755.864 130.382 754.97 131.741C753.848 133.433 733.34 140.848 732.256 138.552C731.186 136.294 734.11 125.715 734.219 125.311C734.224 125.301 734.224 125.296 734.224 125.296C727.355 127.991 724.902 130.254 724.902 130.254C729.023 132.939 723.029 142.022 726.233 150.51Z" fill="#FFC15B"/>
<path d="M740.048 74.893C740.071 74.199 740.613 66.703 752.032 66.309C752.032 66.309 746.418 66.979 745.448 69.446C745.448 69.446 749.27 66.394 752.384 67.378C755.498 68.357 757.328 73.814 757.347 75.605C757.366 77.397 755.636 83.181 753.658 83.676C752.912 83.861 752.046 83.814 751.262 83.681C751.79 84.503 752.303 85.406 752.797 86.418C757.352 95.772 752.655 104.907 748.799 103.899C746.327 103.253 745.624 107.473 745.624 107.473L721.588 88.02C721.584 88.015 730.411 69.755 740.048 74.893Z" fill="#5A230F"/>
<path d="M732.736 111.014C732.736 111.014 733.967 114.778 734.875 118.386C741.645 116.499 743.698 109.384 744.316 105.572L732.736 111.014Z" fill="#ED985F"/>
<path d="M731.31 115.002C731.31 115.002 747.501 111.257 745.015 101.209C742.524 91.1619 742.938 83.9129 732.498 85.8809C722.054 87.8489 721.003 92.1789 721.018 95.7339C721.032 99.2889 727.036 115.715 731.31 115.002Z" fill="#FFCBA8"/>
<path d="M720.105 90.03C721.845 86.39 723.893 86.585 725.177 87.231C732.783 80.192 740.247 85.943 740.247 85.943C743.118 92.882 749.346 95.715 749.346 95.715C749.346 95.715 746.859 98.262 739.648 98.205C737.447 98.186 735.231 97.179 733.216 95.786C737.1 99.698 741.659 102.084 741.659 102.084C732.631 100.358 726.579 89.911 725.961 88.799C725.196 89.931 723.737 92.331 723.613 94.36C723.447 97.117 724.393 102.473 722.814 102.678C722.814 102.668 717.495 95.487 720.105 90.03Z" fill="#5A230F"/>
<path d="M724.883 130.254C724.883 130.254 720.985 137.055 720.4 138.804C720.4 138.804 725.458 138.609 727.497 142.497C727.497 142.497 727.987 131.171 724.883 130.254Z" fill="#FFC15B"/>
<path d="M751.699 184.284C761.573 184.179 769.935 173.927 775.045 165.734C773.928 163.923 773.22 161.884 772.996 159.75C772.107 151.337 772.445 143.452 772.373 138.661C771.489 138.006 770.634 137.402 769.84 136.827C768.623 135.938 767.548 135.111 766.754 134.27C758.663 147.934 738.312 184.427 751.699 184.284Z" fill="#ED7D2B"/>
<path d="M714.377 189.655L715.727 194.598C715.727 194.598 717.429 194.289 720.134 193.785C720.947 193.628 721.408 193.514 721.408 193.514C723.571 193.091 726.162 192.511 728.981 191.893H729.019C733.849 190.734 739.259 189.346 743.818 187.796C747.026 186.675 749.807 185.477 751.699 184.279C751.894 184.165 752.046 184.046 752.241 183.894C756.762 180.61 762.134 170.952 766.303 160.601C766.883 159.17 767.425 157.744 767.962 156.351C769.892 151.176 771.437 146.076 772.369 141.675C772.949 139.046 773.334 136.651 773.41 134.683C773.448 133.989 773.486 133.333 773.448 132.711C773.372 121.508 767.805 119.964 767.805 119.964C767.691 119.926 767.572 119.888 767.42 119.85C766.455 119.693 765.448 120.353 764.406 121.627C763.094 123.21 761.702 125.8 760.271 128.928C758.07 133.909 755.75 140.363 753.587 146.774C752.389 150.292 751.229 153.804 750.069 157.05C749.413 159.023 748.757 160.876 748.139 162.573C746.941 165.819 745.857 168.443 744.892 170.106C744.274 171.19 742.496 172.697 740.138 174.393C736.045 177.369 730.055 180.962 724.84 183.894C722.677 185.13 720.628 186.252 718.931 187.178C716.193 188.69 714.377 189.655 714.377 189.655Z" fill="#FFCBA8"/>
<path d="M760.289 128.947C767.729 126.898 773.462 132.701 773.462 132.701C773.367 121.518 767.8 119.987 767.8 119.987C765.561 119.065 762.965 122.944 760.289 128.947Z" fill="#FFC15B"/>
<path d="M770.91 358.96H796.623C796.623 358.96 797.241 355.044 795.896 352.069C794.607 349.217 792.592 347.919 793.077 344.469C791.441 346.151 788.779 348.034 785.062 347.535C784.605 348.271 782.119 352.226 780.598 353.319C778.925 354.521 771.428 354.093 770.91 358.96Z" fill="#233862"/>
<path d="M715.703 358.96H741.417C741.417 358.96 742.377 354.859 740.689 352.069C739.197 349.602 739.767 348.195 740.875 346.151C739.71 346.627 738.203 347.064 736.544 346.969C735.265 346.893 733.91 346.313 732.722 345.624C731.614 346.883 726.875 352.254 725.396 353.319C723.713 354.521 716.221 354.093 715.703 358.96Z" fill="#233862"/>
<path d="M712.846 212.563L706.737 197.658C705.943 195.714 703.809 194.707 701.826 195.253C699.801 191.446 697.015 188.357 693.854 186.185C690.522 183.894 686.785 182.63 683.096 182.644C681.147 182.654 679.207 183.02 677.353 183.78C668.663 187.34 664.77 198.314 667.96 209.094L667.484 209.289C667.484 209.289 666.001 209.184 663.51 209.184C655.643 209.184 637.754 210.23 625.204 218.946C625.204 218.946 624.414 219.788 624.386 221.071C624.372 221.494 624.443 221.969 624.652 222.478C624.652 222.478 644.799 209.436 663.429 222.839C664.575 223.656 665.683 224.417 666.762 225.125L668.435 229.203C671.207 235.966 679.003 239.227 685.768 236.456L702.834 229.464L706.39 228.005C712.404 225.534 715.318 218.585 712.846 212.563ZM679.759 200.482L672.809 203.333C670.922 204.103 669.928 206.161 670.413 208.086L669.666 208.39C666.838 198.571 670.289 188.671 678.047 185.491C679.136 185.044 680.258 184.75 681.389 184.607C684.96 184.137 688.682 185.097 692.029 187.183C695.209 189.165 698.042 192.159 700.086 195.924L699.06 196.342C698.052 194.631 695.908 193.866 694.016 194.636L687.061 197.487C686.519 196.161 685.226 195.358 683.871 195.358C683.443 195.358 683.001 195.439 682.583 195.61L681.622 196.004C679.887 196.727 679.046 198.737 679.759 200.482Z" fill="#FFC15B"/>
<path d="M666.757 225.12C665.678 224.417 664.566 223.656 663.425 222.834C644.79 209.431 624.648 222.473 624.648 222.473C624.439 221.964 624.367 221.489 624.382 221.066C627.201 219.208 637.773 213.034 650.865 215.144C666.211 217.62 668.987 219.754 666.757 225.12Z" fill="#F89C46"/>
<path d="M706.381 228.001L702.825 229.46C708.154 226.551 701.556 214.255 697.691 206.137C693.831 198.02 687.988 201.732 687.988 201.732C686.648 199.013 683.781 199.16 683.781 199.16C683.629 196.537 681.632 196.014 681.632 196.014L682.593 195.619C683.011 195.448 683.453 195.368 683.881 195.368C685.236 195.368 686.524 196.171 687.071 197.497L694.026 194.645C695.913 193.875 698.062 194.64 699.069 196.351L700.096 195.933C698.052 192.174 695.219 189.175 692.038 187.193C688.692 185.106 684.969 184.146 681.399 184.617C681.956 184.165 682.559 183.538 683.096 182.654C686.785 182.639 690.527 183.899 693.854 186.195C697.016 188.367 699.802 191.456 701.827 195.263C703.809 194.716 705.944 195.724 706.737 197.668L712.846 212.573C715.318 218.585 712.404 225.534 706.381 228.001Z" fill="#F89C46"/>
<path d="M698.38 194.445C700.852 195.486 704.332 199.117 709.894 196.917C713.873 195.372 718.085 194.289 720.133 193.79C720.946 193.633 721.408 193.519 721.408 193.519L719.206 187.107C719.206 187.107 719.13 187.145 718.935 187.183C717.505 187.492 710.241 189.037 706.842 188.267C703.015 187.378 696.602 191.974 696.602 191.974C696.602 191.974 695.908 193.443 698.38 194.445Z" fill="#FFCBA8"/>
<path d="M628.574 233.238C628.574 230.919 624.372 223.756 624.372 223.756C624.372 223.756 620.169 230.919 620.169 233.238C620.169 235.558 622.052 237.44 624.372 237.44C626.692 237.44 628.574 235.558 628.574 233.238Z" fill="white"/>
<path d="M957.338 627.116C957.338 627.116 962.208 631.626 961.258 634.829C960.308 638.033 955.918 640.172 955.318 644.088C954.728 648.004 952.358 650.138 950.218 650.138C948.078 650.138 940.028 650.138 940.028 650.138C940.028 650.138 938.458 647.382 942.248 646.55C946.048 645.718 947.478 641.117 947.248 636.845C947.008 632.572 947.598 626.878 947.598 626.878L955.668 624.977L957.338 627.116Z" fill="#2C3A64"/>
<path d="M897.638 639.411C897.638 639.411 898.828 648.907 896.688 649.972C894.548 651.041 869.028 650.685 869.028 650.685C869.028 650.685 869.028 647.481 873.418 646.768C877.818 646.056 885.528 643.446 886.838 637.629C888.138 631.816 897.638 639.411 897.638 639.411Z" fill="#2C3A64"/>
<path d="M874.548 494.431C874.548 494.431 875.988 512.42 877.688 534.045C879.988 563.423 882.758 599.506 883.038 606.341C883.508 618.209 885.408 637.196 885.408 637.196C885.408 637.196 889.918 641.707 898.948 639.806C898.948 639.806 906.988 612.7 909.288 584.022C909.318 583.551 909.358 583.076 909.388 582.605C911.528 553.409 914.848 491.935 914.848 491.935L874.548 494.431Z" fill="#35488B"/>
<path d="M874.548 494.431C874.548 494.431 875.988 512.42 877.688 534.045L909.278 584.026C909.318 583.556 909.348 583.08 909.388 582.61C911.518 553.413 914.838 491.94 914.838 491.94L874.548 494.431Z" fill="#2C3A64"/>
<path d="M881.138 496.569C881.138 496.569 907.128 561.726 924.228 592.344C941.318 622.962 946.658 631.507 946.658 631.507C946.658 631.507 956.448 627.591 957.338 624.92C957.338 624.92 950.808 565.809 939.358 551.398C932.888 543.256 925.288 518.822 924.938 510.277C924.578 501.731 922.618 484.82 922.618 484.82L881.138 496.569Z" fill="#35488B"/>
<path d="M830.118 487.548C830.118 487.548 820.948 491.95 819.708 493.081C818.478 494.212 815.428 499.759 815.658 500.177C815.898 500.595 816.348 500.723 817.188 500.148C818.018 499.573 820.348 497.173 820.438 497.615C820.518 498.062 814.208 505.49 815.328 507.059C816.438 508.632 822.768 508.166 826.388 505.595C829.998 503.024 833.608 493.58 834.148 493.062C838.758 488.694 830.118 487.548 830.118 487.548Z" fill="#FFB27D"/>
<path d="M829.708 492.268C827.158 490.053 827.088 489.492 827.088 489.492C827.088 489.492 843.358 461.37 844.768 458.665C846.178 455.961 854.888 413.727 854.888 413.727L885.028 404.992C885.028 404.992 863.798 459.877 860.088 466.66C853.968 477.867 833.968 494.364 833.968 494.364C833.968 494.364 831.708 494.007 829.708 492.268Z" fill="#ED7D2B"/>
<path d="M869.688 393.998C869.688 393.998 859.078 412.658 848.708 415.091C848.708 415.091 849.148 408.827 851.668 404.535C850.638 403.319 849.728 402.197 848.938 401.194C846.328 397.848 845.088 395.804 845.088 395.804L848.608 386.346L850.998 379.93C852.138 382.012 853.408 383.789 854.728 385.305C861.518 393.114 869.688 393.998 869.688 393.998Z" fill="#FFB27D"/>
<path d="M854.728 385.305C854.728 385.305 855.988 394.654 848.938 401.194C846.328 397.848 845.088 395.804 845.088 395.804L848.608 386.346C852.378 385.196 854.728 385.305 854.728 385.305Z" fill="#ED975D"/>
<path d="M842.298 397.183C842.298 397.183 858.138 391.004 854.138 381.199C850.138 371.389 849.488 363.989 839.208 367.515C828.918 371.042 828.488 375.581 829.028 379.184C829.568 382.781 838.068 398.537 842.298 397.183Z" fill="#FFB27D"/>
<path d="M924.158 489.744C917.768 498.931 869.968 511.208 870.538 504.853C870.758 502.415 871.048 498.128 870.538 492.311C870.418 490.947 870.248 489.502 870.028 487.976C868.808 479.611 865.928 468.87 859.488 456.427C859.008 455.495 858.508 454.554 857.988 453.604C855.338 448.789 853.088 443.699 851.368 438.718C848.048 429.15 846.708 419.991 848.388 414.008C848.388 413.974 848.398 413.951 848.408 413.927C858.398 409.307 862.278 391.394 862.278 391.394C862.278 391.394 896.358 397.511 915.458 442.933C915.458 442.933 917.288 447.919 919.378 454.692C921.928 462.905 924.858 473.727 925.368 481.45C925.608 485.115 925.308 488.085 924.158 489.744Z" fill="#FFC15B"/>
<path d="M856.418 362.976C856.528 362.758 856.848 362.525 857.638 362.283C857.638 362.283 856.898 362.035 856.038 362.225C855.598 361.142 854.518 359.293 852.488 359.279C852.488 359.279 853.648 359.583 854.078 360.747C851.298 358.984 846.148 358.475 833.288 362.758C816.328 368.404 824.808 378.243 827.368 379.032C829.938 379.82 834.668 374.759 838.928 374.065C843.178 373.376 845.478 379.298 847.098 379.792C848.718 380.281 847.798 378.936 849.498 377.587C851.188 376.237 852.168 379.412 852.138 381.646C852.098 383.875 855.408 385.99 855.408 385.99C855.408 385.99 855.408 385.99 857.358 382.43C859.298 378.87 858.768 365.937 856.908 363.609C856.748 363.395 856.588 363.186 856.418 362.976Z" fill="#2B478B"/>
<path d="M925.358 481.45C884.228 469.046 877.688 420.02 877.688 420.02C877.688 420.02 901.108 437.914 919.378 454.697C921.928 462.905 924.858 473.727 925.358 481.45Z" fill="#ED7D2B"/>
<path d="M936.648 483.057C936.648 483.057 935.718 490.837 935.938 492.106C936.158 493.375 937.648 497.154 938.008 497.173C938.378 497.192 939.498 497.239 939.468 496.46C939.438 495.68 938.928 494.953 939.258 495.082C939.588 495.21 939.678 498.147 941.158 498.071C942.638 497.995 947.008 496.351 946.828 492.938C946.658 489.526 941.998 483.28 941.888 482.715C940.958 477.919 936.648 483.057 936.648 483.057Z" fill="#FFB27D"/>
<path d="M939.108 484.374C935.848 485.871 934.628 484.345 934.628 484.345C934.628 484.345 915.628 452.61 913.618 450.058C911.618 447.506 876.528 432.453 876.528 432.453C876.528 432.453 862.248 426.997 861.688 418.337C861.198 410.809 865.468 406.189 870.148 403.399C875.718 400.077 882.778 400.567 887.908 404.545C899.418 413.48 922.238 431.46 925.908 436.332C934.078 447.182 943.138 481.189 943.138 481.189C943.138 481.189 941.668 483.2 939.108 484.374Z" fill="#FFC15B"/>
<path d="M857.398 505.89L848.838 514.435L848.718 514.359L835.878 506.308C835.878 506.308 842.528 508.451 843.428 508.204C844.268 507.967 853.558 504.777 855.738 505.044C855.878 505.058 855.988 505.091 856.058 505.134C857.398 505.89 857.398 505.89 857.398 505.89Z" fill="#BACCF0"/>
<path d="M848.458 516.755C848.118 516.679 847.098 516.441 845.708 516.084C841.728 515.063 834.698 513.104 831.918 511.503C829.428 510.063 816.278 502.415 807.215 497.044C810.828 495.11 814.398 494.839 817.388 495.215C827.968 501.422 841.788 509.573 843.478 510.766C846.268 512.724 850.058 515.091 850.058 515.091C850.058 515.091 850.038 515.2 849.998 515.362C849.868 515.885 849.478 516.978 848.458 516.755Z" fill="#E58638"/>
<path d="M848.458 516.755C848.118 516.679 847.098 516.441 845.708 516.084C841.718 515.063 834.698 513.104 831.918 511.503C829.428 510.063 816.278 502.415 807.215 497.044C802.665 494.35 799.142 492.225 798.524 491.75C796.675 490.329 793.115 486.778 793.989 486.103C794.864 485.433 796.571 486.108 797.217 486.008C797.227 486.008 797.236 486.004 797.246 486.004C797.398 485.98 797.645 485.942 797.987 485.923C799.209 485.852 801.634 486.018 805.085 488.009C805.085 488.009 810.561 491.208 817.388 495.215C827.968 501.422 841.788 509.573 843.478 510.766C846.258 512.724 850.058 515.091 850.058 515.091C850.058 515.091 850.038 515.2 849.998 515.362C849.868 515.885 849.478 516.978 848.458 516.755Z" fill="#739AF0"/>
<path d="M848.458 516.755C848.118 516.679 847.098 516.441 845.708 516.084C845.888 514.502 844.788 513.247 844.788 513.247L849.998 515.357C849.868 515.885 849.478 516.978 848.458 516.755Z" fill="#BACCF0"/>
<g opacity="0.5">
<g opacity="0.5">
<path opacity="0.5" d="M837.158 510.039C837.078 509.991 837.048 509.887 837.088 509.806L837.188 509.649C837.228 509.568 837.338 509.54 837.418 509.587C837.498 509.635 837.528 509.739 837.478 509.82L837.388 509.977C837.348 510.058 837.238 510.086 837.158 510.039Z" fill="#BACCF0"/>
<path opacity="0.5" d="M836.398 509.587C836.318 509.54 836.288 509.435 836.328 509.35L836.418 509.193C836.468 509.112 836.578 509.083 836.658 509.131C836.738 509.179 836.768 509.283 836.718 509.369L836.628 509.525C836.578 509.611 836.478 509.635 836.398 509.587Z" fill="#BACCF0"/>
<path opacity="0.5" d="M835.638 509.136C835.548 509.088 835.528 508.984 835.568 508.903L835.668 508.746C835.718 508.665 835.818 508.637 835.898 508.684C835.978 508.732 836.008 508.836 835.958 508.917L835.868 509.074C835.818 509.16 835.718 509.188 835.638 509.136Z" fill="#BACCF0"/>
<path opacity="0.5" d="M834.868 508.689C834.788 508.642 834.758 508.537 834.808 508.456L834.898 508.299C834.948 508.218 835.048 508.19 835.138 508.238C835.218 508.285 835.248 508.39 835.198 508.47L835.098 508.627C835.058 508.708 834.948 508.737 834.868 508.689Z" fill="#BACCF0"/>
<path opacity="0.5" d="M834.108 508.238C834.028 508.19 833.998 508.085 834.048 508L834.138 507.843C834.188 507.762 834.288 507.734 834.378 507.781C834.458 507.829 834.478 507.933 834.438 508.014L834.338 508.171C834.288 508.257 834.188 508.285 834.108 508.238Z" fill="#BACCF0"/>
<path opacity="0.5" d="M833.348 507.786C833.268 507.738 833.238 507.634 833.288 507.553L833.378 507.396C833.428 507.315 833.528 507.287 833.618 507.334C833.698 507.382 833.718 507.486 833.678 507.567L833.588 507.724C833.528 507.81 833.428 507.833 833.348 507.786Z" fill="#BACCF0"/>
<path opacity="0.5" d="M832.578 507.334C832.498 507.287 832.468 507.182 832.518 507.097L832.608 506.94C832.658 506.859 832.758 506.831 832.838 506.878C832.928 506.926 832.948 507.03 832.908 507.116L832.818 507.273C832.768 507.358 832.658 507.382 832.578 507.334Z" fill="#BACCF0"/>
<path opacity="0.5" d="M831.818 506.888C831.738 506.84 831.708 506.736 831.758 506.655L831.848 506.498C831.898 506.417 831.998 506.389 832.088 506.436C832.168 506.484 832.198 506.588 832.148 506.669L832.058 506.826C832.008 506.907 831.898 506.935 831.818 506.888Z" fill="#BACCF0"/>
<path opacity="0.5" d="M831.058 506.436C830.978 506.389 830.948 506.284 830.998 506.203L831.098 506.046C831.138 505.966 831.248 505.937 831.328 505.985C831.408 506.032 831.438 506.137 831.388 506.222L831.298 506.379C831.248 506.455 831.138 506.484 831.058 506.436Z" fill="#BACCF0"/>
</g>
<g opacity="0.5">
<path opacity="0.5" d="M822.078 501.127C821.998 501.08 821.968 500.975 822.018 500.89L822.108 500.733C822.158 500.652 822.258 500.623 822.348 500.671C822.428 500.718 822.458 500.823 822.408 500.904L822.318 501.061C822.268 501.151 822.158 501.175 822.078 501.127Z" fill="#BACCF0"/>
<path opacity="0.5" d="M821.318 500.676C821.238 500.628 821.208 500.524 821.248 500.443L821.348 500.286C821.388 500.205 821.498 500.177 821.578 500.224C821.658 500.272 821.688 500.376 821.638 500.457L821.548 500.614C821.508 500.699 821.398 500.728 821.318 500.676Z" fill="#BACCF0"/>
<path opacity="0.5" d="M820.558 500.229C820.478 500.181 820.448 500.077 820.488 499.996L820.578 499.839C820.628 499.758 820.738 499.73 820.818 499.777C820.898 499.825 820.928 499.929 820.878 500.015L820.788 500.172C820.738 500.248 820.638 500.277 820.558 500.229Z" fill="#BACCF0"/>
<path opacity="0.5" d="M819.798 499.777C819.708 499.73 819.688 499.625 819.728 499.545L819.818 499.388C819.868 499.307 819.978 499.278 820.058 499.326C820.138 499.373 820.168 499.478 820.118 499.559L820.028 499.716C819.978 499.796 819.878 499.825 819.798 499.777Z" fill="#BACCF0"/>
<path opacity="0.5" d="M819.028 499.326C818.948 499.278 818.918 499.174 818.968 499.093L819.058 498.936C819.108 498.855 819.218 498.827 819.298 498.874C819.378 498.922 819.408 499.026 819.358 499.107L819.268 499.264C819.218 499.35 819.118 499.373 819.028 499.326Z" fill="#BACCF0"/>
<path opacity="0.5" d="M818.268 498.874C818.188 498.827 818.158 498.722 818.208 498.637L818.298 498.48C818.348 498.399 818.448 498.371 818.528 498.418C818.608 498.466 818.638 498.57 818.588 498.656L818.498 498.813C818.448 498.898 818.348 498.922 818.268 498.874Z" fill="#BACCF0"/>
<path opacity="0.5" d="M817.508 498.428C817.428 498.38 817.398 498.275 817.448 498.195L817.538 498.038C817.578 497.957 817.688 497.928 817.768 497.976C817.858 498.024 817.878 498.128 817.838 498.209L817.748 498.366C817.688 498.447 817.588 498.475 817.508 498.428Z" fill="#BACCF0"/>
<path opacity="0.5" d="M816.738 497.976C816.658 497.929 816.628 497.824 816.678 497.743L816.768 497.586C816.818 497.505 816.918 497.477 816.998 497.524C817.088 497.572 817.108 497.677 817.068 497.757L816.978 497.914C816.928 497.995 816.828 498.024 816.738 497.976Z" fill="#BACCF0"/>
<path opacity="0.5" d="M815.978 497.525C815.898 497.477 815.868 497.372 815.918 497.292L816.008 497.135C816.058 497.054 816.158 497.026 816.248 497.073C816.328 497.121 816.358 497.225 816.308 497.306L816.218 497.463C816.168 497.548 816.058 497.572 815.978 497.525Z" fill="#BACCF0"/>
</g>
<g opacity="0.5">
<path opacity="0.5" d="M813.038 495.78C812.948 495.733 812.928 495.628 812.968 495.547L813.058 495.391C813.108 495.31 813.218 495.281 813.298 495.329C813.378 495.376 813.408 495.481 813.358 495.562L813.268 495.719C813.218 495.804 813.118 495.828 813.038 495.78Z" fill="#BACCF0"/>
<path opacity="0.5" d="M814.518 496.664C814.438 496.617 814.408 496.512 814.458 496.431L814.548 496.275C814.598 496.194 814.698 496.165 814.778 496.213C814.868 496.26 814.888 496.365 814.848 496.45L814.748 496.607C814.708 496.683 814.598 496.712 814.518 496.664Z" fill="#BACCF0"/>
<path opacity="0.5" d="M812.268 495.334C812.188 495.286 812.158 495.181 812.208 495.101L812.298 494.944C812.348 494.863 812.448 494.834 812.538 494.882C812.618 494.93 812.648 495.034 812.598 495.115L812.508 495.272C812.458 495.353 812.358 495.381 812.268 495.334Z" fill="#BACCF0"/>
<path opacity="0.5" d="M811.508 494.882C811.427 494.835 811.398 494.73 811.446 494.649L811.536 494.492C811.584 494.411 811.688 494.383 811.769 494.43C811.85 494.478 811.879 494.583 811.831 494.663L811.736 494.82C811.693 494.901 811.588 494.93 811.508 494.882Z" fill="#BACCF0"/>
<path opacity="0.5" d="M810.747 494.43C810.666 494.383 810.638 494.278 810.685 494.198L810.775 494.041C810.823 493.96 810.928 493.931 811.013 493.979C811.094 494.026 811.123 494.131 811.075 494.212L810.98 494.369C810.932 494.45 810.828 494.478 810.747 494.43Z" fill="#BACCF0"/>
<path opacity="0.5" d="M809.981 493.979C809.9 493.931 809.872 493.827 809.919 493.741L810.015 493.585C810.062 493.504 810.167 493.475 810.247 493.523C810.328 493.57 810.357 493.675 810.309 493.756L810.219 493.912C810.171 494.003 810.067 494.026 809.981 493.979Z" fill="#BACCF0"/>
<path opacity="0.5" d="M809.222 493.527C809.141 493.48 809.113 493.375 809.16 493.294L809.25 493.138C809.298 493.057 809.403 493.028 809.483 493.076C809.564 493.123 809.593 493.228 809.545 493.309L809.455 493.466C809.407 493.551 809.303 493.58 809.222 493.527Z" fill="#BACCF0"/>
<path opacity="0.5" d="M808.46 493.081C808.379 493.033 808.351 492.928 808.398 492.848L808.489 492.691C808.536 492.61 808.641 492.582 808.727 492.629C808.807 492.677 808.836 492.781 808.788 492.862L808.698 493.019C808.646 493.1 808.541 493.128 808.46 493.081Z" fill="#BACCF0"/>
<path opacity="0.5" d="M807.695 492.629C807.614 492.582 807.586 492.477 807.633 492.392L807.724 492.235C807.771 492.154 807.876 492.125 807.961 492.173C808.042 492.22 808.071 492.325 808.023 492.41L807.933 492.567C807.885 492.648 807.781 492.677 807.695 492.629Z" fill="#BACCF0"/>
<path opacity="0.5" d="M806.934 492.178C806.853 492.13 806.825 492.025 806.872 491.945L806.962 491.788C807.01 491.707 807.115 491.678 807.195 491.726C807.276 491.774 807.305 491.878 807.257 491.959L807.162 492.116C807.124 492.201 807.015 492.225 806.934 492.178Z" fill="#BACCF0"/>
<path opacity="0.5" d="M806.188 491.736C806.107 491.688 806.078 491.583 806.126 491.503L806.216 491.346C806.264 491.265 806.368 491.236 806.449 491.284C806.53 491.331 806.559 491.436 806.511 491.517L806.421 491.674C806.373 491.759 806.269 491.788 806.188 491.736Z" fill="#BACCF0"/>
<path opacity="0.5" d="M805.428 491.289C805.347 491.241 805.319 491.137 805.366 491.051L805.457 490.894C805.504 490.814 805.609 490.785 805.689 490.833C805.77 490.88 805.799 490.985 805.751 491.065L805.661 491.222C805.613 491.308 805.509 491.336 805.428 491.289Z" fill="#BACCF0"/>
<path opacity="0.5" d="M804.662 490.837C804.581 490.79 804.553 490.685 804.6 490.604L804.69 490.448C804.738 490.367 804.843 490.338 804.928 490.386C805.009 490.433 805.037 490.538 804.99 490.619L804.9 490.776C804.852 490.856 804.747 490.885 804.662 490.837Z" fill="#BACCF0"/>
<path opacity="0.5" d="M798.805 486.907C798.734 486.997 798.615 487.026 798.51 486.992C798.482 486.983 798.458 486.968 798.434 486.949L797.241 486.004C797.393 485.98 797.64 485.942 797.983 485.923L798.762 486.541C798.876 486.631 798.895 486.797 798.805 486.907Z" fill="#BACCF0"/>
<path opacity="0.5" d="M817.988 499.611L817.758 499.473C817.598 499.383 817.548 499.183 817.638 499.031L818.208 498.066C818.298 497.914 818.498 497.862 818.648 497.952L818.888 498.09C819.038 498.18 819.088 498.38 818.998 498.532L818.428 499.497C818.338 499.649 818.138 499.701 817.988 499.611Z" fill="#BACCF0"/>
<path opacity="0.5" d="M819.508 500.504L819.268 500.367C819.118 500.276 819.068 500.077 819.158 499.925L819.728 498.96C819.818 498.808 820.018 498.755 820.168 498.846L820.398 498.984C820.558 499.074 820.608 499.274 820.518 499.426L819.948 500.39C819.858 500.543 819.658 500.595 819.508 500.504Z" fill="#BACCF0"/>
</g>
<g opacity="0.5">
<path opacity="0.5" d="M828.818 505.11C828.738 505.063 828.708 504.958 828.758 504.872L828.848 504.716C828.888 504.635 828.998 504.606 829.078 504.654C829.168 504.701 829.188 504.806 829.148 504.887L829.048 505.044C829.008 505.134 828.898 505.158 828.818 505.11Z" fill="#BACCF0"/>
<path opacity="0.5" d="M828.058 504.659C827.978 504.611 827.948 504.506 827.998 504.426L828.088 504.269C828.128 504.188 828.238 504.16 828.318 504.207C828.398 504.255 828.428 504.359 828.388 504.44L828.298 504.597C828.248 504.682 828.138 504.711 828.058 504.659Z" fill="#BACCF0"/>
<path opacity="0.5" d="M827.299 504.212C827.219 504.164 827.189 504.06 827.229 503.974L827.329 503.817C827.379 503.736 827.479 503.708 827.559 503.755C827.639 503.803 827.669 503.908 827.619 503.988L827.529 504.145C827.479 504.231 827.379 504.259 827.299 504.212Z" fill="#BACCF0"/>
<path opacity="0.5" d="M826.538 503.76C826.458 503.713 826.428 503.608 826.468 503.527L826.558 503.371C826.608 503.29 826.718 503.261 826.798 503.309C826.878 503.356 826.908 503.461 826.858 503.542L826.768 503.698C826.718 503.779 826.618 503.808 826.538 503.76Z" fill="#BACCF0"/>
<path opacity="0.5" d="M825.768 503.309C825.688 503.261 825.658 503.157 825.708 503.076L825.798 502.919C825.848 502.838 825.948 502.81 826.038 502.857C826.118 502.905 826.148 503.009 826.098 503.09L826.008 503.247C825.958 503.333 825.848 503.356 825.768 503.309Z" fill="#BACCF0"/>
<path opacity="0.5" d="M825.008 502.857C824.928 502.81 824.898 502.705 824.948 502.619L825.038 502.463C825.088 502.382 825.188 502.353 825.268 502.401C825.348 502.448 825.378 502.553 825.328 502.634L825.238 502.79C825.198 502.881 825.088 502.909 825.008 502.857Z" fill="#BACCF0"/>
<path opacity="0.5" d="M824.249 502.41C824.169 502.363 824.139 502.258 824.189 502.178L824.278 502.021C824.328 501.94 824.428 501.911 824.518 501.959C824.598 502.006 824.628 502.111 824.578 502.192L824.478 502.349C824.438 502.429 824.329 502.458 824.249 502.41Z" fill="#BACCF0"/>
<path opacity="0.5" d="M823.478 501.959C823.398 501.911 823.368 501.807 823.418 501.721L823.508 501.564C823.558 501.484 823.658 501.455 823.748 501.503C823.828 501.55 823.858 501.655 823.808 501.736L823.718 501.892C823.668 501.978 823.568 502.007 823.478 501.959Z" fill="#BACCF0"/>
<path opacity="0.5" d="M822.718 501.507C822.638 501.46 822.608 501.355 822.658 501.275L822.758 501.118C822.798 501.037 822.908 501.008 822.988 501.056C823.068 501.103 823.098 501.208 823.048 501.289L822.958 501.446C822.908 501.531 822.798 501.555 822.718 501.507Z" fill="#BACCF0"/>
</g>
</g>
<path d="M818.028 503.642C818.548 503.732 818.928 503.185 818.668 502.734C818.418 502.282 818.018 501.759 817.458 501.436C816.298 500.771 815.958 502.881 816.328 503.119C816.558 503.257 817.348 503.523 818.028 503.642Z" fill="#2B478B"/>
<path d="M817.919 501.132L816.499 503.532C816.499 503.532 815.089 503.247 813.159 502.168C811.984 501.507 811.271 500.899 810.9 500.524C810.662 500.286 810.562 500.143 810.562 500.143L812.049 497.629C812.189 497.61 812.369 497.639 812.569 497.696C814.259 498.176 817.729 500.909 817.729 500.909L817.919 501.132Z" fill="#2B478B"/>
<path d="M812.568 497.696L810.894 500.524C810.656 500.286 810.557 500.143 810.557 500.143L812.048 497.629C812.188 497.61 812.368 497.639 812.568 497.696Z" fill="#BACCF0"/>
<path d="M844.848 512.824C844.918 512.8 849.818 513.903 852.478 515.856L849.108 515.804L844.788 513.247C844.788 513.247 844.498 512.952 844.848 512.824Z" fill="#2B478B"/>
<path d="M834.848 503.071C834.848 503.071 831.808 505.158 831.288 505.438C830.758 505.718 829.918 505.642 829.918 505.642H829.908L824.698 504.763C824.698 504.763 819.138 501.517 817.938 500.78C817.828 500.714 817.758 500.666 817.728 500.647C817.378 500.395 817.268 500.167 817.388 500.096C817.498 500.024 826.648 503.66 827.648 504.069C827.658 504.074 827.668 504.079 827.678 504.079C828.668 504.473 828.868 504.269 828.868 504.269L833.898 502.886C833.978 502.848 834.068 502.843 834.178 502.852C834.478 502.89 834.848 503.071 834.848 503.071Z" fill="#BACCF0"/>
<path d="M834.178 502.857C832.798 503.28 828.978 504.445 828.658 504.488C828.298 504.535 819.988 501.522 817.948 500.785C817.838 500.719 817.768 500.671 817.738 500.652C817.388 500.4 817.268 500.172 817.388 500.101C817.508 500.029 826.648 503.665 827.658 504.074C828.668 504.483 828.868 504.274 828.868 504.274L833.908 502.891C833.978 502.853 834.078 502.848 834.178 502.857Z" fill="#BACCF0"/>
<path d="M834.848 503.071C834.848 503.071 831.808 505.158 831.288 505.438C830.758 505.719 829.918 505.642 829.918 505.642H829.908C828.918 505.12 828.168 504.516 827.678 504.084C828.668 504.478 828.868 504.274 828.868 504.274L833.898 502.891C833.978 502.852 834.068 502.848 834.178 502.857C834.478 502.891 834.848 503.071 834.848 503.071Z" fill="#BACCF0"/>
<path d="M848.958 514.487L835.888 506.308C835.888 506.308 842.638 508.508 843.548 508.266C844.398 508.033 853.788 504.901 856.008 505.186C853.488 506.203 847.568 508.727 847.158 510.124C846.768 511.455 848.208 513.527 848.958 514.487Z" fill="#739AF0"/>
<path d="M740.252 511.008C740.304 508.261 742.434 503.57 738.227 499.117C735.242 495.918 732.613 492.325 731.353 490.566C730.897 489.853 725.801 494.045 725.91 494.212C726.747 495.452 730.592 501.778 731.149 505.31C731.757 509.288 738.574 513.637 738.574 513.637C738.574 513.637 740.238 513.741 740.252 511.008Z" fill="#F4A671"/>
<path d="M772.25 511.555C765.547 511.907 760.969 501.507 758.145 501.37C757.684 501.351 756.8 501.479 755.673 501.645C758.455 506.203 760.575 511.564 761.754 517.453C765.771 537.51 757.304 556.118 742.843 559.007C728.781 561.821 714.225 548.732 709.747 529.554C709.623 529.017 709.504 528.475 709.395 527.928C708.225 522.078 708.116 516.355 708.91 511.108C708.91 511.094 708.915 511.075 708.915 511.061C708.311 511.222 707.84 511.36 707.565 511.493C705.007 512.71 704.788 524.064 698.466 526.317C692.148 528.57 687.888 516.465 695.414 507.03C700.001 501.279 708.135 498.504 713.778 497.211C714.952 495.295 716.302 493.58 717.804 492.092C717.861 492.035 717.914 491.978 717.975 491.921C713.825 489.678 710.669 485.676 709.67 480.69C709.333 479.003 709.266 477.325 709.442 475.7C709.428 475.695 709.419 475.69 709.4 475.685C706.542 474.825 704.246 472.458 703.624 469.331C702.72 464.815 705.649 460.419 710.17 459.516C713.44 458.86 716.644 460.215 718.513 462.724C719.768 462.106 721.122 461.636 722.563 461.351C723.837 461.099 725.111 460.994 726.352 461.037C727.141 458.057 729.556 455.633 732.784 454.987C737.3 454.084 741.697 457.011 742.6 461.531C743.19 464.492 742.135 467.406 740.062 469.312C740.913 470.804 741.545 472.463 741.902 474.236C742.848 478.941 741.673 483.58 739.045 487.168C741.402 487.981 743.694 489.198 745.866 490.761C751.528 489.678 760.789 488.798 767.648 492.567C778.226 498.385 778.953 511.198 772.25 511.555Z" fill="#2B478B"/>
<path d="M709.746 529.554C709.623 529.017 709.504 528.475 709.394 527.928C708.225 522.078 708.116 516.355 708.91 511.108C709.741 510.139 710.844 509.421 712.095 510.015C714.861 511.327 714.424 524.578 718.65 527.639C721.783 529.906 713.953 529.929 709.746 529.554Z" fill="#233862"/>
<path d="M725.815 489.987C724.227 490.576 720.838 491.626 717.805 492.092C717.862 492.035 717.915 491.978 717.977 491.921C713.826 489.678 710.67 485.676 709.672 480.69C709.334 479.003 709.268 477.325 709.443 475.699C709.429 475.695 709.42 475.69 709.401 475.685C709.567 475.619 709.781 475.718 710.057 476.113C711.112 477.605 716.806 489.697 725.815 488.314C725.815 488.314 728.168 489.117 725.815 489.987Z" fill="#233862"/>
<path d="M730.088 462.097C730.088 462.097 732.199 458.166 735.332 459.183C738.465 460.2 738.902 464.716 736.863 465.956C736.863 465.956 733.825 463.152 730.088 462.097Z" fill="#233862"/>
<path d="M715.375 464.397C715.375 464.397 710.859 462.316 708.819 464.72C706.78 467.125 710.859 470.191 710.859 470.191C710.859 470.191 712.822 466.113 715.375 464.397Z" fill="#233862"/>
<path d="M679.103 537.144C675.913 534.278 678.537 527.51 677.32 526.175C677.121 525.956 676.664 525.618 676.08 525.181C675.276 528.499 673.817 531.878 671.692 535.077C664.452 545.961 652.22 550.552 644.376 545.338C636.746 540.262 636.071 527.771 642.707 517.078C642.893 516.778 643.083 516.484 643.283 516.184C645.393 513.009 647.932 510.371 650.661 508.356C650.665 508.351 650.675 508.342 650.684 508.337C650.337 508.138 650.062 507.985 649.876 507.924C648.17 507.32 642.945 512.353 639.066 510.523C635.192 508.689 638.733 501.293 646.392 500.424C651.065 499.891 655.995 502.306 659.132 504.273C660.525 503.936 661.913 503.77 663.263 503.774C663.315 503.774 663.363 503.774 663.415 503.774C662.55 500.889 662.93 497.653 664.732 494.948C665.341 494.031 666.073 493.242 666.886 492.586C666.881 492.577 666.876 492.572 666.871 492.562C665.968 490.885 666.001 488.779 667.128 487.082C668.759 484.635 672.067 483.965 674.52 485.6C676.294 486.778 677.135 488.841 676.845 490.818C677.691 491.108 678.514 491.507 679.298 492.025C679.992 492.486 680.61 493.014 681.152 493.594C682.854 492.601 685.041 492.596 686.79 493.76C689.243 495.39 689.909 498.698 688.278 501.151C687.208 502.757 685.416 503.599 683.619 503.523C683.329 504.582 682.868 505.614 682.226 506.579C680.529 509.136 677.905 510.704 675.096 511.137C675.794 512.567 676.284 514.155 676.555 515.842C679.607 517.909 684.19 521.688 685.592 526.488C687.75 533.884 682.293 540.005 679.103 537.144Z" fill="#EFCDAF"/>
<path d="M642.707 517.073C642.893 516.773 643.083 516.479 643.283 516.179C645.393 513.004 647.932 510.367 650.661 508.351C651.474 508.29 652.296 508.461 652.595 509.297C653.256 511.141 647.071 516.935 647.604 520.224C647.994 522.662 644.438 519.14 642.707 517.073Z" fill="#E2B99A"/>
<path d="M667.841 506.431C666.857 505.98 664.851 504.925 663.268 503.765C663.32 503.765 663.368 503.765 663.42 503.765C662.555 500.88 662.935 497.643 664.737 494.939C665.345 494.022 666.078 493.233 666.89 492.577C666.886 492.567 666.881 492.562 666.876 492.553C666.981 492.596 667.033 492.738 666.981 493.042C666.781 494.193 663.9 502.234 668.597 505.671C668.597 505.671 669.301 507.097 667.841 506.431Z" fill="#E2B99A"/>
<path d="M682.369 495.747C682.369 495.747 685.098 494.92 686.058 496.797C687.013 498.67 685.174 500.913 683.691 500.552C683.686 500.547 683.581 497.909 682.369 495.747Z" fill="#FFF3E9"/>
<path d="M674.672 490.143C674.672 490.143 673.569 487.163 671.563 487.33C669.557 487.496 670.018 490.723 670.018 490.723C670.018 490.723 672.747 489.768 674.672 490.143Z" fill="#FFF3E9"/>
<path d="M611.627 535.495C611.627 535.495 604.786 526.674 604.738 519.473C604.691 512.272 604.9 509.887 606.103 510.21C607.306 510.533 612.711 514.549 614.655 518.546C616.599 522.543 620.013 533.004 620.084 534.425C620.155 535.851 611.627 535.495 611.627 535.495Z" fill="#AFCDFB"/>
<path d="M612.002 532.681C612.002 532.681 607.629 526.588 607.462 521.721C607.296 516.854 607.381 515.243 608.123 515.486C608.869 515.728 612.264 518.546 613.538 521.284C614.807 524.022 617.103 531.16 617.175 532.125C617.246 533.081 612.002 532.681 612.002 532.681Z" fill="#27DEBF"/>
<path d="M622.67 531.811C622.67 531.811 619.39 519.863 620.688 516.612C621.985 513.361 628.703 515.533 629.468 517.824C630.229 520.119 629.763 529.801 629.763 529.801L622.67 531.811Z" fill="#AFCDFB"/>
<path d="M623.544 518.076C623.544 518.076 623.069 527.543 624.728 531.227L627.913 530.324C627.913 530.324 628.408 519.753 627.984 519.036C627.552 518.328 623.544 518.076 623.544 518.076Z" fill="#27DEBF"/>
<path d="M620.503 517.291C620.503 517.291 631.536 524.592 632.425 523.822C633.314 523.052 629.958 515.637 628.66 514.977C627.358 514.311 620.422 512.943 620.503 517.291Z" fill="#AFCDFB"/>
<path d="M600.206 650.738H750.632V526.727H600.206V650.738Z" fill="#F89C46"/>
<path d="M825.848 526.731H675.418V650.742H825.848V526.731Z" fill="#FFC15B"/>
<path opacity="0.4" d="M825.848 526.731V566.108L675.418 575.114V526.731H825.848Z" fill="#D86713"/>
<path d="M675.418 526.731L705.182 559.359H853.618L825.848 526.731H675.418Z" fill="#FFC15B"/>
<path d="M600.293 619.292H624.129L622.028 612.586L624.129 607.795H600.293V619.292Z" fill="#F1A34F"/>
<path opacity="0.4" d="M825.878 640.556H802.038L804.139 633.85L802.038 629.059H825.878V640.556Z" fill="#D86713"/>
<path d="M675.419 540.747L643.71 572.448H600.293V526.731H675.419V540.747Z" fill="#F89C46"/>
<path d="M600.203 526.732L566.384 559.36H641.647L675.419 526.732H600.203Z" fill="#FFC15B"/>
<path d="M563.061 618.071L560.323 618.603C557.072 619.235 553.896 617.092 553.269 613.841L549.237 593.104C548.662 590.143 550.388 587.244 553.154 586.279C553.131 586.208 553.112 586.136 553.093 586.06L552.855 584.844C552.689 583.998 553.25 583.171 554.096 583.009L555.313 582.772C556.159 582.605 556.986 583.166 557.152 584.007L557.385 585.229C557.4 585.286 557.404 585.343 557.409 585.4C557.409 585.409 557.409 585.419 557.409 585.428C560.414 585.195 563.199 587.258 563.789 590.281L567.815 611.018C568.457 614.264 566.313 617.439 563.061 618.071Z" fill="#CADDFF"/>
<path d="M564.036 591.507L549.479 594.333L552.247 608.582L566.802 605.757L564.036 591.507Z" fill="#2B478B"/>
<path d="M557.419 585.4L553.159 586.284C553.135 586.212 553.116 586.141 553.097 586.065L552.86 584.848C552.693 584.002 553.254 583.175 554.1 583.014L555.319 582.776C556.165 582.61 556.991 583.171 557.157 584.012L557.39 585.233C557.409 585.281 557.414 585.338 557.419 585.4Z" fill="#BACCF0"/>
<path d="M636.874 580.167C636.874 580.167 635.073 582.705 633.418 582.738C631.764 582.771 629.249 581.559 629.249 581.559C629.249 581.559 627.733 578.175 628.759 576.854C628.759 576.854 629.791 576.403 630.87 577.201C631.056 577.339 631.246 577.515 631.431 577.738C631.693 578.052 631.987 578.232 632.301 578.327C633.48 578.684 634.882 577.843 635.405 578.655C635.71 579.131 636.042 579.487 636.318 579.734C636.637 580.024 636.874 580.167 636.874 580.167Z" fill="#F9DDBF"/>
<path d="M613.362 598.475C613.362 598.475 619.737 583.033 631.212 582.738C631.212 582.738 641.804 583.917 642.393 598.475H613.362Z" fill="#F9DDBF"/>
<path d="M628.065 583.209C628.065 583.209 632.662 584.231 634.083 583.632C634.083 583.632 634.297 581.707 632.363 581.978C631.036 582.163 630.171 581.526 629.667 581.265C628.945 580.903 627.875 582.405 628.065 583.209Z" fill="#F1A34F"/>
<path d="M632.068 580.309C631.773 580.528 630.87 577.201 630.87 577.201C631.055 577.339 631.246 577.515 631.431 577.738C631.692 578.052 631.987 578.232 632.301 578.327C632.301 578.422 632.353 580.096 632.068 580.309Z" fill="#E5C1A1"/>
<path d="M636.313 579.734C636.246 579.772 634.121 581.046 633.831 581.046C633.537 581.046 635.4 578.655 635.4 578.655C635.709 579.131 636.042 579.487 636.313 579.734Z" fill="#E5C1A1"/>
<path d="M619.589 594.159C619.47 594.059 624.1 587.343 625.375 587.296C626.649 587.248 629.515 588.764 631.588 588.964C633.66 589.159 635.671 588.57 636.066 589.796C636.461 591.022 637.535 595.366 636.874 596.06C636.213 596.759 622.132 596.336 619.589 594.159Z" fill="#E5C1A1"/>
<path d="M565.866 604.601C565.69 604.943 565.438 605.224 565.134 605.423C564.963 605.537 564.782 605.623 564.592 605.685C564.06 605.861 563.461 605.832 562.924 605.556L534.339 591.037C533.264 590.49 532.832 589.169 533.378 588.095C533.649 587.557 534.115 587.182 534.652 587.006C535.185 586.83 535.784 586.859 536.321 587.134L564.906 601.654C565.98 602.206 566.408 603.527 565.866 604.601Z" fill="#27DEBF"/>
<path d="M543.818 595.86L542.016 590.034L537.41 587.695L540.186 594.016L543.818 595.86Z" fill="#B64C41"/>
<path d="M550.797 599.406L547.165 597.562L544.394 591.241L548.996 593.579L550.797 599.406Z" fill="#B64C41"/>
<path d="M557.77 602.947L554.139 601.103L551.367 594.786L555.969 597.125L557.77 602.947Z" fill="#B64C41"/>
<path d="M565.134 605.428C564.963 605.542 564.782 605.628 564.592 605.69C564.06 605.866 563.461 605.837 562.923 605.561L561.245 604.711L558.469 598.394L563.071 600.732L565.134 605.428Z" fill="#B64C41"/>
<path d="M533.378 588.104C533.378 588.104 532.803 584.996 530.274 584.074C530.274 584.074 530.569 584.43 529.356 584.82C528.144 585.205 528.496 586.046 528.063 586.421C528.063 586.421 529.818 588.746 533.378 588.104Z" fill="#B64C41"/>
<path d="M532.888 588.513L532.822 588.479C532.627 588.38 532.551 588.142 532.651 587.947L533.007 587.249C533.107 587.054 533.345 586.978 533.54 587.077L533.606 587.111C533.801 587.21 533.877 587.448 533.777 587.643L533.421 588.342C533.321 588.532 533.083 588.613 532.888 588.513Z" fill="#BACCF0"/>
<path d="M565.747 604.544C565.747 604.544 568.595 603.18 570.829 604.672C570.829 604.672 570.363 604.644 570.767 605.851C571.171 607.058 570.287 607.268 570.235 607.843C570.235 607.843 567.325 607.8 565.747 604.544Z" fill="#B64C41"/>
<path d="M565.705 605.181L565.771 605.214C565.966 605.314 566.204 605.233 566.304 605.043L566.66 604.345C566.76 604.15 566.679 603.912 566.489 603.812L566.423 603.779C566.228 603.679 565.99 603.76 565.89 603.95L565.534 604.649C565.434 604.844 565.51 605.081 565.705 605.181Z" fill="#BACCF0"/>
<path d="M602.865 604.829C602.532 605.024 602.166 605.119 601.805 605.124C601.601 605.124 601.401 605.1 601.206 605.048C600.664 604.905 600.179 604.554 599.875 604.031L583.817 576.284C583.213 575.243 583.574 573.898 584.615 573.294C585.138 572.995 585.732 572.933 586.274 573.076C586.816 573.218 587.306 573.57 587.605 574.093L603.664 601.84C604.268 602.881 603.906 604.226 602.865 604.829Z" fill="#F1A34F"/>
<path d="M589.141 585.485L590.805 579.62L588.219 575.153L587.101 581.959L589.141 585.485Z" fill="#F9DDBF"/>
<path d="M593.063 592.258L591.023 588.736L592.14 581.925L594.727 586.393L593.063 592.258Z" fill="#F9DDBF"/>
<path d="M596.98 599.031L594.941 595.504L596.058 588.693L598.644 593.166L596.98 599.031Z" fill="#F9DDBF"/>
<path d="M601.806 605.119C601.602 605.119 601.402 605.095 601.207 605.043C600.665 604.901 600.181 604.549 599.876 604.026L598.935 602.396L600.052 595.585L602.638 600.053L601.806 605.119Z" fill="#F9DDBF"/>
<path d="M584.615 573.294C584.615 573.294 585.823 570.376 584.211 568.228C584.211 568.228 584.264 568.689 583.037 568.351C581.806 568.014 581.649 568.907 581.079 568.993C581.079 568.988 581.278 571.897 584.615 573.294Z" fill="#F1A34F"/>
<path d="M583.983 573.37L583.945 573.304C583.836 573.114 583.903 572.871 584.088 572.767L584.768 572.372C584.958 572.263 585.2 572.329 585.305 572.515L585.343 572.581C585.452 572.771 585.386 573.014 585.2 573.118L584.521 573.513C584.335 573.622 584.093 573.56 583.983 573.37Z" fill="#F89C46"/>
<path d="M602.799 604.711C602.799 604.711 605.932 605.119 606.992 607.586C606.992 607.586 606.616 607.31 606.298 608.541C605.979 609.772 605.123 609.468 604.767 609.92C604.767 609.925 602.347 608.304 602.799 604.711Z" fill="#F1A34F"/>
<path d="M602.415 605.224L602.453 605.29C602.562 605.476 602.804 605.542 602.99 605.433L603.67 605.039C603.855 604.929 603.922 604.687 603.812 604.502L603.774 604.435C603.665 604.25 603.422 604.183 603.237 604.292L602.557 604.687C602.372 604.791 602.305 605.034 602.415 605.224Z" fill="#F89C46"/>
<path d="M550.9 612.61C550.558 612.429 550.287 612.173 550.087 611.868C549.978 611.697 549.892 611.517 549.835 611.322C549.669 610.785 549.707 610.186 549.987 609.654L564.967 581.312C565.528 580.248 566.859 579.839 567.924 580.4C568.456 580.68 568.827 581.155 568.989 581.688C569.155 582.225 569.117 582.824 568.837 583.356L553.857 611.697C553.296 612.762 551.965 613.175 550.9 612.61Z" fill="#BACCF0"/>
<path d="M560.004 590.709L565.856 589.002L568.267 584.44L561.906 587.111L560.004 590.709Z" fill="#699FF0"/>
<path d="M556.344 597.634L558.245 594.031L564.611 591.36L562.196 595.922L556.344 597.634Z" fill="#699FF0"/>
<path d="M552.688 604.549L554.595 600.946L560.955 598.275L558.545 602.838L552.688 604.549Z" fill="#699FF0"/>
<path d="M550.093 611.868C549.983 611.697 549.898 611.516 549.841 611.322C549.674 610.784 549.712 610.186 549.993 609.653L550.872 607.99L557.238 605.319L554.823 609.881L550.093 611.868Z" fill="#699FF0"/>
<path d="M567.93 580.4C567.93 580.4 571.049 579.872 572.009 577.363C572.009 577.363 571.647 577.652 571.277 576.431C570.911 575.21 570.065 575.552 569.694 575.11C569.694 575.114 567.341 576.83 567.93 580.4Z" fill="#699FF0"/>
<path d="M567.525 579.905L567.558 579.839C567.658 579.649 567.9 579.573 568.091 579.673L568.785 580.039C568.975 580.138 569.051 580.381 568.951 580.571L568.918 580.637C568.818 580.827 568.576 580.904 568.385 580.804L567.691 580.438C567.496 580.338 567.425 580.096 567.525 579.905Z" fill="#BACCF0"/>
<path d="M550.967 612.491C550.967 612.491 552.289 615.361 550.758 617.572C550.758 617.572 550.796 617.106 549.579 617.491C548.362 617.876 548.167 616.987 547.597 616.925C547.592 616.93 547.682 614.016 550.967 612.491Z" fill="#BACCF0"/>
<path d="M550.33 612.438L550.297 612.505C550.197 612.695 550.268 612.938 550.463 613.037L551.157 613.403C551.347 613.503 551.59 613.432 551.69 613.237L551.723 613.17C551.823 612.98 551.751 612.738 551.557 612.638L550.863 612.272C550.672 612.172 550.43 612.248 550.33 612.438Z" fill="#BACCF0"/>
<path d="M580.831 586.849C580.831 586.849 582.139 588.693 583.342 588.717C584.539 588.741 586.365 587.862 586.365 587.862C586.365 587.862 587.468 585.405 586.722 584.445C586.722 584.445 585.97 584.117 585.186 584.696C585.053 584.796 584.915 584.925 584.782 585.086C584.592 585.314 584.378 585.443 584.154 585.514C583.299 585.775 582.281 585.162 581.901 585.752C581.678 586.094 581.44 586.355 581.24 586.536C581.003 586.75 580.831 586.849 580.831 586.849Z" fill="#B64C41"/>
<path d="M597.898 600.138C597.898 600.138 593.272 588.931 584.943 588.717C584.943 588.717 577.256 589.573 576.829 600.138H597.898Z" fill="#B64C41"/>
<path d="M587.225 589.059C587.225 589.059 583.888 589.801 582.856 589.364C582.856 589.364 582.699 587.966 584.106 588.166C585.067 588.299 585.694 587.838 586.065 587.653C586.583 587.386 587.363 588.475 587.225 589.059Z" fill="#963333"/>
<path d="M584.316 586.959C584.53 587.12 585.186 584.701 585.186 584.701C585.053 584.801 584.915 584.929 584.782 585.091C584.591 585.319 584.378 585.447 584.154 585.519C584.149 585.585 584.111 586.802 584.316 586.959Z" fill="#963333"/>
<path d="M581.235 586.54C581.283 586.569 582.828 587.491 583.037 587.491C583.251 587.491 581.901 585.756 581.901 585.756C581.677 586.098 581.435 586.355 581.235 586.54Z" fill="#963333"/>
<path d="M593.377 597.006C593.462 596.935 590.101 592.058 589.179 592.025C588.252 591.987 586.175 593.095 584.668 593.232C583.161 593.375 581.701 592.947 581.421 593.836C581.135 594.725 580.351 597.881 580.831 598.385C581.311 598.893 591.527 598.584 593.377 597.006Z" fill="#963333"/>
<path d="M614.004 587.448C612.625 587.467 611.936 585.385 611.936 585.385L598.521 589.444C599.124 590.913 598.15 592.049 598.15 592.049C598.15 592.049 595.83 593.598 596.552 595.979L599.524 605.784C600.051 607.524 601.901 608.513 603.641 607.985L617.793 603.703C619.533 603.175 620.521 601.326 619.994 599.587L617.023 589.782C616.604 588.413 615.363 587.51 614.004 587.448Z" fill="#CADDFF"/>
<path d="M597.175 589.012L597.983 591.673C598.273 592.633 601.948 592.377 606.189 591.089C610.429 589.806 613.633 587.985 613.343 587.02L612.535 584.359L597.175 589.012Z" fill="#963333"/>
<path d="M612.536 584.363C612.826 585.324 609.627 587.144 605.381 588.432C601.141 589.715 597.466 589.977 597.172 589.017C596.882 588.056 600.081 586.231 604.326 584.948C608.571 583.66 612.246 583.399 612.536 584.363Z" fill="#B64C41"/>
<path d="M578.003 592.776C577.043 592.31 577.285 590.628 577.285 590.628L566.56 588.793C566.47 590.024 565.4 590.471 565.4 590.471C565.4 590.471 563.252 590.742 562.924 592.648L561.583 600.485C561.345 601.873 562.287 603.204 563.675 603.441L574.989 605.376C576.377 605.613 577.708 604.672 577.946 603.284L579.286 595.447C579.477 594.349 578.925 593.289 578.003 592.776Z" fill="#B7D2F9"/>
<path d="M565.781 588.023L565.415 590.152C565.282 590.922 567.925 592.016 571.314 592.595C574.704 593.175 577.561 593.023 577.694 592.253L578.06 590.124L565.781 588.023Z" fill="#F89C46"/>
<path d="M578.061 590.124C577.928 590.894 575.076 591.046 571.682 590.466C568.292 589.886 565.649 588.793 565.782 588.023C565.915 587.253 568.767 587.101 572.157 587.681C575.551 588.261 578.19 589.354 578.061 590.124Z" fill="#F1A34F"/>
<path d="M543.822 650.741H610.276V595.959H543.822V650.741Z" fill="#F89C46"/>
<path d="M577.05 650.741H643.504V595.959H577.05V650.741Z" fill="#FFC15B"/>
<path d="M577.052 595.956H643.677V615.038L577.052 623.346V595.956Z" fill="#ED7D2B"/>
<path d="M577.052 595.956L590.201 610.371H655.776L643.506 595.956H577.052Z" fill="#FFC15B"/>
<path d="M543.865 636.844H554.395L553.468 633.883L554.395 631.768H543.865V636.844Z" fill="#FFC15B"/>
<path d="M577.052 602.149L563.042 616.155H543.865V595.956H577.052V602.149Z" fill="#F89C46"/>
<path d="M543.827 595.956L528.886 610.371H562.129L577.052 595.956H543.827Z" fill="#FFC15B"/>
<path d="M462.275 345.543C395.232 333.148 355.77 412.415 348.991 422.235C342.212 412.42 302.745 333.148 235.707 345.543C161.765 359.212 129.967 428.941 157.905 497.006C180.666 552.463 327.736 641.274 347.945 651.84V652.928C347.945 652.928 348.311 652.743 348.996 652.386C349.68 652.743 350.046 652.928 350.046 652.928V651.84C370.255 641.274 514.995 551.445 540.086 497.006C568.082 436.241 536.217 359.217 462.275 345.543Z" fill="#FFC15B"/>
<path d="M255.91 503.024C254.703 505.97 246.716 505.167 240.555 500.97C234.442 496.821 225.647 492.981 220.646 489.502C216.895 486.959 213.011 477.32 210.069 471.384C209.308 469.868 208.595 468.57 208.015 467.724C204.402 466.655 204.621 462.905 201.274 461.698C197.3 460.314 198.507 458.085 198.507 458.085C198.507 458.085 201.364 456.878 204.844 457.239C206.095 457.42 208.595 461.032 210.069 463.309C211.452 464.335 213.102 465.719 214.889 467.325C219.71 471.607 225.157 477.144 227.344 479.863C229.888 483.033 246.36 486.512 250.824 490.172C258.767 496.688 255.91 503.024 255.91 503.024Z" fill="#ED985F"/>
<path d="M227.392 548.351L244.662 644.202L250.643 644.596C250.643 644.596 255.344 602.852 251.318 588.446C247.291 574.036 258.268 555.813 255.183 543.313C252.097 530.813 227.392 548.351 227.392 548.351Z" fill="#ED985F"/>
<path d="M247.258 495.4L232.179 492.948C231.461 490.5 231.257 487.135 231.247 484.16C231.238 480.462 231.532 477.372 231.532 477.372L243.702 476.198L249.107 475.676C246.136 481.332 247.258 495.4 247.258 495.4Z" fill="#FFB27D"/>
<path d="M247.71 478.646C247.71 478.646 239.652 485.514 231.247 484.159C231.238 480.462 231.532 477.372 231.532 477.372L243.702 476.198L247.71 478.646Z" fill="#ED985F"/>
<path d="M238.893 571.963C235.841 580.452 233.098 589.102 234.471 596.194C234.876 598.29 235.127 600.457 235.251 602.667C235.36 604.696 235.37 606.754 235.284 608.827C234.614 625.538 228.249 642.572 227.265 645.11C227.179 645.324 227.135 645.438 227.135 645.438L221.84 644.877L219.562 544.302C219.562 544.302 243.737 534.54 245.087 547.339C245.781 553.96 242.158 562.871 238.893 571.963Z" fill="#FFB27D"/>
<path d="M253.338 577.662C253.338 577.662 251.793 577.886 249.502 578.133C245.195 578.603 238.254 579.164 233.962 578.503C231.918 578.19 230.772 574.815 230.23 570.281C229.032 560.234 230.819 544.502 232.445 543.803C234.803 542.791 255.687 543.646 255.687 543.646C255.687 543.646 260.25 554.92 253.338 577.662Z" fill="#35488B"/>
<path d="M249.839 578.133C245.532 578.603 238.592 579.164 234.299 578.503C232.255 578.19 231.109 574.815 230.567 570.281L242.015 551.55L250.61 548.18C250.61 548.185 254.061 562.543 249.839 578.133Z" fill="#2C3A64"/>
<path d="M219.472 543.974C219.472 543.974 214.979 563.85 215.654 579.573C215.654 579.573 225.875 581.593 236.324 579.573C236.324 579.573 253.623 554.416 252.164 546.331C250.7 538.247 223.855 541.388 219.472 543.974Z" fill="#35488B"/>
<path d="M227.686 474.948C227.686 474.948 241.743 486.094 248.551 477.23C255.359 468.37 261.757 463.841 253.067 456.351C244.377 448.86 240.018 450.885 237.028 453.29C234.037 455.699 224.206 471.821 227.686 474.948Z" fill="#FFB27D"/>
<path d="M263.05 459.682C263.05 459.682 262.271 459.43 261.372 459.697C261.372 459.687 261.372 459.682 261.372 459.682C262.508 457.586 261.657 454.331 261.657 454.331C261.943 456.113 260.336 458.214 260.336 458.214C260.241 451.603 243.888 447.51 242.376 447.092C240.864 446.674 241.054 444.155 241.054 444.155C237.936 444.782 234.627 448.77 234.722 452.653C234.817 456.536 238.031 463.984 240.108 464.088C242.186 464.193 241.244 465.871 239.823 468.18C238.406 470.49 240.246 476.759 242.799 478.96C244.857 480.733 245.936 479.25 247.139 478.599C247.439 478.437 247.757 478.309 248.09 478.237C252.858 477.173 257.821 472.463 260.288 466.45C261.268 464.064 261.406 461.669 261.401 460.471C261.805 460.234 262.594 459.796 263.05 459.682Z" fill="#2C3A64"/>
<path d="M251.456 651.208H248.119C247.002 651.051 246.174 650.766 245.029 650.632C243.289 650.433 242.485 651.06 242.324 651.208C242.3 651.227 242.295 651.236 242.295 651.236H228.114C227.758 650.785 228.1 649.744 228.438 648.974C228.666 648.451 229.156 648.056 229.764 647.9C231.266 647.515 234.233 647.172 236.947 645C238.473 643.779 244.325 640.514 244.325 640.514L244.354 640.509C244.482 640.509 245.095 640.675 247.753 642.662C249.127 643.689 251.47 641.212 251.47 641.212C251.47 641.212 251.912 641.536 252.24 642.134C252.507 642.61 252.697 643.256 252.545 644.059C252.331 645.19 253.015 647.291 253.562 648.708C253.895 649.568 254.17 650.176 254.17 650.176C254.17 650.176 254.327 650.889 251.456 651.208Z" fill="#739CF3"/>
<path d="M252.236 642.134C251.437 642.629 249.754 643.608 248.642 643.736C247.135 643.912 244.316 640.509 244.316 640.509L244.344 640.504C244.473 640.504 245.086 640.671 247.743 642.657C249.117 643.684 251.461 641.208 251.461 641.208C251.461 641.208 251.908 641.536 252.236 642.134Z" fill="#415DA5"/>
<path d="M251.456 651.208H248.119C247.002 651.051 246.174 650.766 245.029 650.633C243.289 650.433 242.485 651.06 242.324 651.208C242.3 651.227 242.295 651.236 242.295 651.236H228.114C227.758 650.785 228.1 649.744 228.438 648.974C228.87 648.636 228.989 650.442 229.227 650.732C229.465 651.022 240.798 650.837 241.449 650.419C242.105 650 244.068 649.264 246.802 649.839C249.184 650.343 252.692 649.05 253.562 648.708C253.895 649.568 254.17 650.176 254.17 650.176C254.17 650.176 254.327 650.889 251.456 651.208Z" fill="#415DA5"/>
<path d="M228.638 651.208H225.3C224.183 651.051 223.356 650.766 222.21 650.632C220.47 650.433 219.667 651.06 219.505 651.208C219.486 651.227 219.477 651.236 219.477 651.236H205.296C204.94 650.785 205.282 649.744 205.619 648.974C205.848 648.451 206.337 648.056 206.946 647.9C208.448 647.515 211.414 647.172 214.129 645C215.655 643.779 221.507 640.514 221.507 640.514L221.54 640.509C221.668 640.509 222.282 640.675 224.939 642.662C226.313 643.689 228.657 641.212 228.657 641.212C228.657 641.212 229.099 641.536 229.427 642.134C229.693 642.61 229.883 643.256 229.731 644.059C229.517 645.19 230.202 647.291 230.748 648.708C231.081 649.568 231.357 650.176 231.357 650.176C231.357 650.176 231.509 650.889 228.638 651.208Z" fill="#739CF3"/>
<path d="M229.422 642.134C228.623 642.629 226.94 643.608 225.828 643.736C224.321 643.912 221.502 640.509 221.502 640.509L221.535 640.504C221.664 640.504 222.277 640.671 224.934 642.657C226.308 643.684 228.652 641.208 228.652 641.208C228.652 641.208 229.094 641.536 229.422 642.134Z" fill="#415DA5"/>
<path d="M228.638 651.208H225.3C224.183 651.051 223.356 650.766 222.21 650.633C220.47 650.433 219.667 651.06 219.505 651.208C219.486 651.227 219.477 651.236 219.477 651.236H205.296C204.94 650.785 205.282 649.744 205.619 648.974C206.052 648.636 206.171 650.442 206.409 650.732C206.646 651.022 217.979 650.837 218.631 650.419C219.287 650 221.25 649.264 223.984 649.839C226.365 650.343 229.874 649.05 230.744 648.708C231.076 649.568 231.352 650.176 231.352 650.176C231.352 650.176 231.509 650.889 228.638 651.208Z" fill="#415DA5"/>
<path d="M258.615 548.185C258.615 548.185 245.095 552.12 228.652 549.321C225.647 548.808 220.37 547.311 216.639 545.21L221.597 505.804L222.619 487.486C222.619 487.486 228.295 485.747 231.043 485.581C231.043 485.581 242.557 486.954 247.02 485.775C247.02 485.775 253.419 487.097 255.254 493.119C259.067 505.638 260.346 521.184 258.615 548.185Z" fill="white"/>
<path d="M231.941 503.024C230.691 505.97 222.7 505.167 216.586 500.97C216.049 500.614 215.517 500.257 214.937 499.901C208.957 496.156 201.189 492.672 196.635 489.502C192.351 486.555 187.84 474.283 184.807 469.017C184.541 468.527 184.27 468.081 184.004 467.724C180.433 466.607 180.657 462.905 177.31 461.698C173.336 460.314 174.496 458.085 174.496 458.085C174.496 458.085 177.396 456.878 180.833 457.239C182.126 457.42 184.626 461.032 186.057 463.309C187.041 464.069 188.244 465.006 189.494 466.032C194.581 470.452 200.965 476.878 203.333 479.868C205.163 482.144 214.181 484.597 220.784 487.097C223.375 488.123 225.605 489.15 226.855 490.177C234.799 496.688 231.941 503.024 231.941 503.024Z" fill="#FFB27D"/>
<path d="M231.941 503.024C230.596 509.136 215.003 501.717 214.423 501.36C215.274 492.168 215.16 487.135 217.746 485.538C222.819 484.744 230.468 485.134 231.989 485.68C244.439 490.167 231.941 503.024 231.941 503.024Z" fill="white"/>
<path d="M214.889 467.325C214.352 468.798 213.016 470.495 210.069 471.384C209.308 469.868 208.595 468.57 208.015 467.724C204.402 466.655 204.621 462.905 201.274 461.698C197.3 460.314 198.507 458.085 198.507 458.085C198.507 458.085 201.364 456.878 204.844 457.239C206.094 457.42 208.595 461.032 210.069 463.309C211.452 464.331 213.106 465.719 214.889 467.325Z" fill="#FFA412"/>
<path d="M206.608 463.637C205.258 464.682 201.65 468.333 201.65 468.333L193.33 457.582C193.33 457.582 197.585 454.896 199.007 453.808C200.295 452.819 204.088 449.264 204.088 449.264L212.408 460.015C212.403 460.015 207.963 462.591 206.608 463.637Z" fill="white"/>
<path d="M206.608 463.637C205.258 464.682 201.65 468.333 201.65 468.333L195.788 460.757C195.788 460.757 200.043 458.071 201.464 456.983C202.752 455.994 206.546 452.439 206.546 452.439L212.407 460.015C212.403 460.015 207.963 462.591 206.608 463.637Z" fill="white"/>
<path d="M213.24 459.337L204.922 448.585L204.061 449.251L212.379 460.003L213.24 459.337Z" fill="white"/>
<path d="M201.622 468.317L193.304 457.565L192.443 458.231L200.761 468.983L201.622 468.317Z" fill="white"/>
<path opacity="0.5" d="M190.654 459.003L179.558 472.596C178.246 474.207 175.85 474.449 174.244 473.133L168.672 468.584C166.97 467.196 166.714 464.668 168.102 462.966L179.064 449.54C180.928 447.254 183.927 446.408 186.613 447.144C186.965 447.239 187.35 447.106 187.54 446.793C187.597 446.702 187.659 446.617 187.726 446.531L188.31 445.813L192.451 449.193L191.866 449.91C191.79 450.005 191.705 450.091 191.619 450.172C191.372 450.395 191.296 450.752 191.448 451.046C192.75 453.546 192.541 456.693 190.654 459.003Z" fill="#EBF3FA"/>
<path opacity="0.3" d="M190.654 459.003L179.558 472.596C178.246 474.207 175.85 474.449 174.244 473.133L170.74 470.276C169.038 468.889 168.781 466.36 170.17 464.659L181.132 451.232C182.995 448.946 185.995 448.1 188.681 448.836C188.809 448.87 188.943 448.874 189.071 448.851C189.29 448.808 189.484 448.684 189.608 448.485C189.665 448.394 189.727 448.309 189.793 448.223L190.378 447.505L192.451 449.193L191.866 449.91C191.79 450.005 191.704 450.091 191.619 450.172C191.372 450.395 191.296 450.752 191.448 451.046C192.75 453.546 192.541 456.693 190.654 459.003Z" fill="#EBF3FA"/>
<path opacity="0.3" d="M188.358 457.13L177.262 470.723C175.95 472.334 173.554 472.577 171.947 471.26L170.74 470.276C169.038 468.889 168.781 466.36 170.17 464.659L181.132 451.232C182.995 448.946 185.995 448.1 188.681 448.836C188.809 448.87 188.942 448.874 189.071 448.851C189.071 448.96 189.095 449.069 189.147 449.174C190.454 451.669 190.245 454.82 188.358 457.13Z" fill="#EBF3FA"/>
<path d="M189.704 460.209L178.109 450.749L171.595 458.729L183.19 468.189L189.704 460.209Z" fill="#EBF3FA"/>
<path d="M193.6 448.262L188.989 444.514L188.101 445.606L192.712 449.353L193.6 448.262Z" fill="#EBF3FA"/>
<path d="M189.494 466.028C188.691 467.23 187.265 468.304 184.807 469.017C184.541 468.528 184.27 468.081 184.004 467.724C180.433 466.607 180.657 462.905 177.31 461.698C173.336 460.315 174.496 458.085 174.496 458.085C174.496 458.085 177.396 456.878 180.833 457.239C182.126 457.42 184.626 461.032 186.057 463.309C187.037 464.065 188.244 465.001 189.494 466.028Z" fill="#FFA412"/>
<path d="M131.288 446.878L130.485 452.277C130.485 452.277 130.128 452.277 129.501 452.235C127.537 452.101 122.76 451.835 117.359 451.251C109.235 450.447 99.5944 449.022 95.7584 446.655C89.9104 443.085 80.3124 432.149 74.0664 421.218C73.8854 420.951 73.7524 420.685 73.6194 420.414C70.3634 414.611 68.0854 408.855 67.9054 404.259C67.7724 401.446 68.0854 399.036 68.6654 396.94C69.4264 394.174 70.6764 391.988 71.9694 390.334C72.1504 390.068 72.3263 389.797 72.5923 389.573C74.7363 387.03 76.8334 385.956 76.8334 385.956C77.9024 385.51 79.0624 386.047 80.2704 387.339V387.382C81.2544 388.409 82.3234 389.972 83.3504 391.935C83.3934 391.978 83.4404 392.026 83.4404 392.068C83.6644 392.468 83.8874 392.914 84.1534 393.409C84.2444 393.499 84.2874 393.632 84.3344 393.722C84.8244 394.749 85.3184 395.818 85.8084 396.935C91.2994 408.894 97.1464 427.011 102.009 432.41C104.105 434.73 113.703 439.283 121.338 442.677C126.824 445.096 131.288 446.878 131.288 446.878Z" fill="#8C5935"/>
<path d="M58.6782 327.834C58.6782 327.834 57.0182 319.203 47.7152 318.737C38.4122 318.271 27.4452 325.686 28.3812 335.386C29.3132 345.091 18.8162 349.055 16.9482 357.221C15.0802 365.381 23.8752 365.405 25.7622 371.679C27.6492 377.957 22.4202 383.632 33.7722 384.15C45.1242 384.668 58.1692 382.705 60.8022 376.341C63.4362 369.977 64.9052 344.226 64.9052 344.226L58.6782 327.834Z" fill="#2C3A64"/>
<path d="M74.7929 415.928C74.2559 418.917 73.3619 421.479 72.2929 423.908C71.3989 425.937 70.3819 427.872 69.3359 429.882C66.2649 435.795 59.4529 438.509 58.7919 450.067C58.5679 454.05 59.0669 459.084 60.7079 465.657C68.7699 498.057 5.06794 470.452 8.67194 462.064C15.8309 445.386 25.5189 435.952 25.8469 422.007C25.8519 421.969 25.8429 421.935 25.8429 421.897C25.8089 421.222 25.7859 419.407 25.7709 417.011C25.7379 411.151 25.7569 401.812 25.8139 397.083C25.8139 396.973 25.8189 396.864 25.8189 396.76C25.8469 394.735 25.8379 393.271 25.7759 392.881C31.0009 373.875 41.3779 374.179 44.9149 374.374C46.2269 374.445 47.6009 374.583 48.7279 374.721C50.9999 373.537 55.0689 367.786 57.4269 358.157L58.2209 358.532L71.5989 364.82C71.5989 364.82 70.1769 369.169 69.1269 373.338C68.3089 376.593 67.7189 379.744 68.2139 380.624C69.2689 381.051 69.8969 381.322 69.8969 381.322C69.8969 381.322 69.8969 381.327 69.9009 381.337C70.1199 381.878 77.5359 400.757 74.7929 415.928Z" fill="#8C5935"/>
<path d="M72.8201 642.191L67.9281 644.744C67.9281 644.744 41.3111 608.033 38.1501 576.778C37.5891 571.198 37.7741 565.794 38.9911 560.804C38.9911 560.804 38.4591 557.719 37.5701 552.619C37.3941 551.602 37.1991 550.509 37.0001 549.345C36.2441 545.034 35.3171 539.739 34.2851 533.889C33.2681 528.123 32.1511 521.812 31.0001 515.371C28.7331 502.696 26.3461 489.497 24.3301 478.841L25.9231 478.328L33.2061 475.975L43.1181 472.781L46.6741 461.498L48.9931 460.885L59.4761 458.128C59.4761 458.128 59.9321 459.022 60.6401 461.778C61.5821 465.424 62.9701 472.325 64.3341 484.735C64.5151 486.431 64.7051 488.233 64.8901 490.143C66.8111 504.183 67.9281 524.041 64.8951 547.867C64.3061 552.463 63.5641 557.201 62.6511 562.073C61.9761 565.642 61.8761 570.509 62.1571 576.099C63.4401 601.655 72.8201 642.191 72.8201 642.191Z" fill="#35488B"/>
<path d="M64.3301 484.735C57.4891 501.018 42.6571 535.994 37.0001 549.34C36.2441 545.029 35.317 539.734 34.285 533.884C33.268 528.119 32.1511 521.807 31.0011 515.367L28.4141 488.242L33.2021 475.975L39.3011 460.343C39.3011 460.343 43.8601 460.571 48.9891 460.885C53.2341 461.146 57.8791 461.474 60.6411 461.778C61.5771 465.424 62.9611 472.33 64.3301 484.735Z" fill="#2C3A64"/>
<path d="M142.202 461.351C139.882 463.404 130.07 453.171 129.224 452.235C127.261 452.102 122.483 451.835 117.083 451.251C118.78 448.485 120.339 444.511 121.057 442.682C126.548 445.091 131.012 446.878 131.012 446.878C131.012 446.878 139.398 448.257 140.672 449.659C144.199 453.547 144.746 459.164 142.202 461.351Z" fill="#FFC15B"/>
<path d="M139.617 453.789C137.943 453.789 105.023 452.116 105.023 452.116L127.898 476.507L178.113 487.196L139.617 453.789Z" fill="#699FF0"/>
<path d="M162.388 485.006C161.294 488.342 159.374 498.718 159.374 498.718L132.814 490.029C132.814 490.029 136.945 480.552 138.11 477.064C139.165 473.893 141.509 463.475 141.509 463.475L168.068 472.163C168.068 472.163 163.481 481.669 162.388 485.006Z" fill="#FFC15B"/>
<path d="M162.387 485.006C161.294 488.342 159.373 498.718 159.373 498.718L140.667 492.596C140.667 492.596 144.798 483.119 145.963 479.63C147.018 476.46 149.362 466.042 149.362 466.042L168.068 472.163C168.068 472.163 163.481 481.669 162.387 485.006Z" fill="#ED7D2B"/>
<path d="M168.773 470.032L142.216 461.344L141.521 463.467L168.079 472.155L168.773 470.032Z" fill="#ED7D2B"/>
<path d="M159.39 498.707L132.833 490.019L132.138 492.142L158.695 500.83L159.39 498.707Z" fill="#DC8D39"/>
<path d="M167.412 477.553L177.001 492.249C178.137 493.988 177.642 496.341 175.903 497.477L169.879 501.408C168.04 502.605 165.553 502.083 164.351 500.243L154.881 485.728C153.269 483.257 153.374 480.143 154.89 477.81C155.09 477.506 155.081 477.097 154.838 476.821C154.772 476.74 154.705 476.655 154.643 476.565L154.135 475.79L158.613 472.872L159.121 473.646C159.188 473.751 159.245 473.855 159.293 473.96C159.43 474.264 159.744 474.445 160.072 474.388C162.848 473.898 165.786 475.053 167.412 477.553Z" fill="#ECF2FD"/>
<path d="M167.412 477.553L177.001 492.249C178.137 493.989 177.642 496.341 175.903 497.477L172.114 499.949C170.274 501.146 167.788 500.624 166.585 498.784L157.115 484.269C155.504 481.798 155.608 478.684 157.125 476.351C157.196 476.237 157.244 476.113 157.258 475.985C157.286 475.766 157.225 475.538 157.073 475.362C157.006 475.281 156.939 475.196 156.878 475.105L156.369 474.331L158.608 472.872L159.117 473.646C159.183 473.751 159.24 473.855 159.288 473.96C159.426 474.264 159.739 474.445 160.067 474.388C162.848 473.898 165.786 475.053 167.412 477.553Z" fill="#E5EAF5"/>
<path opacity="0.3" d="M164.932 479.174L174.52 493.87C175.657 495.609 175.162 497.962 173.422 499.098L172.12 499.949C170.28 501.146 167.794 500.623 166.591 498.784L157.121 484.269C155.51 481.797 155.614 478.684 157.131 476.351C157.202 476.237 157.25 476.113 157.264 475.985C157.368 476.018 157.483 476.028 157.597 476.008C160.368 475.514 163.306 476.674 164.932 479.174Z" fill="#CED4EA"/>
<path d="M168.239 478.774L155.706 486.949L161.335 495.575L173.868 487.4L168.239 478.774Z" fill="#EBF3FA"/>
<path d="M158.007 471.451L153.037 474.707L153.808 475.884L158.778 472.628L158.007 471.451Z" fill="#EBF3FA"/>
<path d="M134.373 471.332L137.934 488.513C138.357 490.547 137.035 492.558 135 492.976L127.955 494.435C125.807 494.882 123.677 493.485 123.235 491.336L119.722 474.364C119.123 471.474 120.359 468.613 122.621 466.997C122.921 466.783 123.059 466.403 122.935 466.056C122.902 465.956 122.873 465.852 122.85 465.747L122.659 464.839L127.893 463.756L128.084 464.663C128.107 464.782 128.122 464.901 128.131 465.02C128.15 465.353 128.378 465.638 128.702 465.704C131.454 466.26 133.769 468.413 134.373 471.332Z" fill="#ECF2FD"/>
<path d="M134.373 471.332L137.933 488.513C138.356 490.547 137.035 492.558 135 492.976L130.574 493.894C128.426 494.34 126.301 492.943 125.854 490.795L122.341 473.822C121.742 470.932 122.978 468.071 125.241 466.455C125.35 466.379 125.435 466.275 125.497 466.161C125.602 465.966 125.63 465.733 125.55 465.514C125.516 465.414 125.488 465.31 125.464 465.205L125.274 464.297L127.893 463.756L128.083 464.663C128.107 464.782 128.121 464.901 128.131 465.02C128.15 465.353 128.378 465.638 128.701 465.704C131.454 466.26 133.769 468.413 134.373 471.332Z" fill="#E5EAF5"/>
<path opacity="0.3" d="M131.468 471.931L135.029 489.112C135.452 491.146 134.131 493.157 132.096 493.575L130.57 493.889C128.421 494.336 126.296 492.938 125.849 490.79L122.336 473.817C121.737 470.928 122.973 468.066 125.236 466.451C125.346 466.374 125.431 466.27 125.493 466.156C125.578 466.227 125.678 466.275 125.792 466.298C128.554 466.864 130.865 469.012 131.468 471.931Z" fill="#CED4EA"/>
<path d="M134.683 472.778L120.029 475.812L122.118 485.897L136.772 482.863L134.683 472.778Z" fill="#ED7D2B"/>
<path d="M127.876 462.221L122.06 463.437L122.348 464.814L128.164 463.598L127.876 462.221Z" fill="#ED7D2B"/>
<path d="M195.341 584.682L189.675 620.742L188.025 631.141L184.769 651.982H140.667C140.667 651.982 134.863 648.413 127.323 643.727C114.469 635.647 96.703 624.402 94.916 622.396C93.756 621.103 91.745 611.374 89.782 600.395C87.015 584.73 84.334 566.436 84.334 566.436L100.492 536.27L86.568 502.933L104.956 452.121L127.808 476.517L178.066 487.182L195.341 584.682Z" fill="#AAC9F5"/>
<path d="M129.781 578.047L124.761 606.493L162.421 580.276L129.781 578.047Z" fill="#AAC9F5"/>
<path d="M189.603 620.742L184.692 651.977H140.591C140.591 651.977 134.786 648.408 127.247 643.722L123.586 632.966L165.991 613.731L171.077 613.465L189.603 620.742Z" fill="#AAC9F5"/>
<path d="M195.341 584.682L189.675 620.742L188.025 631.141C185.168 629.715 165.259 619.449 166.062 613.736C166.908 607.619 195.341 584.682 195.341 584.682Z" fill="#C3D9FA"/>
<path d="M94.9111 622.391C94.9111 622.391 121.694 630.48 123.643 632.99C125.597 635.499 131.173 646.098 131.173 646.098L94.9111 622.391Z" fill="#C3D9FA"/>
<path d="M129.781 578.047C129.781 578.047 150.983 571.911 152.937 569.121C154.891 566.331 168.558 549.316 168.558 549.316C168.558 549.316 164.931 576.93 162.421 580.276C159.911 583.622 129.781 578.047 129.781 578.047Z" fill="#C3D9FA"/>
<path d="M112.405 558.042L89.7771 600.395C87.0101 584.73 84.3291 566.436 84.3291 566.436L97.1411 551.35L112.405 558.042Z" fill="#9DC1ED"/>
<path d="M112.405 558.043C112.405 558.043 100.131 553.223 84.3291 566.431L100.487 536.265L112.405 558.043Z" fill="#C3D9FA"/>
<path d="M86.5635 502.928L123.924 512.686L139.545 536.488L86.5635 502.928Z" fill="#C3D9FA"/>
<path d="M124.762 606.493L123.644 632.99L166.058 613.736L195.342 584.682L168.559 549.316L155.728 583.347L124.762 606.493Z" fill="#9DC1ED"/>
<path d="M83.6967 337.406C83.6967 337.406 80.1077 324.493 69.7207 323.247C59.3327 322.002 52.8017 328.224 51.3987 334.288C50.0017 340.353 51.0087 356.213 57.4267 358.157C63.8397 360.101 83.6967 337.406 83.6967 337.406Z" fill="#2C3A64"/>
<path d="M53.8765 465.219L53.2345 459.701C42.4525 462.567 13.6395 451.698 13.6395 451.698C13.6395 451.698 3.19554 460.88 4.56454 482.886C5.23554 493.627 5.66753 511.854 5.66753 511.854C5.63953 527.482 6.80354 542.962 7.73054 552.776C8.19154 557.672 8.59654 561.156 8.76254 562.548C8.76754 562.553 8.76754 562.558 8.76754 562.562C8.81954 562.985 8.66753 563.389 8.45353 563.76C6.57053 566.949 4.79254 570.195 3.73754 573.67C-3.63046 597.995 2.16854 635.371 2.16854 635.371L9.42353 646.683C9.42353 646.683 17.6565 600.913 24.3455 580.69C25.4815 577.258 26.5705 574.563 27.5685 572.952C30.4785 568.256 33.1785 560.59 35.6265 551.469C40.2285 534.331 53.8765 465.219 53.8765 465.219Z" fill="#35488B"/>
<path d="M71.5978 364.816C71.5978 364.816 70.1768 369.165 69.1258 373.333C61.3058 371.151 58.9338 362.934 58.2158 358.528L71.5978 364.816Z" fill="#743E1A"/>
<path d="M73.2429 369.421C73.2429 369.421 54.5369 365.091 57.4129 353.485C60.2889 341.878 59.8089 333.504 71.8739 335.776C83.9389 338.048 85.1559 343.052 85.1369 347.159C85.1229 351.265 78.1869 370.248 73.2429 369.421Z" fill="#8C5935"/>
<path d="M86.1931 340.572C84.1821 336.365 81.8151 336.589 80.3361 337.335C71.5461 329.203 62.9231 335.847 62.9231 335.847C59.6051 343.861 52.4121 347.135 52.4121 347.135C52.4121 347.135 55.2831 350.077 63.6171 350.011C66.1601 349.992 68.7181 348.822 71.0471 347.216C66.5591 351.736 61.2921 354.488 61.2921 354.488C71.7171 352.492 78.7101 340.424 79.4281 339.141C80.3121 340.443 82.0001 343.224 82.1431 345.567C82.3371 348.751 81.2391 354.939 83.0651 355.172C83.0601 355.177 89.2071 346.879 86.1931 340.572Z" fill="#2C3A64"/>
<path d="M80.6734 387.045C80.6734 387.045 85.1804 394.901 85.8504 396.921C85.8504 396.921 80.0084 396.698 77.6504 401.189C77.6504 401.189 77.8544 388.176 80.6734 387.045Z" fill="#FFC15B"/>
<path d="M79.1139 410.448C78.9759 410.818 78.8189 411.18 78.6529 411.55C73.9609 421.66 69.6869 430.091 69.6869 430.091C69.5679 430.02 69.0069 467.544 63.3259 469.022C60.1219 469.853 50.9759 471.075 44.4299 471.507C41.2499 471.717 32.5309 472.206 24.5439 471.507C14.4709 470.623 8.74291 468.347 4.89691 464.863C0.33791 458.794 21.4539 438.789 24.3259 424.393C24.2879 423.642 24.4209 421.227 24.6249 418.076C24.9909 412.325 25.5759 404.117 25.7569 399.103C25.7899 398.352 25.8089 397.672 25.8139 397.078C25.8139 396.964 25.8189 396.859 25.8189 396.755C26.8359 395.999 27.8289 395.3 28.7419 394.63C31.6799 392.491 33.8809 390.662 34.0189 388.309C34.0709 387.392 34.0429 386.436 33.9429 385.486C33.8999 385.039 33.8429 384.592 33.7759 384.146C33.0539 379.44 31.0949 375.177 31.0949 375.177C36.0629 373.162 44.9149 374.359 44.9149 374.359C44.9149 374.359 44.8999 374.854 44.8959 375.657C44.8619 378.889 44.8959 387.183 45.9319 388.751C47.2299 390.704 70.9279 399.274 72.1779 396.622C73.4089 394.012 70.0389 381.788 69.9099 381.327C69.9059 381.313 69.9059 381.313 69.9059 381.313C77.8399 384.426 80.6779 387.035 80.6779 387.035C75.8909 390.148 82.8119 400.643 79.1139 410.448Z" fill="#FFC15B"/>
<path d="M46.2931 446.845C40.0711 443.96 30.6581 428.884 24.6211 418.076C24.9871 412.325 25.5711 404.117 25.7521 399.103L46.2931 446.845Z" fill="#ED7D2B"/>
<path d="M92.8099 455.671L91.2459 461.384C91.2459 461.384 89.2829 461.028 86.1589 460.448C85.2229 460.267 84.6859 460.134 84.6859 460.134C82.1849 459.645 79.1949 458.974 75.9389 458.261H75.8959C70.3149 456.921 64.0679 455.315 58.8009 453.532C55.0979 452.24 51.8839 450.856 49.6969 449.473C49.4739 449.34 49.2979 449.207 49.0749 449.027C43.8499 445.234 37.6459 434.079 32.8259 422.116C32.1559 420.467 31.5329 418.813 30.9049 417.206C28.6759 411.227 26.8879 405.334 25.8189 400.248C25.1489 397.216 24.7019 394.445 24.6109 392.168C24.5689 391.365 24.5209 390.605 24.5689 389.892C24.6589 376.95 31.0859 375.167 31.0859 375.167C31.2189 375.125 31.3519 375.077 31.5329 375.034C32.6499 374.854 33.8099 375.614 35.0129 377.088C36.5289 378.917 38.1359 381.907 39.7899 385.519C42.3339 391.275 45.0149 398.727 47.5109 406.137C48.8939 410.196 50.2349 414.26 51.5699 418.005C52.3309 420.281 53.0869 422.42 53.7999 424.388C55.1829 428.138 56.4339 431.17 57.5509 433.09C58.2639 434.34 60.3179 436.08 63.0409 438.043C67.7719 441.479 74.6929 445.628 80.7159 449.022C83.2169 450.448 85.5789 451.745 87.5479 452.815C90.7139 454.554 92.8099 455.671 92.8099 455.671Z" fill="#8C5935"/>
<path d="M39.7708 385.538C31.1758 383.171 24.5488 389.877 24.5488 389.877C24.6588 376.959 31.0908 375.186 31.0908 375.186C33.6768 374.117 36.6758 378.594 39.7708 385.538Z" fill="#FFC15B"/>
<path d="M111.569 461.336C108.712 462.539 104.695 466.736 98.2678 464.193C93.6708 462.406 88.8028 461.156 86.4398 460.576C85.5028 460.395 84.9658 460.262 84.9658 460.262C82.4658 459.773 79.4757 459.103 76.2188 458.39C78.8958 455.086 80.4168 450.894 80.9968 449.15C83.4968 450.581 85.8598 451.874 87.8278 452.943C94.2978 455.41 97.8727 455.086 101.8 454.193C106.221 453.166 113.627 458.475 113.627 458.475C113.627 458.475 114.426 460.177 111.569 461.336Z" fill="#FFC15B"/>
<path d="M29.18 649.753H0.310046C0.310046 649.753 -0.769952 645.148 1.12705 642.016C2.80505 639.245 2.09205 636.051 1.75005 632.268C3.05705 632.805 4.72604 634.178 6.56104 634.497C8.58104 634.848 10.587 634.259 11.918 633.484C13.159 634.901 16.634 642.22 18.298 643.418C20.185 644.772 28.595 644.292 29.18 649.753Z" fill="#233862"/>
<path d="M87.4105 649.753H58.5405C58.5405 649.753 57.4605 645.148 59.3575 642.016C61.0355 639.245 60.3225 636.051 59.9805 632.268C61.2875 632.805 62.9515 634.178 64.7915 634.497C66.8115 634.848 69.4265 633.513 70.7625 632.738C71.4185 638.346 74.8695 642.22 76.5335 643.418C78.4155 644.772 86.8255 644.292 87.4105 649.753Z" fill="#233862"/>
</svg>
