<svg width="610" height="642" viewBox="0 0 610 642" fill="none" xmlns="http://www.w3.org/2000/svg">
<g opacity="0.3">
<path opacity="0.3" d="M607.022 413.029C617.674 320.615 587.928 236.302 536.847 159.825C501.44 106.828 454.645 56.5802 397.641 26.523C337.806 -5.03951 250.172 -15.4622 201.332 41.6252C177.116 69.9317 169.197 105.994 152.328 138.522C118.459 203.839 51.5398 247.477 26.1954 317.049C-5.90642 405.175 15.5766 504.476 84.9996 567.536C175.889 650.099 341.209 655.352 452.813 621.875C540.037 595.712 591.675 513.787 605.288 425.889C605.959 421.586 606.531 417.299 607.022 413.029Z" fill="#4ED3F5"/>
<g opacity="0.3">
<path opacity="0.3" d="M607.807 412.93C611.865 377.277 610.049 341.166 602.49 306.086C594.963 271.185 581.989 237.643 565.381 206.097C548.823 174.616 528.895 144.723 506.233 117.316C483.605 89.9424 457.852 64.8757 428.597 44.6358C403.498 27.2429 376.01 13.7441 346.313 6.43025C318.907 -0.327297 289.669 -2.14349 262.083 4.56497C233.581 11.5025 209.005 28.1428 192.382 52.375C172.404 81.516 164.436 116.793 146.831 147.243C130.583 175.336 108.642 199.47 87.421 223.817C66.5433 247.771 45.8293 272.478 32.0527 301.374C18.2106 330.4 11.4205 363.222 10.8642 395.292C10.3242 426.642 16.0181 458.057 27.8641 487.1C39.8573 516.519 58.117 543.255 81.2362 565.049C102.196 584.798 127.016 600.064 153.408 611.435C180.945 623.298 210.167 631.086 239.733 635.815C270.018 640.658 300.811 642.344 331.457 641.362C360.794 640.413 390.081 637.009 418.812 630.939C447.118 624.951 474.802 616.655 499.525 601.275C524.264 585.878 545.24 564.967 561.7 540.997C578.602 516.388 590.857 488.687 598.776 459.939C603.013 444.509 605.959 428.802 607.807 412.93C607.873 412.325 606.286 412.603 606.237 413.127C602.637 443.838 594.8 474.027 582.021 502.218C569.799 529.15 553.045 554.201 531.758 574.817C510.242 595.63 484.211 611.534 455.643 620.598C428.81 629.107 400.815 634.359 372.869 637.517C342.779 640.92 312.346 641.673 282.126 639.644C251.988 637.615 221.964 632.788 192.938 624.345C165.156 616.279 138.192 604.809 113.943 588.97C88.599 572.412 66.7233 550.847 50.0016 525.6C32.7235 499.519 21.1394 469.805 15.8218 438.995C10.4879 408.005 11.5023 376.001 18.5706 345.371C22.1375 329.909 27.1278 314.676 34.0161 300.359C40.9208 286.059 49.6089 272.674 59.1151 259.977C78.1602 234.534 100.412 211.758 120.374 187.052C130.272 174.796 139.631 162.05 147.616 148.437C156.091 133.973 162.505 118.511 168.821 103.016C175.431 86.8009 182.123 70.4715 191.662 55.7129C200.285 42.3451 211.231 30.5807 224.484 21.7288C248.634 5.57942 278.134 0.0817555 306.816 1.50526C335.498 2.92876 363.935 10.848 389.77 23.2669C420.498 38.0418 448.133 59.1162 472.495 82.8249C497.349 106.992 519.077 134.267 538.139 163.179C557.839 193.073 574.74 224.93 587.028 258.603C598.923 291.229 606.335 325.491 608.036 360.195C608.904 377.866 608.266 395.587 606.269 413.159C606.155 413.749 607.758 413.454 607.807 412.93Z" fill="#27DEBF"/>
</g>
</g>
<path d="M318.155 582.9C429.691 582.9 520.109 568.74 520.109 551.272C520.109 533.805 429.691 519.644 318.155 519.644C206.619 519.644 116.202 533.805 116.202 551.272C116.202 568.74 206.619 582.9 318.155 582.9Z" fill="#27DEBF" fill-opacity="0.5"/>
<path opacity="0.8" d="M426.503 225.879H426.487C414.15 212.757 368.451 203.005 313.934 203.005C269.741 203.005 231.34 209.419 211.804 218.827C211.706 218.876 211.607 218.925 211.509 218.974C210.642 219.4 209.808 219.825 209.022 220.267C208.679 220.463 208.319 220.66 207.975 220.856C207.386 221.2 206.83 221.543 206.274 221.903C176.217 241.243 179.064 287.679 177.657 319.078C174.973 378.963 174.139 440.043 180.766 499.699C182.827 518.237 186.099 538.346 199.843 550.945C210.495 560.713 225.728 564.018 240.175 563.691C248.192 563.511 381.099 566.325 388.904 565.376C406.427 563.249 424.425 555.428 433.441 540.244C438.415 531.883 440.231 522.066 441.703 512.445C451.209 450.596 447.544 387.651 448.592 325.083C449.508 270.826 449.508 242.928 426.503 225.879Z" fill="#4ED3F5" fill-opacity="0.38"/>
<path opacity="0.402" d="M448.591 325.066C447.544 387.635 451.209 450.563 441.703 512.429C440.231 522.049 438.398 531.85 433.44 540.211C424.425 555.412 406.443 563.233 388.92 565.36C386.515 565.655 372.395 565.589 353.693 565.36C371.217 563.233 389.182 555.412 398.213 540.211C403.171 531.85 405.004 522.033 406.476 512.429C415.999 450.563 412.317 387.635 413.364 325.066C414.281 270.826 414.281 242.912 391.26 225.879H391.243C380.248 214.18 342.763 205.165 296.165 203.365C301.957 203.119 307.913 203.005 313.95 203.005C368.468 203.005 414.15 212.757 426.503 225.879H426.519C449.508 242.928 449.508 270.826 448.591 325.066Z" fill="#94D9EB"/>
<path d="M427.157 186.283C427.239 185.596 427.55 184.941 427.845 184.303C431.51 176.073 433.26 162.64 426.814 155.178C417.717 144.658 399.342 141.254 386.531 138.587C362.741 133.613 338.198 131.961 313.918 131.961C289.637 131.961 265.11 133.613 241.304 138.587C228.493 141.254 210.135 144.658 201.038 155.178C195.376 161.74 196.734 175.484 198.583 183.288C198.845 184.434 199.172 185.579 199.074 186.757C198.976 188.099 198.338 189.326 197.847 190.57C195.965 195.282 195.818 200.485 195.867 205.557C195.916 209.91 196.456 214.884 199.401 217.796C207.877 232.195 255.915 243.239 313.934 243.239C376.027 243.239 426.699 230.591 429.644 214.704H429.792C431.33 206.212 429.579 197.18 427.501 188.803C427.272 187.968 427.059 187.134 427.157 186.283Z" fill="#4ED3F5"/>
<path opacity="0.1393" d="M427.485 188.802C429.563 197.18 431.313 206.212 429.775 214.704L429.628 214.72C426.683 230.608 376.01 243.239 313.918 243.239C265.29 243.239 223.633 235.467 206.47 224.488C226.824 233.127 263.54 238.887 305.442 238.887C367.535 238.887 418.208 226.239 421.153 210.368H421.284C422.838 201.876 421.071 192.844 418.993 184.467C418.78 183.632 418.568 182.781 418.666 181.93C418.747 181.227 419.075 180.589 419.353 179.951C423.018 171.72 424.769 158.287 418.306 150.826C416.522 148.764 414.379 146.981 412.006 145.427C417.815 147.783 423.067 150.891 426.797 155.178C433.26 162.623 431.493 176.056 427.828 184.303C427.55 184.925 427.256 185.579 427.157 186.266C427.043 187.117 427.288 187.968 427.485 188.802Z" fill="#4ED3F5"/>
<path opacity="0.3873" d="M397.216 545.906C397.216 551.698 359.191 556.394 312.265 556.394C265.34 556.394 227.315 551.698 227.315 545.906C227.315 540.113 265.34 535.417 312.265 535.417C359.191 535.417 397.216 540.13 397.216 545.906Z" fill="#94D9EB"/>
<path opacity="0.3752" d="M312.265 183.256C373.225 183.256 422.642 172.421 422.642 159.056C422.642 145.691 373.225 134.857 312.265 134.857C251.306 134.857 201.889 145.691 201.889 159.056C201.889 172.421 251.306 183.256 312.265 183.256Z" fill="#4ED3F5"/>
<path d="M420.106 164.243C409.242 175.107 365.097 183.256 312.282 183.256C251.318 183.256 201.889 172.408 201.889 159.04C201.889 155.767 204.85 152.659 210.2 149.812C208.515 151.481 207.632 153.231 207.632 155.015C207.632 168.383 257.044 179.214 318.008 179.214C364.083 179.231 403.58 173.046 420.106 164.243Z" fill="#94D9EB"/>
<g opacity="0.5576">
<path opacity="0.5576" d="M223.421 372.222C227.102 339.399 225.417 305.922 224.943 273.018C224.91 270.335 224.844 267.57 223.568 265.099C222.292 262.628 219.461 260.518 216.304 260.632C214.667 260.698 213.162 261.352 211.755 262.039C209.579 263.119 207.468 264.412 206.061 266.212C203.901 268.977 203.738 272.511 203.64 275.849C202.871 302.765 200.923 329.615 200.989 356.563C201.005 367.329 201.349 378.357 205.816 388.502C207.419 392.134 211.771 396.258 215.6 394.261C216.614 393.722 217.302 392.838 217.891 391.954C221.801 386.031 222.734 379.028 223.421 372.222Z" fill="#FEFEFE"/>
</g>
<path opacity="0.3752" d="M206.879 188.835C207.386 189.277 288.442 229.806 419.255 188.835" stroke="#27BDDE" stroke-width="3" stroke-miterlimit="10" stroke-linecap="round"/>
<path opacity="0.3752" d="M206.879 204.101C207.386 204.543 288.442 245.072 419.255 204.101" stroke="#27BDDE" stroke-width="3" stroke-miterlimit="10" stroke-linecap="round"/>
<path d="M341.847 162.345H272.048C268.841 162.345 266.239 159.743 266.239 156.536C266.239 153.329 268.841 150.728 272.048 150.728H341.847C345.054 150.728 347.655 153.329 347.655 156.536C347.655 159.727 345.054 162.345 341.847 162.345Z" fill="#4ED3F5"/>
<g opacity="0.3189">
<path opacity="0.3189" d="M357.93 105.209C354.658 126.692 341.503 141.287 327.956 158.467C327.072 159.596 325.927 160.169 324.651 160.332C323.162 160.529 321.476 160.185 319.889 159.563C311.316 156.127 302.955 150.826 296.181 145.132C287.967 138.227 278.887 130.144 275.516 119.951C272.113 109.675 275.271 98.86 286.315 92.9861C291.829 90.0572 301.122 91.8243 305.393 95.064C308.305 97.2729 310.563 99.9236 312.346 102.836C313.884 97.682 315.946 92.7406 319.366 88.7646C320.135 87.8647 320.985 87.0302 321.902 86.2776C326.958 81.9089 333.731 79.7655 340.276 79.6018C343.467 79.52 346.657 80.2727 349.455 81.7944C358.634 86.8012 359.239 96.5857 357.93 105.209Z" fill="#54323A"/>
</g>
<path d="M348.539 103.834C345.266 125.317 332.112 139.912 318.564 157.093C317.68 158.222 316.535 158.794 315.259 158.958C313.77 159.154 312.085 158.811 310.498 158.189C301.924 154.753 293.563 149.452 286.789 143.758C278.576 136.853 269.495 128.77 266.124 118.576C262.721 108.301 265.879 97.4855 276.923 91.6115C282.437 88.6827 291.731 90.4498 296.001 93.6895C298.913 95.8984 301.171 98.5491 302.955 101.462C304.493 96.3075 306.554 91.3661 309.974 87.3901C310.743 86.4902 311.594 85.6557 312.51 84.9031C317.566 80.5344 324.34 78.391 330.884 78.2273C334.075 78.1455 337.266 78.8982 340.063 80.4199C349.242 85.4267 349.848 95.2112 348.539 103.834Z" fill="#F89C46"/>
<g opacity="0.2519">
<path opacity="0.2519" d="M348.539 103.834C345.267 125.317 332.112 139.912 318.564 157.093C317.681 158.222 316.535 158.794 315.259 158.958C317.042 150.482 319.12 142.089 321.444 133.76C324.798 121.734 328.725 109.004 325.191 97.0438C323.882 92.5769 321.313 88.2082 317.173 86.0484C315.75 85.2958 314.13 84.9031 312.51 84.9031C317.566 80.5344 324.34 78.391 330.885 78.2273C334.075 78.1455 337.266 78.8982 340.063 80.4199C349.242 85.4267 349.848 95.2112 348.539 103.834Z" fill="#FFC15B"/>
</g>
<path d="M281.095 104.129C282.29 102.165 284.777 100.84 283.37 98.2055C282.224 96.0621 279.917 96.2911 278.036 97.1583C276.007 98.091 274.305 99.7435 273.078 101.576C269.855 106.37 269.053 113.16 272.407 117.856C273.438 119.296 275.352 120.556 276.874 119.673C277.578 119.264 277.987 118.478 278.314 117.725C279.132 115.795 279.639 113.717 279.803 111.639C280.016 109.07 279.77 106.321 281.095 104.129Z" fill="#FFE8E1"/>
<path d="M359.567 512.396C365.211 507.095 371.102 501.433 371.985 493.285C372.394 489.603 371.38 485.807 368.795 483.14C362.757 476.923 353.905 480.604 349.03 486.282C344.187 491.911 341.83 499.29 340.685 506.62C339.736 512.674 339.507 518.81 338.951 524.896C338.754 527.073 340.309 529.02 342.485 529.282C357.505 531.18 373.065 532.423 386.973 526.696C392.552 524.389 398.131 520.544 397.837 513.296C397.739 511.103 397.052 508.943 395.857 507.078C391.881 500.844 384.42 498.733 377.466 499.11C371.953 499.421 366.635 501.122 361.383 502.824" fill="#F89C46"/>
<path d="M288.982 38.9419C293.531 48.4974 297.768 59.3128 298.717 69.9154C298.767 70.4881 298.75 71.1426 298.325 71.5353C297.85 71.9934 297.032 71.8789 296.509 71.4862C295.985 71.0771 295.691 70.4554 295.412 69.8663C292.516 63.5996 289.751 57.2839 287.166 50.8863C286.037 48.0884 279.836 37.6166 283.943 35.5223C285.972 34.4751 288 36.8803 288.982 38.9419Z" fill="white"/>
<path d="M280.245 64.8432C284.156 68.2301 288.164 72.2389 290.668 76.7875C290.798 77.033 290.913 77.3275 290.815 77.5893C290.684 77.8838 290.308 77.9983 289.997 77.9165C289.686 77.8347 289.424 77.622 289.195 77.4093C286.675 75.184 284.205 72.8934 281.783 70.5372C280.736 69.5064 275.909 66.0376 277.333 64.3032C278.02 63.436 279.411 64.1069 280.245 64.8432Z" fill="white"/>
<path d="M312.559 50.6081C309.156 56.8257 305.9 63.8942 304.853 70.9626C304.804 71.3389 304.787 71.7807 305.049 72.0588C305.344 72.3861 305.9 72.337 306.26 72.0916C306.62 71.8461 306.849 71.4371 307.062 71.0444C309.238 66.9702 311.332 62.8306 313.312 58.6583C314.179 56.8421 318.728 50.0682 316.061 48.5138C314.752 47.7448 313.295 49.2664 312.559 50.6081Z" fill="white"/>
<path d="M263.163 343.228C261.445 336.16 259.531 328.731 252.659 324.084C249.55 321.99 245.574 320.959 241.745 321.745C232.845 323.577 231.339 332.429 233.826 339.072C236.281 345.65 241.664 351.082 247.668 355.549C252.61 359.23 258.042 362.355 263.245 365.742C265.11 366.953 267.712 366.642 269.135 365.039C279.034 353.945 288.638 342.099 291.027 328.224C291.992 322.644 291.534 316.329 284.826 313.089C282.781 312.107 280.457 311.616 278.134 311.682C270.33 311.862 264.357 316.803 260.921 322.563C258.189 327.111 256.847 332.2 255.506 337.207" fill="#F89C46"/>
<g opacity="0.2519">
<path opacity="0.2519" d="M291.027 328.208C288.638 342.099 279.034 353.945 269.135 365.039C268.251 366.037 266.893 366.528 265.552 366.462C271.982 353.618 277.741 340.201 276.514 326.686C276.056 321.712 274.403 316.46 268.971 314.333C271.622 312.762 274.714 311.764 278.134 311.682C280.474 311.633 282.797 312.107 284.826 313.089C291.551 316.329 291.992 322.645 291.027 328.208Z" fill="#FFC15B"/>
</g>
<path d="M242.825 335.358C242.825 333.738 245.46 326.539 241.451 327.848C240.256 328.24 239.471 329.582 238.964 330.662C238.178 332.38 237.819 334.294 237.917 336.192C237.966 337.109 238.146 338.058 238.686 338.81C239.226 339.563 240.207 340.054 241.091 339.792C241.909 339.563 242.465 338.745 242.678 337.91C242.891 337.076 242.825 336.209 242.825 335.358Z" fill="#FFE8E1"/>
<path d="M361.596 492.205C363.036 491.158 371.167 488.802 367.388 486.086C366.259 485.284 364.557 485.448 363.265 485.709C361.22 486.118 359.272 487.051 357.669 488.376C356.884 489.031 356.147 489.8 355.836 490.765C355.526 491.731 355.722 492.925 356.524 493.547C357.276 494.12 358.356 494.087 359.223 493.727C360.107 493.383 360.843 492.761 361.596 492.205Z" fill="#FFE8E1"/>
<path d="M308.649 427.051C310.662 417.627 312.92 407.695 321.673 401.33C325.649 398.45 330.77 396.978 335.728 397.894C347.312 400.07 349.521 411.769 346.51 420.67C343.532 429.473 336.71 436.852 329.085 442.955C322.786 447.978 315.848 452.298 309.205 456.961C306.833 458.614 303.446 458.286 301.548 456.192C288.393 441.744 275.598 426.315 272.08 407.957C270.673 400.577 271.05 392.184 279.656 387.684C282.274 386.31 285.268 385.606 288.279 385.606C298.39 385.622 306.277 392.004 310.907 399.53C314.572 405.502 316.486 412.194 318.352 418.821" fill="#F89C46"/>
<g opacity="0.2519">
<path opacity="0.2519" d="M346.51 420.67C343.533 429.473 336.726 436.852 329.085 442.955C322.786 447.978 315.848 452.298 309.206 456.945C308.158 457.681 306.915 458.008 305.704 457.992C306.015 457.697 306.326 457.37 306.588 457.01C311.349 450.449 316.519 444.117 320.822 437.327C326.075 429.064 330.116 419.885 330.05 410.575C330.034 406.435 328.872 402.115 326.582 398.712C329.461 397.665 332.619 397.305 335.695 397.861C347.312 400.07 349.521 411.785 346.51 420.67Z" fill="#FFC15B"/>
</g>
<path d="M285.497 402.966C287.068 398.483 288.115 391.185 283.795 392.593C282.143 393.132 281.03 394.998 280.343 396.503C279.034 399.366 277.431 404.455 280.654 406.648C281.079 406.942 281.587 407.155 282.11 407.122C282.847 407.073 283.468 406.549 283.975 406.009C284.434 405.568 284.99 404.422 285.497 402.966Z" fill="#FFE8E1"/>
<path d="M363.15 349.314C361.383 341.788 359.403 333.868 352.335 328.927C349.128 326.685 345.038 325.605 341.111 326.44C331.948 328.387 330.41 337.828 332.963 344.896C335.499 351.899 341.029 357.692 347.198 362.437C352.286 366.347 357.865 369.685 363.232 373.301C365.146 374.594 367.83 374.25 369.286 372.548C379.463 360.735 389.346 348.12 391.8 333.328C392.782 327.389 392.323 320.664 385.419 317.212C383.324 316.165 380.919 315.657 378.53 315.706C370.497 315.903 364.361 321.155 360.811 327.291C358.013 332.134 356.606 337.55 355.248 342.9" fill="#F89C46"/>
<g opacity="0.2519">
<path opacity="0.2519" d="M391.816 333.329C389.362 348.12 379.479 360.719 369.302 372.549C368.893 373.007 368.402 373.384 367.879 373.629C374.571 361.21 380.33 348.202 379.807 334.704C379.577 328.682 377.778 322.203 370.317 320.19C369.351 319.945 368.37 319.781 367.372 319.765C370.48 317.376 374.244 315.805 378.563 315.707C380.952 315.642 383.357 316.165 385.451 317.212C392.34 320.665 392.798 327.39 391.816 333.329Z" fill="#FFC15B"/>
</g>
<path d="M343.238 338.123C343.238 336.209 344.138 332.135 340.391 333.084C337.282 333.869 337.201 339.874 338.69 341.936C339.279 342.754 340.358 343.31 341.34 343.032C342.256 342.77 342.862 341.887 343.091 340.97C343.304 340.038 343.238 339.072 343.238 338.123Z" fill="#FFE8E1"/>
<path d="M266.321 492.417C264.423 489.112 262.476 485.578 263.229 481.618C263.572 479.819 264.587 478.182 266.19 477.299C269.937 475.237 273.569 478.248 275.058 481.635C276.531 484.989 276.564 488.801 276.056 492.434C275.631 495.428 274.846 498.341 274.24 501.302C274.028 502.349 273.013 503.053 271.95 502.856C264.603 501.58 257.077 499.928 251.367 495.215C249.06 493.317 246.998 490.699 248.176 487.329C248.536 486.298 249.174 485.382 250.009 484.678C252.79 482.306 256.602 482.387 259.826 483.582C262.378 484.514 264.636 486.102 266.878 487.656" fill="#F89C46"/>
<g opacity="0.2519">
<path opacity="0.2519" d="M273.488 502.464C273.242 499.699 273.111 496.917 272.653 494.185C272.048 490.569 270.87 486.936 268.481 484.171C267.172 482.649 265.274 481.439 263.327 481.128C263.753 479.524 264.734 478.101 266.19 477.283C269.937 475.221 273.57 478.232 275.059 481.619C276.531 484.973 276.58 488.785 276.057 492.401C275.631 495.396 274.846 498.308 274.24 501.269C274.142 501.777 273.864 502.186 273.488 502.464Z" fill="#FFC15B"/>
</g>
<path d="M254.181 489.587C254.59 488.475 255.964 486.298 253.592 486.053C251.612 485.857 250.303 489.325 250.728 490.831C250.892 491.436 251.415 491.976 252.037 492.025C252.626 492.074 253.166 491.682 253.493 491.191C253.821 490.7 253.984 490.143 254.181 489.587Z" fill="#FFE8E1"/>
<path d="M314.605 294.96C316.355 289.773 318.27 284.341 323.735 281.298C326.205 279.923 329.265 279.416 332.096 280.25C338.673 282.197 339.246 288.922 336.955 293.733C334.681 298.51 330.296 302.225 325.485 305.186C321.526 307.624 317.239 309.62 313.116 311.829C311.643 312.615 309.696 312.206 308.731 310.929C301.99 301.979 295.527 292.506 294.611 281.968C294.251 277.731 294.987 273.035 300.239 271.038C301.843 270.433 303.626 270.22 305.36 270.417C311.218 271.055 315.39 275.129 317.632 279.661C319.399 283.245 320.086 287.139 320.773 290.984" fill="#F89C46"/>
<path d="M304.166 278.565C305.082 277.763 305.458 276.667 304.477 275.227C302.644 272.544 299.388 274.262 298.423 276.765C298.063 277.714 298.194 278.909 298.963 279.579C299.683 280.201 300.762 280.218 301.646 279.907C302.546 279.596 303.495 279.154 304.166 278.565Z" fill="#FFE8E1"/>
<g opacity="0.1755">
<g opacity="0.1755">
<path opacity="0.1755" d="M435.043 262.874C435.96 283.114 436.876 303.354 437.53 323.61C438.185 343.768 438.594 363.943 438.479 384.101C438.365 404.226 437.759 424.351 436.385 444.428C434.994 464.7 432.835 484.924 429.628 505C426.993 521.559 422.788 541.177 406.345 549.489C404.529 550.405 402.631 551.092 400.651 551.583C399.636 551.829 400.062 553.416 401.093 553.154C408.668 551.289 414.967 546.282 419.549 540.081C424.85 532.898 427.599 524.209 429.399 515.554C431.427 505.851 432.704 495.968 433.964 486.135C435.272 475.925 436.32 465.699 437.17 455.439C438.856 435.02 439.723 414.534 440.001 394.032C440.296 373.4 440.001 352.751 439.412 332.135C438.823 311.584 437.939 291.049 437.007 270.531C436.892 267.979 436.778 265.426 436.663 262.874C436.631 261.827 434.994 261.827 435.043 262.874Z" fill="#8993DC"/>
</g>
</g>
<g opacity="0.15">
<path opacity="0.15" d="M254.982 250.128C267.712 250.111 288.524 248.573 296.279 260.927C298.652 264.723 299.274 269.304 299.503 273.755C299.879 281.052 300.304 288.3 300.141 295.614C299.748 313.154 299.241 330.711 298.685 348.251C297.572 382.726 296.198 417.185 294.954 451.66C294.61 461.281 294.267 470.885 293.956 480.506C293.465 495.461 291.404 512.854 277.987 520.659C271.639 524.356 263.883 525.06 256.406 525.289C240.862 525.747 225.253 524.487 210.004 521.542C205.39 520.659 200.465 519.415 197.487 515.963C194.689 512.723 194.231 508.273 193.904 504.117C190.271 456.323 188.848 408.316 190.55 360.408C191.171 342.95 191.629 325.475 192.546 308.017C193.004 299.181 193.593 290.346 194.362 281.527C195.082 273.395 195.278 265.573 199.827 258.44C202.134 254.807 205.488 251.698 209.611 250.324C213.996 248.851 218.774 249.44 223.404 249.8C233.843 250.586 244.462 250.128 254.982 250.128Z" fill="#FEFEFE"/>
</g>
<path d="M487.614 349.184C485.749 363.419 482.64 377.474 478.484 391.218C474.328 404.995 469.141 418.445 463.235 431.567C461.157 436.198 458.981 440.795 456.723 445.344C455.545 447.733 454.334 450.122 453.107 452.511C452.321 454.032 450.358 455.963 450.473 457.796C450.734 461.723 453.254 456.372 453.745 455.44C456.87 449.451 459.881 443.397 462.728 437.278C468.831 424.188 474.23 410.787 478.664 397.043C483.114 383.266 486.567 369.178 488.743 354.862C489.005 353.095 489.266 351.344 489.496 349.577C489.659 348.349 487.761 347.957 487.614 349.184Z" fill="#00AD9F"/>
<path d="M487.712 357.545C485.487 352.358 483.491 345.781 482.558 340.217C482.264 338.434 481.969 336.618 482.296 334.834C482.624 333.067 483.671 331.316 485.34 330.646C485.863 330.433 486.469 330.335 487.025 330.466C487.516 330.58 487.958 330.858 488.35 331.169C489.807 332.38 490.608 334.196 491.148 336.012C493.324 343.212 492.015 351.376 487.712 357.545Z" fill="#00AD9F"/>
<path d="M485.568 364.171C484.947 361.766 484.309 359.345 483.212 357.136C482.1 354.91 480.48 352.882 478.288 351.72C477.159 351.131 475.719 350.804 474.672 351.507C473.641 352.194 473.363 353.585 473.477 354.812C473.723 357.528 475.424 359.983 477.666 361.553C479.891 363.124 482.591 363.91 485.29 364.302" fill="#00AD9F"/>
<path d="M487.352 361.766C489.692 358.821 492.212 355.941 495.402 353.929C496.678 353.127 498.315 352.473 499.64 353.176C500.638 353.716 501.162 354.927 501.08 356.056C500.998 357.185 500.409 358.232 499.673 359.083C498.118 360.866 495.893 361.946 493.602 362.486C491.312 363.026 488.923 363.059 486.567 363.059" fill="#00AD9F"/>
<path d="M481.805 380.354C481.92 379.061 481.446 377.785 480.938 376.59C480.251 374.987 479.466 373.432 478.582 371.927C477.944 370.847 477.241 369.767 476.242 368.982C475.392 368.311 474.344 367.869 473.265 367.722C472.594 367.64 471.874 367.673 471.252 367.951C469.714 368.655 469.19 370.7 469.698 372.303C470.221 373.907 471.514 375.134 472.856 376.149C475.31 377.997 478.075 379.421 481.02 380.304" fill="#00AD9F"/>
<path d="M483.867 376.083C485.307 373.923 486.796 371.698 488.906 370.193C491.017 368.687 493.946 368 496.253 369.195C496.874 369.506 497.48 370.046 497.496 370.749C497.513 371.24 497.218 371.682 496.924 372.074C493.586 376.509 487.745 378.897 482.28 378.063" fill="#00AD9F"/>
<path d="M480.366 391.676C482.133 389.696 483.916 387.7 486.158 386.293C488.399 384.869 491.165 384.1 493.717 384.788C494.486 385 495.288 385.409 495.599 386.146C495.975 387.029 495.517 388.027 494.928 388.78C493.406 390.694 491.017 391.758 488.612 392.151C486.207 392.543 483.736 392.331 481.298 392.118" fill="#00AD9F"/>
<path d="M477.519 395.407C476.897 393.051 475.948 390.809 474.672 388.731C473.772 387.275 472.708 385.884 471.252 384.984C469.796 384.084 467.914 383.741 466.36 384.461C465.886 384.673 465.427 385.017 465.248 385.491C465.133 385.786 465.133 386.129 465.149 386.44C465.182 387.373 465.329 388.322 465.82 389.124C466.311 389.926 467.096 390.498 467.882 391.005C470.843 392.953 474.083 394.441 477.486 395.44" fill="#00AD9F"/>
<path d="M474.524 408.529C476.651 405.928 479.466 403.882 482.591 402.672C484.538 401.919 486.763 401.477 488.71 402.263C489.577 402.606 490.395 403.261 490.559 404.177C490.673 404.815 490.444 405.47 490.134 406.042C489.315 407.498 487.925 408.562 486.387 409.2C484.849 409.838 483.18 410.084 481.511 410.165C478.926 410.313 476.324 410.1 473.788 409.56" fill="#00AD9F"/>
<path d="M471.645 411.556C471.612 410.918 471.432 410.296 471.252 409.691C470.565 407.384 469.861 405.028 468.503 403.048C467.145 401.068 464.985 399.465 462.564 399.399C461.598 399.366 460.486 399.71 460.109 400.594C459.946 400.97 459.946 401.412 459.979 401.821C460.224 404.422 461.958 406.697 464.085 408.218C466.212 409.74 468.716 410.607 471.186 411.458" fill="#00AD9F"/>
<path d="M465.951 426.495C466.262 423.893 465.509 421.292 464.773 418.772C464.56 418.052 464.347 417.332 463.905 416.743C463.496 416.203 462.94 415.81 462.351 415.483C461.288 414.878 460.06 414.469 458.85 414.649C456.739 414.976 455.201 417.348 455.757 419.394C456.068 420.555 456.919 421.504 457.786 422.339C459.946 424.401 462.466 426.102 465.198 427.346" fill="#00AD9F"/>
<path d="M466.213 427.165C468.863 424.482 473.739 421.144 477.077 419.393C478.337 418.739 479.728 418.215 481.135 418.363C482.542 418.494 483.949 419.443 484.244 420.817C484.456 421.864 484.047 422.928 483.458 423.811C482.149 425.775 479.973 427.149 477.633 427.476C475.359 427.787 473.068 427.182 470.778 427.264C469.24 427.329 467.653 427.689 466.213 427.165Z" fill="#00AD9F"/>
<path d="M457.492 443.741C457.181 440.37 456.87 436.967 455.987 433.694C455.659 432.467 455.217 431.24 454.383 430.291C453.532 429.342 452.191 428.753 450.98 429.129C449.491 429.571 448.722 431.256 448.591 432.794C448.378 435.33 449.442 437.85 451.029 439.846C452.616 441.843 454.678 443.397 456.772 444.853" fill="#00AD9F"/>
<path d="M457.034 447.831C460.371 444.28 464.675 441.335 469.518 440.893C470.729 440.779 472.005 440.828 473.117 441.319C474.246 441.81 475.212 442.775 475.441 443.969C475.703 445.278 475.064 446.637 474.148 447.618C472.119 449.827 468.912 450.596 465.918 450.498C462.924 450.4 459.995 449.549 457.034 449.058" fill="#00AD9F"/>
<path d="M100.92 401.935C101.836 395.587 102.032 389.124 101.492 382.726C101.427 382.022 101.312 381.237 100.723 380.844C100.101 380.435 99.2179 380.714 98.7271 381.27C98.2199 381.81 98.0072 382.562 97.8108 383.282C97.0582 385.998 96.3055 388.715 95.5529 391.431C94.9966 393.46 94.3912 395.554 93.0659 397.19C92.8532 397.452 92.5423 397.73 92.1987 397.648C91.757 397.534 91.6915 396.961 91.7242 396.503C92.0188 391.382 92.5914 386.293 92.4114 381.155C92.2315 375.919 91.5443 370.733 90.8734 365.546C90.8243 365.186 90.7753 364.81 90.5462 364.531C90.0717 363.926 89.0409 364.09 88.501 364.662C87.9774 365.235 87.8138 366.037 87.6665 366.806C86.6357 372.254 85.0814 377.605 83.0198 382.759C82.8071 383.299 82.578 383.839 82.1362 384.215C81.6945 384.575 80.9909 384.69 80.5655 384.297C81.1545 377.687 81.5963 371.044 81.3181 364.401C81.0564 358.33 80.4837 352.129 77.5222 346.713C77.4404 346.549 77.2768 346.369 77.0968 346.419C76.9823 346.468 76.9332 346.599 76.9005 346.713C75.7715 350.378 74.6425 354.06 74.119 357.839C73.8735 359.672 73.759 361.504 73.5627 363.337C73.2845 365.988 72.8264 368.622 72.1883 371.207C71.3047 369.456 71.1084 367.444 70.863 365.497C70.0122 358.625 68.5232 351.818 66.4126 345.224C66.1999 344.553 65.8726 343.784 65.1854 343.621C63.5329 351.065 63.2547 358.821 64.351 366.38C62.7475 364.466 61.0295 362.633 59.2297 360.915C57.7081 359.459 56.0228 358.412 54.5175 356.874C50.9507 353.258 47.2856 349.724 43.5388 346.288C43.0316 345.829 42.3117 345.339 41.739 345.699C43.8333 350.444 46.2385 355.058 48.9055 359.508C50.2471 361.733 51.6379 363.926 53.1104 366.053C54.4521 368.017 56.3501 369.947 57.4136 372.058C56.1864 372.565 54.583 371.829 53.3722 371.616C51.8179 371.338 50.378 371.044 48.7909 370.945C44.815 370.733 40.8391 370.765 36.8632 371.027C36.585 371.044 36.2578 371.093 36.1269 371.338C35.9469 371.665 36.2578 372.058 36.5523 372.303C39.3502 374.627 42.6716 376.312 46.2058 377.196C48.66 377.801 51.4415 378.521 53.9449 378.75C54.7466 378.832 58.5262 379.306 58.9352 378.865C56.481 381.466 42.8843 382.415 39.7265 384.035C39.5465 384.133 39.3665 384.248 39.3011 384.428C39.1538 384.837 39.5956 385.18 39.9883 385.377C42.9498 386.866 45.9603 388.371 49.2163 389.042C51.687 389.549 54.2067 389.582 56.7264 389.664C59.1152 389.729 62.1585 389.598 64.3673 390.629C64.171 391.545 62.6003 392.314 61.8476 392.74C57.7572 395.063 53.2413 396.65 48.5782 397.387C47.5474 397.55 46.5003 397.681 45.5022 398.008C45.175 398.123 44.7986 398.319 44.7823 398.663C44.7823 398.859 44.8805 399.023 44.995 399.186C47.1057 401.952 50.8525 402.819 54.0594 403.391C56.1537 403.768 58.2644 404.684 60.326 405.24C62.4366 405.797 64.5637 406.304 66.7071 406.762C66.8707 406.795 67.0507 406.844 67.1161 406.991C67.2307 407.237 66.9852 407.482 66.7562 407.629C62.5021 410.264 57.3154 411.033 52.2923 410.967C51.2616 410.951 50.1817 410.918 49.2163 411.294C49.02 411.376 48.8073 411.491 48.7418 411.687C48.6928 411.851 48.7255 412.014 48.7909 412.178C49.2327 413.356 50.3944 414.109 51.507 414.698C54.4685 416.268 57.6754 417.414 60.9641 418.085C64.4001 418.788 67.787 418.445 71.272 418.445C72.4991 418.379 75.886 418.248 75.3461 420.228C74.9534 421.684 68.8996 423.762 67.5088 424.499C66.5762 424.989 65.4799 425.791 65.709 426.822C65.9217 427.738 67.0179 428.065 67.9506 428.229C75.4279 429.571 82.9052 430.912 90.3826 432.254C90.2844 433.776 88.4519 434.447 86.963 434.758C83.8051 435.412 80.6473 436.083 77.4731 436.754C77.0968 437.785 78.3076 438.684 79.3384 439.044C84.1651 440.746 89.4336 440.075 94.5385 440.124C98.3671 440.157 102.408 440.713 105.714 442.791C109.1 444.918 111.457 448.06 114.696 450.351C116.071 451.332 117.592 452.118 118.885 453.198C119.621 453.803 123.417 456.748 123.63 454.098C123.728 452.854 119.965 450.858 119.179 450.073C115.04 445.917 111.604 440.517 108.495 435.576C105.583 430.962 102.965 426.135 101.067 420.997C99.3325 416.317 98.8907 411.932 99.9215 407.024C100.38 405.322 100.674 403.62 100.92 401.935Z" fill="#00AD9F" fill-opacity="0.39"/>
<path d="M489.692 438.701C487.369 432.712 485.749 426.462 484.865 420.097C484.767 419.394 484.718 418.592 485.193 418.085C485.7 417.545 486.632 417.626 487.238 418.052C487.843 418.477 488.219 419.148 488.579 419.803C489.921 422.29 491.263 424.76 492.588 427.247C493.586 429.096 494.633 431.011 496.302 432.303C496.58 432.516 496.94 432.712 497.251 432.565C497.66 432.369 497.595 431.78 497.464 431.338C496.024 426.413 494.339 421.57 493.373 416.514C492.392 411.376 491.884 406.157 491.394 400.954C491.361 400.594 491.328 400.217 491.475 399.89C491.803 399.186 492.85 399.121 493.488 399.563C494.126 400.004 494.453 400.757 494.764 401.461C496.989 406.549 499.705 411.409 502.847 415.99C503.174 416.465 503.518 416.956 504.025 417.217C504.532 417.479 505.252 417.43 505.579 416.956C503.518 410.64 501.62 404.259 500.409 397.73C499.313 391.758 498.495 385.573 500.164 379.65C500.213 379.47 500.327 379.257 500.507 379.274C500.622 379.29 500.703 379.405 500.769 379.503C502.683 382.824 504.598 386.162 505.956 389.729C506.61 391.447 507.134 393.231 507.723 394.965C508.59 397.485 509.621 399.955 510.815 402.328C511.29 400.414 511.028 398.417 510.831 396.454C510.128 389.565 510.062 382.595 510.651 375.69C510.717 374.987 510.848 374.169 511.486 373.841C514.758 380.73 516.754 388.224 517.36 395.832C518.505 393.607 519.765 391.447 521.139 389.369C522.301 387.618 523.708 386.211 524.837 384.379C527.504 380.059 530.286 375.805 533.182 371.616C533.574 371.06 534.163 370.422 534.801 370.651C533.82 375.739 532.511 380.779 530.891 385.72C530.089 388.191 529.206 390.629 528.257 393.051C527.373 395.276 525.966 397.567 525.393 399.857C526.702 400.07 528.093 399.006 529.238 398.516C530.678 397.894 532.036 397.288 533.558 396.847C537.387 395.767 541.264 394.9 545.191 394.278C545.469 394.229 545.797 394.212 545.977 394.425C546.222 394.703 546.009 395.145 545.78 395.456C543.571 398.336 540.692 400.724 537.452 402.377C535.194 403.522 532.642 404.831 530.253 405.617C529.484 405.862 525.917 407.187 525.41 406.844C528.388 408.84 541.853 406.729 545.289 407.613C545.486 407.662 545.682 407.727 545.797 407.891C546.026 408.251 545.666 408.693 545.338 408.971C542.77 411.082 540.168 413.225 537.158 414.6C534.867 415.647 532.413 416.236 529.975 416.874C527.668 417.479 524.657 418.036 522.743 419.524C523.135 420.375 524.837 420.768 525.672 421.03C530.187 422.388 534.932 422.928 539.645 422.601C540.692 422.535 541.739 422.421 542.77 422.519C543.113 422.552 543.522 422.666 543.62 422.993C543.67 423.173 543.604 423.37 543.522 423.55C542.082 426.707 538.614 428.393 535.62 429.669C533.656 430.503 531.807 431.878 529.926 432.876C527.995 433.89 526.032 434.872 524.035 435.772C523.888 435.838 523.725 435.919 523.675 436.083C523.61 436.345 523.921 436.525 524.166 436.623C528.911 438.243 534.131 437.834 539.006 436.656C540.021 436.41 541.052 436.132 542.066 436.279C542.279 436.312 542.508 436.377 542.622 436.557C542.704 436.705 542.704 436.885 542.688 437.048C542.524 438.308 541.559 439.29 540.594 440.108C538.057 442.301 535.194 444.133 532.135 445.524C528.944 446.964 525.557 447.406 522.154 448.175C520.943 448.387 517.605 449.009 518.571 450.825C519.29 452.167 525.655 452.838 527.161 453.23C528.191 453.492 529.435 454.032 529.435 455.096C529.435 456.028 528.437 456.601 527.57 456.961C520.583 459.939 513.597 462.917 506.61 465.878C507.052 467.335 508.983 467.596 510.504 467.564C513.727 467.498 516.967 467.449 520.19 467.384C520.779 468.316 519.814 469.445 518.881 470.034C514.562 472.767 509.277 473.29 504.303 474.468C500.573 475.352 496.76 476.792 494.011 479.557C491.197 482.388 489.594 485.987 486.943 488.916C485.814 490.176 484.522 491.289 483.491 492.63C482.918 493.383 479.859 497.114 479.057 494.577C478.681 493.383 481.904 490.602 482.493 489.653C485.602 484.678 487.761 478.657 489.676 473.143C491.475 467.989 492.964 462.704 493.668 457.288C494.322 452.331 493.766 447.962 491.672 443.413C490.985 441.875 490.314 440.304 489.692 438.701Z" fill="#00AD9F" fill-opacity="0.39"/>
<path d="M112.52 317.294C112.651 333.509 114.189 349.707 116.938 365.693C119.703 381.712 123.662 397.517 128.456 413.045C133.3 428.671 138.977 444.018 145.227 459.121C151.543 474.419 158.431 489.489 165.614 504.411C172.781 519.3 180.242 534.026 187.768 548.736C188.684 550.536 189.6 552.319 190.517 554.119C191.155 555.346 189.355 556.573 188.717 555.33C181.174 540.62 173.664 525.894 166.416 511.038C159.151 496.148 152.148 481.128 145.685 465.878C139.239 450.662 133.3 435.216 128.211 419.492C123.188 403.98 118.983 388.191 115.907 372.173C112.831 356.121 110.9 339.825 110.442 323.479C110.377 321.466 110.344 319.454 110.328 317.441C110.344 316.05 112.52 315.887 112.52 317.294Z" fill="#00AD9F"/>
<path d="M111.26 326.653C114.483 321.139 117.608 314.054 119.424 307.935C119.997 305.988 120.57 303.975 120.455 301.946C120.341 299.917 119.408 297.807 117.625 296.825C117.052 296.514 116.414 296.318 115.759 296.383C115.187 296.432 114.647 296.694 114.172 297.005C112.373 298.15 111.227 300.081 110.36 302.044C106.94 309.8 107.284 319.127 111.26 326.653Z" fill="#00AD9F"/>
<path d="M112.732 334.376C113.763 331.774 114.81 329.14 116.348 326.8C117.903 324.461 120.013 322.399 122.631 321.417C123.973 320.91 125.642 320.746 126.722 321.679C127.769 322.579 127.9 324.199 127.605 325.557C126.951 328.567 124.693 331.071 121.977 332.543C119.261 334 116.119 334.507 113.043 334.572" fill="#00AD9F"/>
<path d="M111.064 331.431C108.839 327.798 106.417 324.215 103.128 321.532C101.803 320.452 100.069 319.503 98.4816 320.108C97.2871 320.566 96.5345 321.859 96.4691 323.135C96.4036 324.412 96.9108 325.671 97.6307 326.735C99.1197 328.944 101.476 330.465 103.979 331.382C106.482 332.298 109.149 332.674 111.8 332.985" fill="#00AD9F"/>
<path d="M114.712 353.045C114.778 351.573 115.465 350.215 116.201 348.955C117.183 347.253 118.296 345.617 119.49 344.062C120.357 342.933 121.306 341.821 122.517 341.085C123.564 340.446 124.791 340.086 126.018 340.086C126.787 340.086 127.589 340.217 128.244 340.626C129.863 341.624 130.191 343.997 129.389 345.715C128.587 347.449 126.967 348.627 125.315 349.576C122.304 351.311 118.999 352.522 115.58 353.111" fill="#00AD9F"/>
<path d="M112.995 347.957C111.686 345.322 110.311 342.639 108.152 340.659C105.992 338.679 102.801 337.518 100.053 338.516C99.3162 338.794 98.5472 339.301 98.4327 340.086C98.3509 340.643 98.6127 341.183 98.8908 341.657C102.016 347.073 108.233 350.575 114.484 350.395" fill="#00AD9F"/>
<path d="M114.778 365.939C113.076 363.484 111.342 360.997 109.035 359.099C106.728 357.201 103.717 355.941 100.756 356.367C99.8558 356.498 98.9068 356.841 98.465 357.627C97.9251 358.559 98.3014 359.754 98.8577 360.67C100.298 363.026 102.834 364.548 105.484 365.317C108.135 366.086 110.933 366.184 113.682 366.282" fill="#00AD9F"/>
<path d="M117.461 370.52C118.476 367.968 119.867 365.579 121.568 363.435C122.779 361.93 124.17 360.506 125.92 359.705C127.671 358.903 129.831 358.772 131.483 359.787C131.991 360.097 132.449 360.539 132.596 361.096C132.678 361.455 132.645 361.815 132.58 362.175C132.416 363.206 132.105 364.27 131.467 365.088C130.813 365.922 129.847 366.446 128.898 366.92C125.315 368.688 121.47 369.915 117.527 370.553" fill="#00AD9F"/>
<path d="M118.999 385.639C116.97 382.432 114.107 379.748 110.753 377.948C108.658 376.836 106.237 376.034 103.946 376.639C102.932 376.901 101.917 377.539 101.606 378.537C101.394 379.241 101.557 379.994 101.836 380.681C102.539 382.432 103.963 383.806 105.599 384.739C107.235 385.671 109.084 386.162 110.933 386.489C113.812 387.013 116.757 387.144 119.67 386.882" fill="#00AD9F"/>
<path d="M121.813 389.434C121.944 388.731 122.223 388.06 122.517 387.406C123.597 384.902 124.71 382.366 126.526 380.321C128.325 378.276 130.976 376.787 133.676 377.065C134.772 377.163 135.966 377.703 136.261 378.75C136.392 379.208 136.326 379.683 136.228 380.141C135.59 383.021 133.332 385.328 130.747 386.735C128.146 388.142 125.217 388.764 122.337 389.385" fill="#00AD9F"/>
<path d="M126.133 406.975C126.149 404.013 127.344 401.199 128.522 398.466C128.849 397.697 129.209 396.912 129.781 396.306C130.305 395.75 130.992 395.39 131.696 395.096C132.972 394.572 134.412 394.278 135.737 394.654C138.044 395.308 139.451 398.172 138.551 400.413C138.044 401.673 136.964 402.622 135.868 403.44C133.152 405.469 130.092 407.024 126.869 408.022" fill="#00AD9F"/>
<path d="M125.724 407.678C123.122 404.308 118.116 399.89 114.614 397.468C113.305 396.568 111.816 395.783 110.213 395.75C108.609 395.701 106.908 396.568 106.384 398.074C105.992 399.203 106.319 400.479 106.859 401.542C108.053 403.931 110.295 405.764 112.88 406.467C115.383 407.138 118.05 406.762 120.603 407.171C122.321 407.449 124.039 408.071 125.724 407.678Z" fill="#00AD9F"/>
<path d="M133.234 427.477C134.052 423.73 134.87 419.966 136.31 416.416C136.85 415.09 137.504 413.765 138.584 412.832C139.664 411.9 141.251 411.409 142.56 411.998C144.164 412.702 144.802 414.681 144.72 416.432C144.605 419.312 143.067 421.979 141.006 424.008C138.961 426.02 136.424 427.476 133.888 428.818" fill="#00AD9F"/>
<path d="M166.317 511.234C167.135 507.487 167.954 503.724 169.393 500.173C169.933 498.848 170.588 497.523 171.668 496.59C172.748 495.657 174.335 495.167 175.644 495.756C177.247 496.459 177.885 498.439 177.803 500.19C177.689 503.069 176.151 505.736 174.089 507.765C172.044 509.778 169.508 511.234 166.972 512.576" fill="#00AD9F"/>
<path d="M159.544 494.152C160.362 490.405 161.18 486.642 162.62 483.091C163.16 481.766 163.814 480.44 164.894 479.508C165.974 478.575 167.561 478.084 168.87 478.673C170.474 479.377 171.112 481.357 171.03 483.107C170.915 485.987 169.377 488.654 167.316 490.683C165.271 492.696 162.734 494.152 160.198 495.493" fill="#00AD9F"/>
<path d="M133.169 432.123C129.913 427.689 125.495 423.779 120.128 422.617C118.77 422.323 117.347 422.208 116.022 422.601C114.696 422.993 113.485 423.942 113.044 425.251C112.569 426.691 113.109 428.295 113.976 429.522C115.94 432.287 119.441 433.58 122.812 433.891C126.182 434.185 129.585 433.645 132.972 433.498" fill="#00AD9F"/>
<path d="M167.25 509.581C163.994 505.147 159.577 501.237 154.21 500.075C152.852 499.781 151.428 499.666 150.103 500.059C148.778 500.451 147.567 501.4 147.125 502.709C146.651 504.149 147.191 505.753 148.058 506.98C150.021 509.745 153.523 511.038 156.893 511.349C160.264 511.659 163.667 511.103 167.054 510.956" fill="#00AD9F"/>
<path d="M159.544 493.007C156.288 488.573 151.87 484.662 146.503 483.5C145.145 483.206 143.722 483.091 142.397 483.484C141.071 483.877 139.86 484.826 139.419 486.135C138.944 487.575 139.484 489.178 140.351 490.405C142.315 493.17 145.816 494.463 149.187 494.774C152.557 495.068 155.944 494.528 159.347 494.381" fill="#00AD9F"/>
<path d="M141.562 452.216C141.742 447.667 142.707 443.168 144.409 438.946C145.194 436.983 146.225 434.987 147.992 433.841C149.759 432.696 152.459 432.729 153.702 434.447C154.439 435.461 154.521 436.836 154.341 438.096C153.899 441.188 152.066 443.97 149.776 446.097C147.485 448.224 144.72 449.778 141.971 451.267" fill="#00AD9F"/>
<path d="M142.527 455.636C139.026 452.216 135.328 448.698 130.665 447.226C128.391 446.506 125.969 446.309 123.58 446.326C121.944 446.342 119.997 446.62 119.228 448.076C118.754 448.96 118.885 450.073 119.228 451.022C119.964 453.018 121.584 454.621 123.482 455.587C125.38 456.552 127.524 456.961 129.651 457.076C133.561 457.288 137.455 456.585 141.3 455.865" fill="#00AD9F"/>
<path d="M150.659 472.554C151.248 469.903 152.59 465.649 153.244 463.015C153.899 460.381 154.913 457.779 156.664 455.717C157.547 454.67 158.791 453.721 160.165 453.836C161.867 453.999 162.98 455.734 163.34 457.386C164.092 460.822 162.701 464.471 160.362 467.089C158.022 469.707 154.831 471.425 151.575 472.734" fill="#00AD9F"/>
<path d="M151.052 475.794C148.483 473.356 147.37 470.574 144.442 468.594C141.513 466.615 138.191 465.109 134.674 464.766C133.594 464.668 132.481 464.668 131.45 465.011C130.42 465.355 129.471 466.075 129.045 467.073C128.734 467.793 128.718 468.611 128.865 469.38C129.16 470.967 130.174 472.374 131.434 473.372C132.71 474.37 134.232 475.008 135.786 475.434C140.728 476.792 145.963 476.301 151.052 475.794Z" fill="#00AD9F"/>
<path d="M46.8929 434.251C58.1171 446.571 70.4048 457.894 83.4779 468.235C90.5625 473.831 97.8599 479.148 105.354 484.204C109.1 486.724 112.88 489.195 116.692 491.6C118.083 492.467 126.526 496.476 125.348 498.308C124.219 500.075 117.723 494.872 116.316 494.005C112.978 491.911 109.673 489.784 106.401 487.607C99.856 483.239 93.4258 478.69 87.1593 473.929C73.7753 463.768 61.1441 452.625 49.5599 440.435C48.1364 438.93 46.7293 437.425 45.3386 435.903C44.3732 434.807 45.9276 433.187 46.8929 434.251Z" fill="#00AD9F"/>
<path d="M52.3415 442.284C51.0162 435.854 48.5455 428.278 45.7477 422.355C44.8478 420.457 43.9151 418.543 42.4262 417.054C40.9373 415.581 38.7775 414.616 36.7487 415.09C36.0942 415.238 35.4725 415.548 35.0307 416.039C34.638 416.481 34.3926 417.037 34.2453 417.594C33.6563 419.704 34.0981 421.979 34.7853 424.057C37.485 432.352 44.1442 439.257 52.3415 442.284Z" fill="#00AD9F"/>
<path d="M58.7882 447.176C57.7901 444.477 56.7757 441.744 56.3667 438.897C55.9413 436.05 56.154 433.023 57.4629 430.471C58.1337 429.162 59.2954 427.885 60.768 427.869C62.1915 427.836 63.3859 428.982 64.0894 430.225C65.6601 432.974 65.6602 436.443 64.5803 439.421C63.5004 442.399 61.4552 444.935 59.1318 447.095" fill="#00AD9F"/>
<path d="M55.4829 446.08C51.2943 444.837 46.9748 443.757 42.6225 443.953C40.8718 444.035 38.8757 444.493 38.0903 446.047C37.4849 447.226 37.7958 448.715 38.6303 449.745C39.4483 450.776 40.7082 451.382 41.9844 451.709C44.635 452.38 47.482 451.922 50.0344 450.907C52.5869 449.893 54.8775 448.355 57.1191 446.767" fill="#00AD9F"/>
<path d="M73.1044 460.103C72.139 458.941 71.73 457.419 71.4355 455.947C71.0264 453.967 70.7319 451.954 70.5847 449.942C70.4701 448.485 70.4374 446.98 70.8464 445.589C71.2064 444.379 71.91 443.266 72.8426 442.431C73.4316 441.908 74.1352 441.466 74.9205 441.319C76.8512 440.975 78.7165 442.562 79.2891 444.428C79.8618 446.293 79.4364 448.322 78.831 450.187C77.7184 453.574 76.0168 456.765 73.8243 459.579" fill="#00AD9F"/>
<path d="M68.3107 457.387C65.4965 456.274 62.6168 455.161 59.5899 455.129C56.5629 455.096 53.3397 456.388 51.9162 459.055C51.5399 459.775 51.3108 460.692 51.7526 461.362C52.0634 461.837 52.6361 462.066 53.1761 462.246C59.279 464.259 66.4291 462.655 71.1086 458.237" fill="#00AD9F"/>
<path d="M82.0053 469.92C79.0111 469.216 75.9842 468.496 72.9082 468.627C69.8322 468.758 66.6743 469.854 64.7109 472.21C64.1219 472.93 63.6147 473.847 63.811 474.747C64.0401 475.826 65.1363 476.481 66.1998 476.808C68.9159 477.626 71.8937 477.054 74.4625 475.81C77.0313 474.567 79.2238 472.734 81.3999 470.918" fill="#00AD9F"/>
<path d="M87.1922 471.589C86.2105 468.938 85.6379 466.156 85.4742 463.342C85.3597 461.362 85.4579 459.317 86.2432 457.501C87.0286 455.685 88.5993 454.098 90.5464 453.754C91.1354 453.639 91.7899 453.656 92.2971 453.999C92.608 454.212 92.8207 454.523 93.0334 454.85C93.6224 455.766 94.1132 456.765 94.1787 457.844C94.2441 458.941 93.8678 460.004 93.4751 461.002C91.9535 464.815 89.8428 468.398 87.274 471.589" fill="#00AD9F"/>
<path d="M98.7437 482.093C94.9968 481.029 90.9555 480.948 87.1595 481.864C84.8034 482.437 82.3982 483.5 81.0566 485.529C80.4676 486.429 80.1076 487.607 80.5657 488.589C80.8766 489.276 81.5311 489.75 82.2019 490.078C83.9363 490.928 85.9815 491.01 87.8631 490.601C89.7447 490.192 91.5118 489.309 93.1479 488.294C95.7004 486.707 98.0565 484.793 100.102 482.584" fill="#00AD9F"/>
<path d="M103.505 483.075C103.112 482.453 102.883 481.733 102.637 481.046C101.754 478.395 100.854 475.679 100.838 472.881C100.821 470.083 101.819 467.138 104.077 465.469C104.977 464.799 106.253 464.389 107.202 464.978C107.611 465.24 107.906 465.649 108.135 466.058C109.624 468.693 109.493 472.014 108.462 474.878C107.448 477.741 105.632 480.228 103.848 482.682" fill="#00AD9F"/>
<path d="M118.852 493.514C116.823 491.24 115.809 488.262 114.844 485.366C114.565 484.548 114.287 483.713 114.32 482.846C114.353 482.061 114.615 481.308 114.958 480.604C115.58 479.328 116.48 478.117 117.756 477.495C119.965 476.399 123.008 477.643 123.859 479.966C124.333 481.291 124.153 482.748 123.875 484.122C123.188 487.525 121.912 490.814 120.128 493.808" fill="#00AD9F"/>
<path d="M119.016 494.332C114.713 493.547 107.857 493.596 103.505 494.152C101.869 494.365 100.2 494.79 98.9564 495.854C97.6965 496.917 96.993 498.75 97.6311 500.255C98.1056 501.384 99.2345 502.137 100.38 502.579C102.932 503.593 105.91 503.446 108.364 502.202C110.737 500.991 112.52 498.881 114.745 497.441C116.251 496.492 118.001 495.788 119.016 494.332Z" fill="#00AD9F"/>
<g opacity="0.1849">
<path opacity="0.1849" d="M590.71 129.424C590.628 130.504 590.53 131.568 590.416 132.664C590.007 136.82 589.418 140.96 588.632 145.017C587.029 153.149 584.542 161.069 580.795 168.35C576.165 177.382 560.932 198.898 549.2 194.071C546.337 192.909 544.259 190.308 542.296 187.804C523.234 163.507 505.351 145.688 475.343 138.325C451.684 132.517 426.814 134.218 402.779 131.65C396.676 130.995 390.606 130.128 384.535 129.244C363.56 126.234 342.584 123.19 321.608 120.18C320.266 119.983 318.892 119.771 317.73 119.149C317.37 118.953 317.027 118.724 316.716 118.429C313.82 115.778 315.685 111.017 318.008 107.875C322.917 101.2 331.294 95.8984 341.046 92.0042C343.271 91.1043 345.562 90.3026 347.918 89.5663C363.739 84.5267 381.787 82.8087 394.581 84.3958L394.86 83.6923C394.99 82.6942 395.072 81.6961 395.138 80.7144C395.53 74.5295 394.909 68.2464 393.207 62.3397C392.765 60.7853 392.356 57.6274 390.262 58.4128C383.815 60.8344 377.385 63.2233 370.955 65.6449C364.116 68.2137 361.645 77.1311 355.15 79.4218C352.335 80.4198 349.816 79.2745 347.1 78.4891C343.484 77.4256 340.113 77.3765 336.448 76.722C332.456 76.0184 324.177 72.0097 324.406 67.4938C324.586 63.9105 329.838 57.5783 331.687 54.5677C336.252 47.0902 341.717 37.7965 349.554 33.5915C353.415 31.5299 366.456 24.9523 370.53 23.3161C383.259 18.2111 394.958 15.4132 404.448 13.8424C417.112 11.7481 425.882 11.879 428.123 11.7644C431.003 11.6172 450.457 20.2564 456.691 24.2814C464.97 29.5991 491.329 52.4897 497.072 57.6274C503.175 63.1087 510.014 67.7392 516.82 72.3697C526.228 78.7345 535.685 85.034 545.012 91.497C557.725 100.3 571.338 107.663 583.707 116.891C588.714 120.687 591.25 122.356 590.71 129.424Z" fill="#00AD9F" fill-opacity="0.89"/>
</g>
<path d="M376.092 81.9742C382.85 75.8548 390.425 70.6516 398.557 66.512C397.477 61.1616 395.694 55.9584 393.305 51.0498C392.569 49.5445 391.718 48.0065 390.393 46.992C387.284 44.6031 382.833 45.7648 379.185 47.172C373.229 49.479 367.453 52.1952 361.89 55.3203C356.687 58.2491 351.648 61.587 347.263 65.6448C344.58 68.1318 336.186 75.7239 338.542 79.5199C340.391 82.4978 342.24 85.492 344.105 88.47C345.381 90.5316 352.106 87.4555 354.184 86.9319C358.863 85.7538 363.543 84.5594 368.222 83.3813" fill="#00AD9F"/>
<path d="M593.688 115.353C593.639 116.4 593.573 117.431 593.491 118.478C593.213 122.487 592.755 126.496 592.084 130.439C590.726 138.325 588.452 146.032 584.869 153.166C580.435 162.018 565.578 183.223 553.405 178.969C550.427 177.938 548.218 175.5 546.124 173.16C525.77 150.368 506.839 133.793 475.85 127.674C451.422 122.847 426.012 125.285 401.306 123.599C395.039 123.174 388.789 122.536 382.539 121.881C360.958 119.656 339.36 117.415 317.779 115.189C316.405 115.042 314.981 114.878 313.77 114.322C313.394 114.142 313.034 113.929 312.707 113.668C309.647 111.213 311.398 106.566 313.672 103.458C318.466 96.8638 326.86 91.497 336.726 87.4228C338.967 86.4902 341.291 85.6394 343.68 84.854C359.714 79.4872 378.138 77.2456 391.292 78.3582L391.554 77.671C391.652 76.7057 391.701 75.7403 391.734 74.7913C391.931 68.8191 391.063 62.7979 389.116 57.1529C388.609 55.664 388.086 52.637 385.958 53.4715C379.446 56.0076 372.935 58.5274 366.439 61.0635C361.367 63.0433 358.356 67.3465 354.937 71.5025C351.811 75.2985 348.67 79.0945 345.545 82.8905C344.547 84.1177 342.927 85.4594 341.585 84.6413C341.078 84.3468 340.784 83.8232 340.456 83.3323C340.129 82.8578 339.769 82.416 339.376 82.0233C335.237 77.8183 327.776 78.1292 322.671 80.1253C317.223 82.2688 312.592 86.0157 308.093 89.779C308.6 83.8068 311.283 79.1436 313.999 73.9732C316.944 68.3937 330.852 37.7638 343.418 30.8918C347.296 28.781 360.434 22.0235 364.541 20.3218C377.401 14.9878 389.28 11.9117 398.95 10.0955C411.843 7.67393 420.842 7.51031 423.132 7.33032C426.078 7.10125 446.301 14.7914 452.813 18.4566C461.468 23.3161 489.267 44.505 495.321 49.2664C501.767 54.355 508.917 58.5928 516.051 62.8306C525.901 68.6555 535.8 74.415 545.584 80.338C558.903 88.4046 573.105 95.0476 586.096 103.54C591.348 106.992 593.999 108.53 593.688 115.353Z" fill="#27DEBF"/>
<g opacity="0.2466">
<g opacity="0.2466">
<path d="M592.084 130.439C590.726 138.325 588.452 146.032 584.869 153.166C580.435 162.018 565.578 183.223 553.405 178.969C550.427 177.938 548.219 175.5 546.124 173.16C525.77 150.368 506.84 133.793 475.85 127.674C451.422 122.847 426.012 125.285 401.306 123.6C395.039 123.174 388.789 122.536 382.539 121.881C360.958 119.656 339.36 117.415 317.779 115.189C316.405 115.042 314.981 114.879 313.771 114.322C355.837 103.294 448.641 105.896 458.032 106.223C474.263 106.779 489.611 110.003 503.502 118.396C517.409 126.79 530.171 136.951 543.981 145.459C548.578 148.29 553.552 151.006 558.935 151.17C565.317 151.366 571.24 147.963 576.41 144.232C582.055 140.142 587.307 135.511 592.084 130.439Z" fill="#0F4D42" style="mix-blend-mode:multiply"/>
</g>
</g>
<g opacity="0.3">
<g opacity="0.3">
<path opacity="0.3" d="M372.967 43.2125C373.622 47.8266 375.585 52.1625 378.547 55.7622C379.218 56.5803 380.363 55.4186 379.708 54.6005C376.927 51.2135 375.16 47.1067 374.555 42.7707C374.489 42.3289 373.933 42.0999 373.54 42.198C373.066 42.3289 372.902 42.7707 372.967 43.2125Z" fill="#27DEBF"/>
</g>
</g>
<g opacity="0.3">
<g opacity="0.3">
<path opacity="0.3" d="M352.564 56.9074C354.74 60.3108 357.522 63.9922 361.923 64.2213C362.97 64.2704 362.97 62.6342 361.923 62.5851C358.176 62.4051 355.804 58.9527 353.971 56.0893C353.415 55.2058 351.991 56.0239 352.564 56.9074Z" fill="#27DEBF"/>
</g>
</g>
<g opacity="0.2466">
<path opacity="0.2466" d="M394.319 70.8808C393.746 72.3371 392.928 73.8424 391.734 74.7914C391.93 68.8192 391.063 62.798 389.116 57.153C388.609 55.6641 388.085 52.6371 385.958 53.4716C379.446 56.0077 372.934 58.5274 366.438 61.0636C361.366 63.0434 358.356 67.3466 354.936 71.5026C351.811 75.2986 348.669 79.0946 345.544 82.8906C344.546 84.1178 342.926 85.4595 341.585 84.6414C341.078 84.3468 340.783 83.8233 340.456 83.3324C340.129 82.8579 339.769 82.4161 339.376 82.0234C341.977 76.7385 344.563 71.4535 347.164 66.1685C348.62 63.207 350.126 60.18 352.351 57.7421C356.883 52.768 363.788 50.8536 370.365 49.4465C376.288 48.1702 382.277 47.1558 388.281 46.3704C389.983 46.1577 391.897 46.0104 393.19 47.1231C393.91 47.7448 394.302 48.6447 394.63 49.5447C397.133 56.3677 397.019 64.1233 394.319 70.8808Z" fill="#27DEBF"/>
</g>
<path d="M186.017 541.438C183.825 539.72 181.158 533.094 180.389 530.754C179.08 526.762 178.098 522.704 177.346 518.63C176.266 512.723 175.824 506.244 180.045 501.269C182.516 498.341 186.983 496.148 191.4 496.819C196.096 497.539 199.14 501.122 200.759 504.624C206.175 516.339 201.512 529.658 192.889 540.146" fill="white"/>
<path d="M186.933 543.14C185.673 536.562 182.777 530.165 178.474 524.422C176.462 521.722 174.057 519.12 170.735 517.353C167.414 515.603 163.029 514.834 159.331 516.012C154.635 517.501 152.148 521.804 152.541 525.731C152.95 529.658 155.715 533.225 159.004 536.235C165.041 541.717 173.484 545.922 182.728 546.429" fill="white"/>
<path d="M186.934 546.314C182.107 542.633 169.197 540.653 162.44 540.866C158.595 540.98 154.717 541.602 151.396 543.124C148.091 544.646 145.407 547.149 144.704 550.094C143.591 554.741 147.796 559.502 153.408 561.319C159.02 563.135 165.549 562.415 171.079 560.468C176.609 558.521 181.354 555.445 186.001 552.418" fill="white"/>
<path d="M182.516 552.319C175.939 556.77 173.108 563.495 172.372 570.007C172.093 572.428 172.093 574.932 173.337 577.173C175.889 581.771 184.119 584.193 190.37 582.164C197.176 579.955 200.007 573.835 199.581 568.436C199.156 563.02 192.366 553.923 191.09 548.572" fill="white"/>
<path d="M192.66 546.429C191.335 547.247 189.715 549.096 189.682 550.634C189.649 552.205 191.351 553.743 192.382 554.97C194.967 558.013 197.978 560.746 201.332 563.086C204.375 565.213 207.746 567.045 211.443 568.011C217.383 569.581 226.153 568.289 230.357 563.756C232.206 561.76 233.008 559.257 233.074 556.803C233.106 555.281 232.861 553.743 232.01 552.385C230.537 550.061 227.478 548.622 224.418 547.607C214.634 544.351 203.181 544.253 193.298 547.313" fill="white"/>
<path d="M186.934 546.314C189.928 534.779 193.331 522.606 203.688 514.032C206.42 511.774 209.922 509.729 213.898 509.729C216.516 509.729 219.003 510.629 221.261 511.643C224.075 512.903 226.807 514.474 228.329 516.699C229.605 518.548 229.932 520.74 229.703 522.835C228.934 529.772 222.455 535.515 215.501 539.884C208.466 544.302 200.596 547.885 192.202 550.503" fill="white"/>
<path d="M186.655 538.51C182.434 537.822 179.489 539.426 178.458 541.798C177.427 544.171 178.049 546.952 179.849 548.965C181.42 550.732 183.907 551.943 186.525 552.074C189.142 552.205 191.842 551.207 193.38 549.407C195.098 547.394 195.196 544.547 193.789 542.371C192.382 540.195 189.584 538.739 186.655 538.51Z" fill="#FFAC48"/>
<path d="M133.103 426.38C131.794 423.484 133.021 415.467 133.643 412.718C134.69 408.038 136.114 403.49 137.815 399.039C140.269 392.592 143.771 385.933 151.346 383.282C155.78 381.728 161.9 381.973 166.219 385.033C170.8 388.289 171.848 393.492 171.439 397.861C170.048 412.423 156.893 423.091 141.251 428.802" fill="white"/>
<path d="M133.038 428.556C135.721 421.341 136.555 413.438 135.476 405.388C134.968 401.624 134.003 397.714 131.532 394.18C129.062 390.645 124.84 387.487 120.161 386.637C114.222 385.557 108.92 388.469 106.941 392.592C104.961 396.716 105.73 401.755 107.431 406.517C110.524 415.238 116.97 423.991 126.542 429.538" fill="white"/>
<path d="M131.091 431.714C128.195 425.448 115.596 416.448 108.25 412.996C104.061 411.033 99.5288 409.527 95.062 409.233C90.5952 408.938 86.1939 409.969 83.6251 412.505C79.5837 416.514 81.1708 423.517 86.063 428.36C90.9552 433.203 98.3671 436.05 105.484 437.13C112.602 438.21 119.539 437.735 126.378 437.261" fill="white"/>
<path d="M122.681 435.281C112.913 436.116 105.779 441.253 100.985 447.307C99.2179 449.549 97.6635 452.036 97.6144 454.932C97.5326 460.888 104.846 467.76 112.749 469.134C121.388 470.64 128.146 466.108 131.009 460.512C133.872 454.916 132.187 442.186 134.101 436.198" fill="white"/>
<path d="M137.128 434.938C135.214 435.036 132.35 435.985 131.369 437.49C130.371 439.028 131.238 441.482 131.598 443.266C132.498 447.684 134.052 452.036 136.195 456.175C138.142 459.955 140.629 463.588 143.984 466.565C149.367 471.343 159.544 474.828 166.808 472.619C170.015 471.654 172.404 469.609 173.975 467.204C174.94 465.715 175.627 464.046 175.546 462.229C175.382 459.121 172.993 456.028 170.343 453.361C161.867 444.82 149.694 438.488 137.243 436.148" fill="white"/>
<path d="M131.091 431.714C141.366 421.897 152.459 411.671 168.788 408.807C173.092 408.055 178.082 407.924 182.336 410.1C185.134 411.523 187.244 413.765 189.028 416.007C191.253 418.788 193.216 421.832 193.478 424.875C193.707 427.411 192.709 429.751 191.188 431.698C186.115 438.161 175.677 440.321 165.549 440.877C155.323 441.433 144.704 440.697 134.134 438.734" fill="white"/>
<path d="M135.574 423.828C131.483 420.85 127.344 420.833 124.791 422.633C122.239 424.433 121.192 427.525 121.879 430.503C122.484 433.121 124.399 435.657 127.115 437.212C129.831 438.766 133.332 439.241 136.081 438.292C139.141 437.228 141.006 434.447 140.842 431.534C140.662 428.589 138.568 425.644 135.574 423.828Z" fill="#FFAC48"/>
<path d="M118.361 520.381C120.112 522.393 121.061 529.151 121.241 531.507C121.536 535.516 121.487 539.541 121.192 543.533C120.767 549.325 119.572 555.526 114.124 559.486C110.933 561.809 105.943 563.086 101.721 561.662C97.2384 560.14 95.1277 556.214 94.4078 552.598C92.0026 540.539 100.004 528.758 111.211 520.381" fill="white"/>
<path d="M117.887 518.597C117.478 525.06 118.722 531.621 121.536 537.839C122.861 540.751 124.579 543.647 127.426 545.905C130.273 548.163 134.429 549.669 138.405 549.227C143.444 548.654 147.011 545.038 147.6 541.242C148.189 537.446 146.357 533.568 143.837 530.149C139.239 523.882 131.926 518.384 122.877 516.241" fill="white"/>
<path d="M118.688 515.603C122.533 519.955 134.854 524.144 141.611 525.142C145.456 525.715 149.465 525.829 153.13 524.978C156.795 524.128 160.1 522.23 161.54 519.579C163.831 515.374 160.853 510.122 155.748 507.405C150.643 504.689 143.967 504.199 137.995 505.049C132.007 505.9 126.542 507.962 121.143 510.007" fill="white"/>
<path d="M124.595 510.694C132.252 507.651 136.752 501.793 139.141 495.756C140.024 493.514 140.662 491.142 140.008 488.802C138.634 483.991 131.074 480.228 124.382 481.03C117.069 481.913 112.717 487.182 111.768 492.385C110.819 497.588 115.253 507.422 115.154 512.707" fill="white"/>
<path d="M113.044 514.457C114.565 513.918 116.643 512.461 117.052 511.005C117.478 509.532 116.185 507.765 115.465 506.424C113.665 503.086 111.375 499.961 108.642 497.146C106.155 494.577 103.276 492.254 99.8561 490.667C94.3585 488.114 85.3268 487.787 80.0092 491.321C77.6695 492.876 76.2296 495.101 75.5588 497.424C75.1334 498.848 74.9861 500.37 75.4934 501.81C76.3769 504.264 79.0439 506.178 81.8254 507.684C90.7098 512.51 102.049 514.67 112.635 513.525" fill="white"/>
<path d="M118.689 515.603C112.798 525.993 106.335 536.906 93.8841 543.173C90.6117 544.826 86.6194 546.135 82.6599 545.415C80.0584 544.94 77.8332 543.648 75.837 542.273C73.3664 540.572 71.0594 538.592 70.1104 536.219C69.325 534.239 69.5377 532.112 70.3068 530.165C72.8265 523.735 80.7128 519.464 88.7301 516.568C96.8292 513.656 105.55 511.66 114.533 510.694" fill="white"/>
<path d="M116.987 523.031C120.996 524.438 124.333 523.44 125.953 521.379C127.573 519.317 127.671 516.568 126.395 514.343C125.282 512.38 123.123 510.792 120.554 510.203C117.985 509.614 115.056 510.072 113.076 511.512C110.868 513.116 110.033 515.799 110.884 518.106C111.735 520.413 114.14 522.295 116.987 523.031Z" fill="#FFAC48"/>
<path d="M519.062 475.794C520.812 477.806 521.761 484.564 521.941 486.92C522.236 490.929 522.187 494.954 521.892 498.946C521.467 504.738 520.272 510.94 514.824 514.899C511.633 517.223 506.643 518.499 502.422 517.075C497.939 515.554 495.828 511.627 495.108 508.011C492.703 495.952 500.704 484.171 511.912 475.794" fill="white"/>
<path d="M518.587 474.027C518.178 480.49 519.422 487.051 522.236 493.268C523.561 496.181 525.279 499.077 528.126 501.335C530.973 503.593 535.129 505.098 539.105 504.656C544.144 504.084 547.711 500.468 548.3 496.672C548.889 492.876 547.057 488.998 544.537 485.578C539.939 479.312 532.626 473.814 523.578 471.67" fill="white"/>
<path d="M519.389 471.016C523.234 475.369 535.554 479.557 542.312 480.555C546.157 481.128 550.165 481.243 553.83 480.392C557.495 479.541 560.8 477.643 562.24 474.992C564.531 470.787 561.553 465.535 556.448 462.819C551.343 460.103 544.668 459.612 538.696 460.463C532.707 461.314 527.242 463.375 521.843 465.42" fill="white"/>
<path d="M525.295 466.124C532.953 463.081 537.452 457.223 539.841 451.185C540.725 448.944 541.363 446.571 540.708 444.231C539.334 439.421 531.775 435.658 525.083 436.459C517.769 437.343 513.417 442.612 512.468 447.815C511.519 453.018 515.953 462.851 515.855 468.136" fill="white"/>
<path d="M513.744 469.887C515.266 469.347 517.344 467.891 517.753 466.435C518.178 464.962 516.886 463.195 516.166 461.853C514.366 458.515 512.075 455.39 509.343 452.576C506.856 450.007 503.976 447.684 500.557 446.097C495.059 443.544 486.027 443.217 480.71 446.751C478.37 448.305 476.93 450.531 476.243 452.854C475.817 454.278 475.67 455.799 476.177 457.239C477.061 459.694 479.728 461.608 482.509 463.113C491.394 467.94 502.733 470.1 513.319 468.954" fill="white"/>
<path d="M519.389 471.016C513.498 481.406 507.036 492.32 494.584 498.586C491.312 500.239 487.32 501.548 483.36 500.828C480.759 500.353 478.533 499.061 476.537 497.686C474.067 495.985 471.76 494.005 470.811 491.632C470.025 489.653 470.238 487.525 471.007 485.578C473.527 479.148 481.413 474.878 489.43 471.981C497.529 469.069 506.25 467.073 515.233 466.107" fill="white"/>
<path d="M517.671 478.461C521.679 479.868 525.017 478.87 526.637 476.808C528.257 474.747 528.355 471.998 527.079 469.773C525.966 467.809 523.806 466.222 521.237 465.633C518.669 465.044 515.74 465.502 513.76 466.942C511.551 468.546 510.717 471.229 511.568 473.536C512.435 475.843 514.84 477.708 517.671 478.461Z" fill="#FFAC48"/>
<g opacity="0.197">
<path opacity="0.197" d="M593.688 115.353C593.639 116.4 593.573 117.431 593.491 118.478C592.624 117.856 591.741 117.267 590.873 116.678C585.67 113.193 580.336 109.888 575.002 106.583C534.589 81.5161 494.175 56.4657 453.762 31.399C443.421 25.0014 432.999 18.5384 421.513 14.546C414.248 12.0099 406.64 10.5209 398.95 10.0955C411.843 7.67393 420.842 7.51031 423.132 7.33032C426.078 7.10125 446.301 14.7914 452.813 18.4566C461.468 23.3161 489.267 44.505 495.321 49.2664C501.767 54.355 508.917 58.5928 516.051 62.8306C525.901 68.6555 535.8 74.415 545.584 80.3381C558.903 88.4046 573.105 95.0476 586.096 103.54C591.348 106.992 593.999 108.53 593.688 115.353Z" fill="#27DEBF"/>
</g>
<path d="M87.6337 290.067C87.6337 293.536 84.8195 296.367 81.3344 296.367C77.8657 296.367 75.0352 293.553 75.0352 290.067C75.0352 286.599 77.8494 283.768 81.3344 283.768C84.8031 283.768 87.6337 286.582 87.6337 290.067Z" fill="white"/>
<path d="M539.137 533.585C542.996 533.585 546.124 530.457 546.124 526.598C546.124 522.739 542.996 519.611 539.137 519.611C535.279 519.611 532.151 522.739 532.151 526.598C532.151 530.457 535.279 533.585 539.137 533.585Z" fill="#4ED3F5"/>
<path d="M151.903 330.433C155.192 330.433 157.859 327.766 157.859 324.477C157.859 321.188 155.192 318.521 151.903 318.521C148.614 318.521 145.947 321.188 145.947 324.477C145.947 327.766 148.614 330.433 151.903 330.433Z" fill="#FFC15B"/>
<path d="M599.659 226.713C602.949 226.713 605.615 224.047 605.615 220.758C605.615 217.468 602.949 214.802 599.659 214.802C596.37 214.802 593.704 217.468 593.704 220.758C593.704 224.047 596.37 226.713 599.659 226.713Z" fill="white"/>
<path d="M236.837 122.765C236.837 126.054 234.17 128.721 230.881 128.721C227.593 128.721 224.942 126.054 224.942 122.765C224.942 119.476 227.609 116.809 230.881 116.809C234.154 116.809 236.837 119.476 236.837 122.765Z" fill="#FFC15B"/>
<path d="M468.569 254.038C471.858 254.038 474.525 251.372 474.525 248.082C474.525 244.793 471.858 242.126 468.569 242.126C465.28 242.126 462.613 244.793 462.613 248.082C462.613 251.372 465.28 254.038 468.569 254.038Z" fill="#4ED3F5"/>
<path d="M79.5675 332.413C82.8567 332.413 85.5232 329.746 85.5232 326.457C85.5232 323.167 82.8567 320.501 79.5675 320.501C76.2783 320.501 73.6118 323.167 73.6118 326.457C73.6118 329.746 76.2783 332.413 79.5675 332.413Z" fill="#4ED3F5"/>
<path d="M478.484 222.279C480.807 222.279 482.689 220.397 482.689 218.074C482.689 215.752 480.807 213.869 478.484 213.869C476.162 213.869 474.279 215.752 474.279 218.074C474.279 220.397 476.162 222.279 478.484 222.279Z" fill="#FFC15B"/>
<path d="M4.20498 478.821C6.52732 478.821 8.40996 476.938 8.40996 474.616C8.40996 472.293 6.52732 470.411 4.20498 470.411C1.88263 470.411 0 472.293 0 474.616C0 476.938 1.88263 478.821 4.20498 478.821Z" fill="#FFC15B"/>
<path d="M67.8849 188.835C67.8849 191.453 65.7578 193.58 63.1399 193.58C60.5221 193.58 58.395 191.453 58.395 188.835C58.395 186.217 60.5221 184.09 63.1399 184.09C65.7578 184.09 67.8849 186.217 67.8849 188.835Z" fill="#4ED3F5"/>
<path d="M568.981 365.791C572.27 365.791 574.937 363.125 574.937 359.835C574.937 356.546 572.27 353.88 568.981 353.88C565.692 353.88 563.025 356.546 563.025 359.835C563.025 363.125 565.692 365.791 568.981 365.791Z" fill="#FFC15B"/>
</svg>
