<svg width="675" height="514" viewBox="0 0 675 514" fill="none" xmlns="http://www.w3.org/2000/svg">
<g clip-path="url(#clip0)">
<path d="M602.315 232.192C579.352 235.88 556.914 229.941 533.976 225.718C511.951 221.666 490.011 214.036 472.528 199.651C464.517 193.068 457.419 184.866 454.277 174.984C449.797 160.88 453.888 145.668 453.851 130.87C453.803 113.504 449.48 96.7711 437.415 83.9689C430.073 76.1805 421.539 69.3412 415.78 60.3115C403.775 41.4976 413.065 16.319 431.863 5.69514C448.981 -3.97955 470.775 -0.146183 488.55 8.23855C506.338 16.6355 521.947 29.1335 539.808 37.3722C559.385 46.4019 580.801 49.9432 602.4 51.9755C618.909 53.5332 635.735 51.6347 649.213 61.3094C658.856 68.2216 665.662 78.6143 669.631 89.798C677.118 110.961 675.621 135.835 672.163 157.679C669.85 172.319 665.199 186.801 656.701 198.946C646.279 213.853 630.342 224.587 612.907 229.783C609.352 230.842 605.821 231.633 602.315 232.192Z" fill="#FFE7C6"/>
<path d="M541.098 514H83.631C69.7148 501.331 54.1063 489.649 46.2047 472.575C38.303 455.501 38.3274 433.316 51.3182 419.699C66.9998 403.27 93.2249 405.509 115.274 400.082C140.708 393.815 163.841 373.394 167.103 347.413C171.304 313.874 143.204 283.219 144.957 249.461C146.333 222.846 168.942 198.933 195.447 196.037C213.369 194.078 231.948 200.637 249.261 195.623C265.308 190.962 276.874 177.357 290.827 168.157C307.19 157.363 328.083 152.665 346.954 158.032C365.813 163.399 381.775 179.706 384.32 199.14C387.022 219.804 375.773 243.279 387.704 260.377C396.592 273.106 414.319 275.564 429.842 275.065C445.365 274.566 461.924 272.485 475.572 279.909C488.258 286.809 495.807 301.084 497.219 315.456C498.632 329.828 494.626 344.248 488.709 357.416C483.534 368.928 476.875 379.808 472.979 391.807C469.083 403.806 468.279 417.594 474.622 428.497C481.294 439.985 494.236 445.948 504.792 454.017C523.408 468.291 539.698 490.574 541.098 514Z" fill="#FFC15B" fill-opacity="0.26"/>
<path d="M502.808 69.6333L529.228 136.784L585.525 105.022L502.808 69.6333Z" fill="#FAFAFA"/>
<path d="M502.808 69.6333L554.734 122.4L568.87 114.417L502.808 69.6333Z" fill="#D9D9D9"/>
<path d="M568.87 114.417L559.032 138.768L554.734 122.4L568.87 114.417Z" fill="#D9D9D9"/>
<path d="M559.032 138.768L546.881 126.83L554.734 122.4L559.032 138.768Z" fill="#B0B0B0"/>
<path d="M156.791 494.663C153.784 493.872 150.764 492.996 147.806 492.083L148.731 489.126C151.641 490.038 154.624 490.89 157.582 491.669L156.791 494.663ZM510.782 493.811C507.702 493.774 504.561 493.677 501.444 493.507L501.614 490.428C504.682 490.586 507.787 490.683 510.831 490.72L510.782 493.811ZM520.133 493.726L520.035 490.635C523.14 490.537 526.232 490.379 529.24 490.148L529.471 493.227C526.427 493.47 523.286 493.628 520.133 493.726ZM492.142 492.862C489.05 492.594 485.921 492.253 482.852 491.876L483.23 488.809C486.262 489.187 489.342 489.515 492.41 489.783L492.142 492.862ZM538.785 492.302L538.407 489.235C541.488 488.846 544.544 488.383 547.502 487.86L548.05 490.902C545.031 491.438 541.914 491.913 538.785 492.302ZM473.612 490.55C470.556 490.051 467.463 489.491 464.419 488.882L465.028 485.852C468.023 486.461 471.079 487.008 474.099 487.507L473.612 490.55ZM138.954 489.101C136.057 488.055 133.123 486.923 130.237 485.73L131.418 482.871C134.255 484.039 137.153 485.158 140.014 486.193L138.954 489.101ZM557.218 489.004L556.5 485.998C559.507 485.292 562.49 484.477 565.375 483.613L566.276 486.57C563.33 487.458 560.286 488.286 557.218 489.004ZM455.3 486.85C452.256 486.108 449.225 485.305 446.266 484.465L447.119 481.496C450.028 482.335 453.036 483.126 456.031 483.856L455.3 486.85ZM575.164 483.552L574.068 480.656C576.966 479.561 579.803 478.368 582.518 477.115L583.821 479.926C581.033 481.216 578.123 482.433 575.164 483.552ZM121.678 481.97C118.866 480.668 116.041 479.281 113.289 477.857L114.714 475.107C117.429 476.506 120.205 477.869 122.981 479.159L121.678 481.97ZM437.342 481.69C434.359 480.692 431.4 479.634 428.539 478.55L429.647 475.666C432.46 476.749 435.382 477.784 438.316 478.77L437.342 481.69ZM592.185 475.654L590.675 472.953C593.354 471.456 595.971 469.837 598.455 468.158L600.184 470.726C597.627 472.454 594.937 474.109 592.185 475.654ZM419.883 475.009C417.009 473.756 414.161 472.429 411.397 471.078L412.76 468.304C415.475 469.642 418.288 470.945 421.113 472.186L419.883 475.009ZM105.071 473.391C102.38 471.845 99.6776 470.227 97.0599 468.572L98.7158 465.955C101.297 467.586 103.951 469.18 106.617 470.701L105.071 473.391ZM403.118 466.734C400.378 465.213 397.663 463.606 395.058 461.976L396.701 459.359C399.258 460.954 401.925 462.536 404.627 464.032L403.118 466.734ZM607.745 465.115L605.797 462.718C607.331 461.477 608.84 460.175 610.277 458.86C611.068 458.142 611.836 457.4 612.603 456.646L614.782 458.836C613.991 459.615 613.187 460.382 612.359 461.136C610.874 462.499 609.327 463.838 607.745 465.115ZM89.2679 463.436C86.7111 461.672 84.1543 459.834 81.695 457.972L83.5577 455.502C85.9928 457.339 88.5008 459.152 91.0333 460.893L89.2679 463.436ZM387.254 456.816L386.06 455.976C383.918 454.455 381.799 452.861 379.729 451.23L381.641 448.796C383.662 450.39 385.756 451.96 387.85 453.457L389.019 454.285L387.254 456.816ZM74.3412 452.191C71.9427 450.22 69.5564 448.176 67.2431 446.107L69.3007 443.807C71.5774 445.839 73.9272 447.859 76.3014 449.806L74.3412 452.191ZM621.101 451.826L618.69 449.892C620.565 447.555 622.355 445.072 624.023 442.505L626.628 444.184C624.912 446.837 623.049 449.417 621.101 451.826ZM372.546 445.231C370.208 443.174 367.907 441.02 365.704 438.829L367.883 436.639C370.05 438.781 372.303 440.898 374.591 442.918L372.546 445.231ZM60.4129 439.742C58.1848 437.576 55.969 435.337 53.8505 433.086L56.1029 430.956C58.197 433.171 60.3763 435.373 62.5679 437.515L60.4129 439.742ZM631.316 435.994L628.552 434.595C629.916 431.893 631.17 429.094 632.265 426.271L635.151 427.39C634.031 430.299 632.728 433.195 631.316 435.994ZM359.239 432.051C357.145 429.727 355.111 427.329 353.175 424.908L355.586 422.973C357.485 425.346 359.482 427.694 361.528 429.97L359.239 432.051ZM47.5803 426.161C45.5471 423.812 43.5382 421.403 41.6023 418.981L44.0252 417.058C45.9245 419.444 47.909 421.829 49.9179 424.141L47.5803 426.161ZM638.109 418.421L635.126 417.606C635.93 414.661 636.588 411.667 637.075 408.71L640.13 409.209C639.619 412.276 638.949 415.379 638.109 418.421ZM347.538 417.423C345.736 414.88 343.995 412.251 342.364 409.611L344.994 407.98C346.589 410.56 348.305 413.14 350.071 415.635L347.538 417.423ZM35.9409 411.558C34.1146 409.051 32.3127 406.471 30.6082 403.891L33.1893 402.175C34.8817 404.719 36.6471 407.262 38.449 409.732L35.9409 411.558ZM337.677 401.506C336.203 398.756 334.803 395.932 333.513 393.109L336.325 391.831C337.591 394.594 338.955 397.356 340.404 400.046L337.677 401.506ZM641.141 399.814L638.049 399.656C638.122 398.293 638.158 396.93 638.158 395.592C638.158 393.9 638.097 392.208 637.988 390.566L641.08 390.359C641.19 392.075 641.251 393.839 641.251 395.592C641.251 396.979 641.214 398.403 641.141 399.814ZM25.6042 395.993C23.9971 393.316 22.4265 390.59 20.9655 387.876L23.6806 386.404C25.1294 389.069 26.6635 391.758 28.2584 394.399L25.6042 395.993ZM329.909 384.457C328.801 381.536 327.79 378.542 326.902 375.573L329.86 374.684C330.737 377.593 331.723 380.514 332.806 383.361L329.909 384.457ZM636.819 381.572C636.222 378.579 635.431 375.646 634.445 372.835L637.367 371.812C638.389 374.757 639.229 377.836 639.85 380.964L636.819 381.572ZM16.6799 379.564C15.3041 376.741 14.0014 373.881 12.7839 371.058L15.6207 369.841C16.8138 372.616 18.1044 375.427 19.4558 378.214L16.6799 379.564ZM324.515 366.482C323.833 363.428 323.261 360.325 322.799 357.246L325.855 356.795C326.293 359.789 326.865 362.819 327.522 365.801L324.515 366.482ZM630.841 364.547C629.441 361.882 627.809 359.314 626.02 356.917L628.503 355.067C630.39 357.599 632.095 360.3 633.58 363.099L630.841 364.547ZM9.32613 362.381C8.23037 359.424 7.21984 356.442 6.31888 353.51L9.27743 352.597C10.1662 355.469 11.1524 358.402 12.2238 361.298L9.32613 362.381ZM620.078 350.114C617.996 348.058 615.695 346.05 613.224 344.164L615.098 341.705C617.667 343.677 620.078 345.758 622.245 347.912L620.078 350.114ZM321.764 347.924C321.532 344.857 321.386 341.717 321.35 338.553L324.442 338.517C324.479 341.608 324.613 344.687 324.844 347.681L321.764 347.924ZM3.82298 344.48C3.0803 341.413 2.42285 338.322 1.89932 335.304L4.94309 334.769C5.45445 337.726 6.08755 340.744 6.83023 343.75L3.82298 344.48ZM605.699 339.028C603.228 337.519 600.537 336.022 597.7 334.586L599.1 331.824C602.01 333.296 604.774 334.83 607.319 336.387L605.699 339.028ZM589.385 330.668C586.779 329.524 583.991 328.38 580.862 327.151L581.994 324.267C585.16 325.508 587.984 326.676 590.626 327.832L589.385 330.668ZM324.613 329.341L321.52 329.195C321.666 326.165 321.898 323.025 322.226 319.861L325.307 320.178C324.978 323.281 324.747 326.372 324.613 329.341ZM0.608755 326.007C0.292203 322.867 0.0852257 319.715 0 316.636L3.09248 316.551C3.16553 319.557 3.3725 322.624 3.67688 325.69L0.608755 326.007ZM572.206 323.865L571.183 323.488C568.626 322.538 566.069 321.589 563.5 320.616L564.596 317.719C567.153 318.693 569.71 319.642 572.254 320.591L573.277 320.969L572.206 323.865ZM554.832 317.184C551.703 315.894 548.902 314.665 546.26 313.424L547.575 310.625C550.169 311.842 552.92 313.046 556.013 314.324L554.832 317.184ZM206.076 311.111C204.688 311.111 203.276 311.075 201.863 310.99L202.034 307.899C203.409 307.972 204.797 308.008 206.125 308.02C207.793 308.02 209.46 307.96 211.104 307.85L211.323 310.941C209.594 311.051 207.841 311.148 206.076 311.111ZM326.451 311.051L323.395 310.588C323.846 307.594 324.369 304.503 324.966 301.376L328.009 301.96C327.413 305.039 326.889 308.093 326.451 311.051ZM192.464 309.882C189.372 309.322 186.279 308.568 183.272 307.631L184.185 304.674C187.07 305.562 190.041 306.292 193.012 306.84L192.464 309.882ZM220.722 309.639L220.089 306.609C223.06 305.988 225.994 305.173 228.807 304.15L229.854 307.059C226.92 308.13 223.839 308.994 220.722 309.639ZM537.896 309.176C535.047 307.582 532.344 305.927 529.873 304.236L531.626 301.68C534.012 303.323 536.63 304.929 539.406 306.475L537.896 309.176ZM3.2264 307.412L0.133926 307.242L0.206977 306.122C0.389603 303.372 0.681806 300.609 1.09576 297.883L4.15171 298.333C3.76211 300.974 3.4699 303.664 3.28728 306.329L3.2264 307.412ZM174.421 304.297C171.535 303.007 168.71 301.522 166.044 299.891L167.651 297.25C170.22 298.808 172.923 300.232 175.687 301.473L174.421 304.297ZM238.535 303.201L237.061 300.475C239.679 299.064 242.224 297.409 244.634 295.571L246.509 298.029C243.977 299.976 241.298 301.704 238.535 303.201ZM522.397 298.455C520.498 296.788 518.684 295.048 517.016 293.247C516.565 292.76 516.115 292.261 515.677 291.75L518.026 289.742C518.44 290.216 518.854 290.691 519.293 291.154C520.875 292.869 522.604 294.549 524.43 296.131L522.397 298.455ZM158.276 294.464C156.974 293.417 155.695 292.322 154.466 291.19C153.406 290.216 152.347 289.17 151.288 288.087L153.504 285.933C154.526 286.979 155.561 287.989 156.572 288.927C157.741 290.01 158.958 291.056 160.212 292.054L158.276 294.464ZM329.909 292.942L326.889 292.249C327.559 289.304 328.302 286.261 329.093 283.195L332.088 283.961C331.309 287.004 330.566 290.022 329.909 292.942ZM253.62 291.713L251.404 289.559C253.486 287.418 255.446 285.081 257.236 282.635L259.732 284.46C257.869 287.028 255.811 289.462 253.62 291.713ZM5.90493 289.365L2.89768 288.634C3.64036 285.58 4.54131 282.538 5.56402 279.605L8.48605 280.615C7.49986 283.462 6.63543 286.407 5.90493 289.365ZM510.161 283.961C508.554 281.211 507.178 278.315 506.07 275.345L508.968 274.262C510.015 277.061 511.318 279.799 512.828 282.392L510.161 283.961ZM145.03 281.053C143.252 278.899 141.426 276.55 139.283 273.678L141.767 271.828C143.885 274.664 145.675 276.976 147.416 279.094L145.03 281.053ZM264.784 276.429L262.057 274.968C263.481 272.303 264.735 269.528 265.783 266.717L268.68 267.788C267.584 270.745 266.27 273.654 264.784 276.429ZM334.499 275.041L331.516 274.202C332.356 271.22 333.233 268.238 334.121 265.269L337.08 266.158C336.203 269.115 335.339 272.084 334.499 275.041ZM11.8951 272.145L9.08263 270.855C10.4097 267.983 11.8829 265.172 13.4657 262.495L16.132 264.064C14.5979 266.644 13.1735 269.37 11.8951 272.145ZM133.804 266.17C131.978 263.651 130.176 261.18 128.326 258.722L130.797 256.86C132.672 259.33 134.486 261.813 136.325 264.356L133.804 266.17ZM503.538 266.145C503.051 263.395 502.807 260.657 502.807 257.992C502.807 257.529 502.82 257.055 502.832 256.592L505.924 256.69C505.912 257.116 505.9 257.554 505.9 257.992C505.9 260.474 506.131 263.042 506.582 265.61L503.538 266.145ZM271.347 258.686L268.327 258.028C268.972 255.059 269.399 252.041 269.593 249.084L272.686 249.291C272.479 252.394 272.028 255.57 271.347 258.686ZM339.807 257.31L336.861 256.385C337.786 253.428 338.724 250.483 339.661 247.538L342.607 248.475C341.67 251.42 340.732 254.365 339.807 257.31ZM21.1847 256.507L18.7131 254.645C20.6246 252.114 22.67 249.68 24.825 247.429L27.0653 249.558C24.9955 251.737 23.0109 254.061 21.1847 256.507ZM122.579 251.542C120.448 249.035 118.403 246.857 116.357 244.873L118.512 242.646C120.643 244.703 122.737 246.954 124.941 249.534L122.579 251.542ZM507.276 247.928L504.305 247.076C505.218 243.912 506.557 240.93 508.274 238.241L510.88 239.908C509.321 242.342 508.104 245.044 507.276 247.928ZM33.7129 243.401L31.7527 241.003C32.5684 240.346 33.3963 239.689 34.2364 239.068C35.9166 237.815 37.6819 236.622 39.4839 235.527L41.091 238.168C39.3621 239.214 37.6819 240.358 36.087 241.551C35.2835 242.147 34.4921 242.768 33.7129 243.401ZM269.472 240.054C269.192 237.036 268.656 234.055 267.877 231.195L270.86 230.392C271.675 233.422 272.248 236.574 272.54 239.774L269.472 240.054ZM345.444 239.64L342.498 238.691C343.448 235.746 344.385 232.801 345.31 229.856L348.257 230.781C347.344 233.738 346.394 236.695 345.444 239.64ZM109.454 239.008C108.298 238.156 107.117 237.352 105.936 236.61C104.596 235.77 103.208 234.992 101.784 234.274L103.172 231.511C104.669 232.266 106.155 233.105 107.567 233.994C108.809 234.773 110.063 235.624 111.268 236.513L109.454 239.008ZM49.1509 233.994L47.9212 231.158C50.8067 229.905 53.814 228.822 56.8456 227.97L57.6978 230.939C54.788 231.755 51.9146 232.789 49.1509 233.994ZM516.651 233.264L514.63 230.927C516.858 229.004 519.414 227.228 522.482 225.475L524.016 228.152C521.131 229.807 518.72 231.475 516.651 233.264ZM93.4317 230.915C90.5949 230.039 87.6242 229.382 84.617 228.956L85.0553 225.889C88.2208 226.339 91.3498 227.033 94.3449 227.958L93.4317 230.915ZM66.5491 229.041L66.1108 225.986C69.2642 225.536 72.4419 225.293 75.5709 225.28L75.5831 228.371C72.6002 228.371 69.5686 228.603 66.5491 229.041ZM532.174 224.076L530.92 221.252C533.391 220.157 536.143 219.025 539.588 217.711L540.696 220.595C537.3 221.897 534.597 223.005 532.174 224.076ZM264.821 222.713C263.615 220.035 262.167 217.346 260.523 214.742L263.141 213.099C264.857 215.825 266.379 218.636 267.645 221.447L264.821 222.713ZM351.033 221.922L348.074 221.021C348.622 219.208 349.17 217.382 349.706 215.569C350.046 214.437 350.375 213.294 350.692 212.15L353.662 213.001C353.334 214.158 353.005 215.302 352.664 216.445C352.141 218.271 351.581 220.096 351.033 221.922ZM549.377 217.322L548.294 214.425C551.07 213.391 554.028 212.259 556.914 211.091L558.082 213.951C555.16 215.143 552.165 216.275 549.377 217.322ZM566.666 210.117L565.29 207.355C568.297 205.858 570.866 204.373 573.119 202.816L574.872 205.359C572.486 207.002 569.807 208.56 566.666 210.117ZM255.215 207.367C253.4 205.116 251.355 202.828 249.139 200.552L251.355 198.398C253.632 200.735 255.738 203.108 257.613 205.432L255.215 207.367ZM356.097 203.996L353.102 203.242C353.869 200.224 354.588 197.206 355.233 194.261L358.252 194.93C357.595 197.899 356.865 200.954 356.097 203.996ZM582.128 199.019L579.803 196.987C580.229 196.5 580.643 195.989 581.033 195.478C582.323 193.774 583.273 191.778 583.857 189.539L586.852 190.33C586.158 192.958 585.026 195.307 583.504 197.339C583.066 197.911 582.603 198.471 582.128 199.019ZM242.516 194.212C240.373 192.301 238.084 190.342 235.503 188.249L237.451 185.852C240.069 187.981 242.394 189.965 244.574 191.912L242.516 194.212ZM360.103 185.778L357.059 185.219C357.632 182.152 358.131 179.097 358.569 176.128L361.625 176.578C361.199 179.584 360.687 182.687 360.103 185.778ZM228.247 182.529C225.787 180.643 223.316 178.781 220.856 176.931L222.719 174.461C225.191 176.311 227.674 178.185 230.134 180.071L228.247 182.529ZM584.515 180.85C584.308 178.1 583.748 175.142 582.871 172.051L585.842 171.2C586.779 174.485 587.376 177.661 587.595 180.606L584.515 180.85ZM213.442 171.346L212.285 170.469C210.154 168.839 208.085 167.171 206.112 165.529L208.097 163.156C210.033 164.774 212.066 166.405 214.16 168.011L215.305 168.887L213.442 171.346ZM362.806 167.305L359.726 166.989C360.042 163.886 360.298 160.795 360.468 157.813L363.561 157.984C363.378 161.026 363.122 164.153 362.806 167.305ZM579.742 163.545C578.524 160.819 577.124 158.105 575.554 155.477L578.208 153.895C579.839 156.633 581.3 159.456 582.567 162.291L579.742 163.545ZM199.099 159.322C196.75 157.119 194.522 154.892 192.464 152.678L194.729 150.572C196.738 152.726 198.917 154.917 201.206 157.071L199.099 159.322ZM363.841 148.637L360.748 148.625V147.883C360.748 145.035 360.675 142.2 360.529 139.437L363.622 139.267C363.768 142.078 363.853 144.974 363.853 147.871L363.841 148.637ZM570.44 147.968C569.539 146.812 568.626 145.729 567.725 144.731L570.014 142.65C570.964 143.709 571.938 144.853 572.875 146.07L570.44 147.968ZM186.352 145.522C184.355 142.954 182.529 140.362 180.934 137.794L183.564 136.164C185.098 138.634 186.864 141.141 188.799 143.624L186.352 145.522ZM359.738 130.31C359.373 127.244 358.886 124.189 358.313 121.256L361.345 120.66C361.929 123.666 362.416 126.793 362.806 129.933L359.738 130.31ZM176.442 129.446C175.102 126.477 174.019 123.459 173.215 120.49L176.198 119.686C176.953 122.497 177.976 125.345 179.254 128.168L176.442 129.446ZM356.207 112.348C355.379 109.391 354.417 106.47 353.346 103.671L356.244 102.576C357.339 105.46 358.326 108.466 359.19 111.508L356.207 112.348ZM171.62 111.083C171.535 109.939 171.499 108.783 171.499 107.651C171.499 105.862 171.596 104.049 171.803 102.26C171.827 102.016 171.864 101.761 171.888 101.517L174.956 101.919C174.932 102.15 174.895 102.381 174.871 102.613C174.676 104.28 174.579 105.971 174.579 107.651C174.579 108.722 174.615 109.805 174.701 110.864L171.62 111.083ZM349.706 95.311C348.354 92.585 346.857 89.9078 345.249 87.3522L347.867 85.7093C349.523 88.3501 351.069 91.1125 352.469 93.9358L349.706 95.311ZM177.026 93.2178L174.104 92.2078C175.127 89.2628 176.466 86.3421 178.085 83.531L180.764 85.0643C179.242 87.7173 177.988 90.4554 177.026 93.2178ZM340.014 79.9045C339.746 79.5637 339.478 79.223 339.211 78.8944C337.591 76.8865 335.838 74.915 334.024 73.0653L336.228 70.8991C338.115 72.8219 339.929 74.8542 341.621 76.9473C341.901 77.3002 342.181 77.6531 342.461 78.0061L340.014 79.9045ZM185.889 77.641L183.491 75.6939C185.427 73.3087 187.606 70.9843 189.956 68.7695L192.074 71.0208C189.81 73.1383 187.728 75.3653 185.889 77.641ZM327.291 66.9319C324.966 65.0335 322.494 63.2202 319.937 61.553L321.63 58.9731C324.272 60.7011 326.841 62.5752 329.239 64.5467L327.291 66.9319ZM199.063 65.2038L197.225 62.7213C199.696 60.8837 202.35 59.1313 205.09 57.5127L206.66 60.1779C204.018 61.7355 201.449 63.4271 199.063 65.2038ZM312.072 56.9408C309.406 55.5535 306.618 54.2757 303.781 53.1196L304.938 50.2476C307.872 51.428 310.745 52.7545 313.497 54.1905L312.072 56.9408ZM214.732 55.8942L213.417 53.0952C214.708 52.4868 216.035 51.9026 217.362 51.3428C218.921 50.6857 220.515 50.0529 222.11 49.4688L223.182 52.3773C221.636 52.9492 220.077 53.5577 218.567 54.1905C217.277 54.7259 215.986 55.2979 214.732 55.8942ZM295.161 50.0894C292.276 49.2132 289.293 48.4465 286.298 47.8259L286.931 44.7957C290.011 45.4407 293.079 46.2317 296.05 47.1322L295.161 50.0894ZM231.887 49.5783L231.059 46.5968C234.054 45.7693 237.135 45.0513 240.215 44.455L240.799 47.4973C237.804 48.0693 234.809 48.7751 231.887 49.5783ZM277.264 46.3047C274.256 45.9275 271.188 45.6597 268.145 45.5259L268.291 42.4348C271.42 42.5809 274.573 42.8486 277.665 43.238L277.264 46.3047ZM249.857 46.1222L249.517 43.0433C252.609 42.7026 255.775 42.4713 258.891 42.3618L258.989 45.4528C255.945 45.5624 252.877 45.7936 249.857 46.1222Z" fill="#689FFF"/>
<path d="M464.76 514H125.549C118.281 514 112.388 508.11 112.388 500.845V283.341C112.388 276.076 118.281 270.186 125.549 270.186H464.76C472.029 270.186 477.921 276.076 477.921 283.341V500.857C477.921 508.11 472.029 514 464.76 514Z" fill="#101439"/>
<path d="M473.362 394.696C474.779 388.725 471.085 382.737 465.111 381.322C459.138 379.906 453.147 383.599 451.731 389.569C450.315 395.54 454.009 401.527 459.982 402.943C465.956 404.359 471.946 400.666 473.362 394.696Z" fill="#1C2363"/>
<path d="M120.18 433.317C118.232 433.317 116.662 431.735 116.662 429.8V354.398C116.662 352.451 118.232 350.881 120.18 350.881C122.128 350.881 123.699 352.463 123.699 354.398V429.8C123.699 431.747 122.128 433.317 120.18 433.317Z" fill="#1C2363"/>
<path d="M447.155 279.179H128.703V504.995H447.155V279.179Z" fill="#DCE8F4"/>
<path d="M447.155 279.19H128.703V294.366H447.155V279.19Z" fill="#A6AFB8"/>
<path d="M137.956 287.406H133.926V292.529H137.956V287.406Z" fill="#27DEBF"/>
<path d="M143.191 283.828H139.161V292.517H143.191V283.828Z" fill="#27DEBF"/>
<path d="M148.731 281.357H144.701V292.517H148.731V281.357Z" fill="#27DEBF"/>
<path d="M421.855 282.282V283.024C421.855 283.608 421.38 284.095 420.784 284.095H419.59C419.006 284.095 418.519 284.57 418.519 285.166V288.403C418.519 288.987 418.994 289.474 419.59 289.474H420.784C421.368 289.474 421.855 289.949 421.855 290.545V291.287C421.855 291.871 422.33 292.358 422.926 292.358H439.521C440.105 292.358 440.592 291.884 440.592 291.287V282.306C440.592 281.722 440.118 281.235 439.521 281.235H422.926C422.33 281.211 421.855 281.698 421.855 282.282Z" fill="#DCE8F4"/>
<path d="M439.558 291.774H436.599C436.38 291.774 436.209 291.591 436.209 291.384V282.172C436.209 281.953 436.38 281.783 436.599 281.783H439.558C439.777 281.783 439.947 281.965 439.947 282.172V291.384C439.947 291.591 439.765 291.774 439.558 291.774Z" fill="#00AD9F"/>
<path d="M434.967 291.774H432.009C431.79 291.774 431.619 291.591 431.619 291.384V282.172C431.619 281.953 431.802 281.783 432.009 281.783H434.967C435.186 281.783 435.357 281.965 435.357 282.172V291.384C435.357 291.591 435.186 291.774 434.967 291.774Z" fill="#00AD9F"/>
<path d="M430.377 291.774H427.419C427.2 291.774 427.029 291.591 427.029 291.384V282.172C427.029 281.953 427.212 281.783 427.419 281.783H430.377C430.597 281.783 430.767 281.965 430.767 282.172V291.384C430.767 291.591 430.597 291.774 430.377 291.774Z" fill="#00AD9F"/>
<path d="M413.527 286.772C413.527 289.133 411.615 291.044 409.253 291.044C406.891 291.044 404.98 289.133 404.98 286.772C404.98 284.412 406.891 282.501 409.253 282.501C411.615 282.501 413.527 284.412 413.527 286.772Z" fill="#DCE8F4"/>
<path d="M427.017 311.403H148.84V487.592H427.017V311.403Z" fill="#C3CED9"/>
<path d="M427.017 311.403H148.84V326.591H427.017V311.403Z" fill="#A7B1BA"/>
<path d="M421.393 334.477H239.277V341.705H421.393V334.477Z" fill="#E0EDFA"/>
<path d="M339.783 348.228H239.277V355.457H339.783V348.228Z" fill="#E0EDFA"/>
<path d="M293.359 361.992H239.277V369.22H293.359V361.992Z" fill="#E0EDFA"/>
<path d="M421.393 385.844H239.277V393.072H421.393V385.844Z" fill="#E0EDFA"/>
<path d="M339.783 399.595H239.277V406.824H339.783V399.595Z" fill="#E0EDFA"/>
<path d="M293.359 413.359H239.277V420.587H293.359V413.359Z" fill="#E0EDFA"/>
<path d="M421.393 436.006H239.277V443.234H421.393V436.006Z" fill="#E0EDFA"/>
<path d="M339.783 449.757H239.277V456.986H339.783V449.757Z" fill="#E0EDFA"/>
<path d="M293.359 463.521H239.277V470.75H293.359V463.521Z" fill="#E0EDFA"/>
<path d="M230.377 334.477H159.75V374.222H230.377V334.477Z" fill="#E0EDFA"/>
<path d="M159.75 374.21L195.069 354.349L230.377 374.21H159.75Z" fill="#CEDAE6"/>
<path d="M230.377 334.477L195.069 354.349L159.75 334.477H230.377Z" fill="#CEDAE6"/>
<path d="M230.377 385.612H159.75V425.358H230.377V385.612Z" fill="#E0EDFA"/>
<path d="M159.75 425.345L195.069 405.485L230.377 425.345H159.75Z" fill="#CEDAE6"/>
<path d="M230.377 385.612L195.069 405.485L159.75 385.612H230.377Z" fill="#CEDAE6"/>
<path d="M230.377 436.749H159.75V476.494H230.377V436.749Z" fill="#E0EDFA"/>
<path d="M159.75 476.482L195.069 456.621L230.377 476.482H159.75Z" fill="#CEDAE6"/>
<path d="M230.377 436.749L195.069 456.621L159.75 436.749H230.377Z" fill="#CEDAE6"/>
<g opacity="0.44">
<path opacity="0.44" d="M242.491 279.179L128.703 392.938V293.526L143.069 279.179H242.491Z" fill="white"/>
<path opacity="0.44" d="M311.561 279.179L128.703 461.951V411.107L260.693 279.179H311.561Z" fill="white"/>
</g>
<g opacity="0.44">
<path opacity="0.44" d="M447.155 303.761V403.148L345.249 504.994H245.827L447.155 303.761Z" fill="white"/>
<path opacity="0.44" d="M447.154 421.33V472.173L414.306 504.994H363.438L447.154 421.33Z" fill="white"/>
</g>
<path d="M182.431 272.997L276.849 199.871C282.815 195.246 291.155 195.246 297.121 199.871L391.539 272.997V395.543H182.431V272.997Z" fill="#0075C9"/>
<path d="M367.335 208.048H206.611V384.724H367.335V208.048Z" fill="#FAFAFA"/>
<path d="M357.668 218.685H216.291V224.076H357.668V218.685Z" fill="#DBDBDB"/>
<path d="M336.434 229.503H216.291V234.894H336.434V229.503Z" fill="#DBDBDB"/>
<path d="M316.942 240.334H216.291V245.725H316.942V240.334Z" fill="#DBDBDB"/>
<path d="M316.942 261.119H216.291V266.51H316.942V261.119Z" fill="#DBDBDB"/>
<path d="M290.948 271.512H216.291V276.903H290.948V271.512Z" fill="#DBDBDB"/>
<path d="M361.637 293.283H286.979V298.674H361.637V293.283Z" fill="#DBDBDB"/>
<path d="M361.649 303.895H300.92V309.286H361.649V303.895Z" fill="#DBDBDB"/>
<path d="M286.979 334.306L182.431 273.07V395.543L286.979 334.306Z" fill="#4ED3F5"/>
<path d="M286.979 334.306L391.527 273.07V395.543L286.979 334.306Z" fill="#4ED3F5"/>
<path d="M276.837 322.417L182.419 395.543H391.527L297.109 322.417C291.155 317.804 282.815 317.804 276.837 322.417Z" fill="#27BDDE"/>
<path d="M122.007 127.816C124.758 127.925 127.218 128.692 129.397 130.116C131.577 131.539 133.257 133.487 134.438 135.957C135.302 137.782 135.765 139.486 135.801 141.068C135.85 142.65 135.533 144.013 134.852 145.169C134.17 146.325 133.184 147.214 131.881 147.822C130.81 148.333 129.775 148.552 128.801 148.467C127.814 148.394 126.938 148.005 126.159 147.299C126 149.538 124.783 151.193 122.494 152.288C121.301 152.86 120.035 153.067 118.695 152.921C117.356 152.775 116.102 152.276 114.933 151.412C113.764 150.548 112.827 149.368 112.109 147.871C111.39 146.374 111.074 144.901 111.122 143.453C111.183 142.005 111.573 140.727 112.316 139.608C113.046 138.488 114.02 137.636 115.238 137.064C117.027 136.212 118.707 136.127 120.29 136.784L119.584 135.3L124.539 132.939L128.947 142.212C129.251 142.857 129.604 143.271 129.982 143.441C130.359 143.611 130.749 143.599 131.163 143.405C132.441 142.796 132.331 140.922 130.834 137.782C129.921 135.86 128.655 134.363 127.035 133.292C125.416 132.221 123.59 131.661 121.544 131.6C119.499 131.539 117.405 132.026 115.262 133.036C113.131 134.046 111.463 135.397 110.246 137.101C109.028 138.792 108.346 140.666 108.2 142.711C108.054 144.755 108.456 146.776 109.418 148.783C110.392 150.828 111.707 152.446 113.375 153.651C115.043 154.844 116.906 155.513 118.963 155.635C121.021 155.757 123.115 155.318 125.246 154.308C127.413 153.274 129.215 151.875 130.663 150.098L133.33 152.812C132.636 153.688 131.698 154.564 130.542 155.44C129.385 156.316 128.155 157.059 126.853 157.679C123.918 159.079 121.033 159.699 118.22 159.553C115.396 159.407 112.876 158.556 110.635 157.01C108.395 155.464 106.642 153.371 105.388 150.718C104.134 148.09 103.623 145.413 103.854 142.711C104.085 140.009 105.035 137.502 106.715 135.215C108.395 132.927 110.721 131.077 113.679 129.665C116.467 128.327 119.255 127.706 122.007 127.816ZM123.565 145.595C123.833 144.719 123.699 143.733 123.176 142.614C122.652 141.518 121.97 140.8 121.13 140.46C120.278 140.119 119.414 140.155 118.525 140.581C117.636 141.007 117.064 141.652 116.796 142.516C116.54 143.38 116.674 144.366 117.186 145.461C117.709 146.556 118.391 147.287 119.231 147.64C120.071 147.992 120.936 147.968 121.836 147.542C122.713 147.116 123.297 146.471 123.565 145.595Z" fill="#4ED3F5"/>
<path d="M399.429 134.278L397.858 139.352L402.363 140.18L401.511 144.816L396.434 143.879L394.766 149.112L389.871 148.212L391.539 142.979L387.108 142.163L385.44 147.396L380.545 146.496L382.213 141.263L377.672 140.423L378.524 135.787L383.638 136.724L385.208 131.649L380.667 130.809L381.519 126.173L386.633 127.11L388.301 121.877L393.195 122.777L391.527 128.01L395.959 128.826L397.627 123.593L402.521 124.493L400.853 129.726L405.395 130.566L404.542 135.202L399.429 134.278ZM394.534 133.377L390.103 132.562L388.532 137.636L392.964 138.452L394.534 133.377Z" fill="#689FFF"/>
<path d="M164.668 447.446H104.061C85.664 447.446 70.7495 432.538 70.7495 414.15C70.7495 395.762 85.664 380.854 104.061 380.854H131.369C149.766 380.854 164.68 395.762 164.68 414.15V447.446H164.668Z" fill="#4ED3F5"/>
<path d="M117.709 388.972C103.817 388.972 92.5186 400.265 92.5186 414.15C92.5307 428.023 103.829 439.317 117.709 439.317C131.601 439.317 142.899 428.023 142.899 414.138C142.899 400.265 131.601 388.972 117.709 388.972ZM95.7815 414.15C95.7815 412.459 95.9885 410.828 96.3537 409.246C97.5104 408.723 99.6166 407.859 102.587 407.08C101.918 410.864 101.662 415.112 102.271 419.59C100.274 419.067 98.2165 418.434 96.0859 417.692C95.9032 416.535 95.7815 415.355 95.7815 414.15ZM105.911 406.337C111.463 405.279 119.024 404.792 128.167 406.496C129.044 410.84 129.47 415.866 128.691 421.014C122.883 422.024 115.043 422.352 105.607 420.369C104.681 415.27 105.035 410.463 105.911 406.337ZM131.576 407.226C133.999 407.798 136.519 408.528 139.125 409.441C139.454 410.962 139.648 412.532 139.648 414.15C139.648 415.416 139.514 416.645 139.307 417.85C138.139 418.409 135.655 419.444 132.039 420.32C132.575 415.708 132.27 411.23 131.576 407.226ZM137.92 405.619C135.485 404.841 133.123 404.22 130.846 403.721C129.957 400.058 128.837 396.967 127.912 394.764C132.368 397.113 135.935 400.946 137.92 405.619ZM123.553 393.036C124.101 394.107 125.939 397.855 127.352 403.04C119.146 401.664 112.206 401.956 106.8 402.833C108.249 398.001 110.197 394.545 110.952 393.304C113.082 392.61 115.359 392.221 117.721 392.221C119.742 392.221 121.69 392.525 123.553 393.036ZM106.167 395.543C105.229 397.624 104.182 400.338 103.367 403.502C101.114 404.025 99.227 404.609 97.7295 405.157C99.5314 401.178 102.478 397.831 106.167 395.543ZM97.0477 421.44C99.0566 422.097 101.005 422.632 102.904 423.095C103.695 426.429 104.998 429.849 106.995 433.268C102.405 430.676 98.8374 426.478 97.0477 421.44ZM112.303 435.374C109.393 431.528 107.53 427.634 106.423 423.861C111.073 424.75 115.359 425.127 119.194 425.127C122.445 425.127 125.379 424.871 127.985 424.482C127.023 428.206 125.355 431.942 122.725 435.483C121.118 435.86 119.438 436.08 117.721 436.08C115.846 436.08 114.044 435.812 112.303 435.374ZM127.814 433.597C129.604 430.384 130.785 427.098 131.479 423.837C134.279 423.229 136.556 422.498 138.236 421.853C136.312 426.928 132.575 431.102 127.814 433.597Z" fill="#FAFAFA"/>
<path d="M403.142 488.542H463.762C482.159 488.542 497.073 473.634 497.073 455.246C497.073 436.858 482.159 421.951 463.762 421.951H436.453C418.057 421.951 403.142 436.858 403.142 455.246V488.542Z" fill="#27DEBF"/>
<path d="M475.048 445.681C475.048 436.262 460.061 428.169 450.101 436.299C440.142 428.169 425.155 436.262 425.155 445.681C425.155 445.681 421.928 464.142 450.101 477.541C478.262 464.154 475.048 445.681 475.048 445.681Z" stroke="#FAFAFA" stroke-width="3.8114" stroke-miterlimit="10" stroke-linejoin="round"/>
<path d="M631.23 147.493C630.841 147.347 630.463 147.226 630.074 147.116C629.964 146.739 629.842 146.349 629.696 145.972C629.075 144.439 628.26 142.905 626.628 141.372C624.997 142.905 624.181 144.439 623.56 145.972C623.414 146.362 623.292 146.739 623.183 147.128C622.793 147.238 622.416 147.359 622.026 147.505C620.492 148.126 618.958 148.941 617.424 150.572C618.958 152.203 620.492 153.018 622.026 153.639C622.403 153.785 622.793 153.907 623.17 154.016C623.28 154.406 623.402 154.783 623.548 155.172C624.169 156.706 624.985 158.239 626.628 159.772C628.272 158.239 629.088 156.706 629.709 155.172C629.855 154.795 629.976 154.406 630.086 154.028C630.463 153.919 630.853 153.797 631.23 153.651C632.764 153.03 634.299 152.215 635.833 150.572C634.299 148.929 632.764 148.114 631.23 147.493Z" fill="#4ED3F5"/>
<path d="M246.546 83.5068C246.205 83.3729 245.864 83.2634 245.523 83.1782C245.426 82.8375 245.316 82.5089 245.194 82.1681C244.646 80.8173 243.928 79.4665 242.491 78.1157C241.055 79.4665 240.336 80.8173 239.789 82.1681C239.655 82.5089 239.545 82.8496 239.46 83.1782C239.119 83.2756 238.778 83.3851 238.449 83.5068C237.098 84.0544 235.746 84.7724 234.395 86.2084C235.746 87.6444 237.098 88.3624 238.449 88.91C238.79 89.0317 239.119 89.1412 239.46 89.2386C239.557 89.5793 239.667 89.9201 239.789 90.2608C240.336 91.6116 241.055 92.9624 242.504 94.3132C243.952 92.9624 244.671 91.6116 245.219 90.2608C245.34 89.9201 245.45 89.5915 245.547 89.2507C245.888 89.1534 246.217 89.0439 246.558 88.9222C247.909 88.3745 249.261 87.6565 250.612 86.2084C249.249 84.7724 247.897 84.0544 246.546 83.5068Z" fill="#4ED3F5"/>
<path d="M466.757 41.145C466.416 41.0111 466.075 40.9016 465.734 40.8164C465.637 40.4756 465.528 40.1471 465.406 39.8063C464.858 38.4555 464.14 37.1047 462.703 35.7539C461.266 37.1047 460.548 38.4555 460 39.8063C459.866 40.1471 459.756 40.4878 459.671 40.8164C459.33 40.9137 458.989 41.0233 458.661 41.145C457.309 41.6926 455.958 42.4106 454.606 43.8466C455.958 45.2826 457.309 46.0006 458.661 46.5482C459.002 46.682 459.33 46.7794 459.671 46.8768C459.769 47.2175 459.878 47.5582 460 47.899C460.548 49.2498 461.266 50.6006 462.715 51.9514C464.164 50.6006 464.882 49.2498 465.43 47.899C465.552 47.5582 465.661 47.2297 465.759 46.8889C466.1 46.7916 466.428 46.682 466.769 46.5604C468.121 46.0127 469.472 45.2947 470.824 43.8466C469.46 42.4106 468.109 41.6926 466.757 41.145Z" fill="#689FFF"/>
</g>
<defs>
<clipPath id="clip0">
<rect width="675" height="514" fill="white"/>
</clipPath>
</defs>
</svg>
